<?xml version="1.0" encoding="UTF-8" standalone="no"?>
<svg
   xmlns:dc="http://purl.org/dc/elements/1.1/"
   xmlns:cc="http://creativecommons.org/ns#"
   xmlns:rdf="http://www.w3.org/1999/02/22-rdf-syntax-ns#"
   xmlns:svg="http://www.w3.org/2000/svg"
   xmlns="http://www.w3.org/2000/svg"
   xmlns:xlink="http://www.w3.org/1999/xlink"
   xmlns:sodipodi="http://sodipodi.sourceforge.net/DTD/sodipodi-0.dtd"
   xmlns:inkscape="http://www.inkscape.org/namespaces/inkscape"
   sodipodi:docname="fotos.svg"
   inkscape:version="1.1-dev (2c50571925, 2020-02-08)"
   id="svg394"
   version="1.1"
   viewBox="0 0 8.4666653 8.4666405"
   height="8.4666405mm"
   width="8.4666653mm">
  <defs
     id="defs388">
    <radialGradient
       inkscape:collect="always"
       xlink:href="#linearGradient999"
       id="radialGradient1489"
       gradientUnits="userSpaceOnUse"
       gradientTransform="matrix(0.10583333,0,0,0.10583333,47.253572,91.372191)"
       cx="-470.15863"
       cy="120.1164"
       fx="-470.15863"
       fy="120.1164"
       r="40" />
    <linearGradient
       inkscape:collect="always"
       id="linearGradient999">
      <stop
         style="stop-color:#aa0000;stop-opacity:1"
         offset="0"
         id="stop995" />
      <stop
         style="stop-color:#d40000;stop-opacity:1"
         offset="1"
         id="stop997" />
    </linearGradient>
  </defs>
  <sodipodi:namedview
     inkscape:window-maximized="1"
     inkscape:window-y="32"
     inkscape:window-x="0"
     inkscape:window-height="712"
     inkscape:window-width="1366"
     showgrid="false"
     inkscape:current-layer="layer1"
     inkscape:document-units="px"
     inkscape:cy="16.353645"
     inkscape:cx="18.108378"
     inkscape:zoom="11.2"
     inkscape:pageshadow="2"
     inkscape:pageopacity="0.0"
     borderopacity="1.0"
     bordercolor="#666666"
     pagecolor="#ffffff"
     id="base" />
  <metadata
     id="metadata391">
    <rdf:RDF>
      <cc:Work
         rdf:about="">
        <dc:format>image/svg+xml</dc:format>
        <dc:type
           rdf:resource="http://purl.org/dc/dcmitype/StillImage" />
        <dc:title></dc:title>
      </cc:Work>
    </rdf:RDF>
  </metadata>
  <g
     transform="translate(6.7382172,-99.85119)"
     id="layer1"
     inkscape:groupmode="layer"
     inkscape:label="Capa 1">
    <rect
       style="opacity:1;fill:url(#radialGradient1489);fill-opacity:1;stroke:none;stroke-width:0.0179379;stroke-linecap:round;stroke-linejoin:miter;stroke-miterlimit:4;stroke-dasharray:none;stroke-dashoffset:0;stroke-opacity:1"
       id="rect1443"
       width="8.4666672"
       height="8.4666672"
       x="-6.7382183"
       y="99.851173"
       ry="0.5902828" />
    <path
       transform="matrix(0.26458334,0,0,0.26458334,-6.7382172,99.85119)"
       d="M 12.371094 0 L 9.4238281 2.6523438 L 24.53125 6.9121094 L 22.740234 0 L 12.371094 0 z M 23.300781 8.0546875 L 24.359375 13.691406 L 27.869141 15.363281 L 27.869141 27.097656 C 26.326852 27.258286 24.015625 28.136719 24.015625 28.136719 L 32 28.136719 L 32 28.011719 C 31.329164 27.756601 29.591417 27.13265 28.46875 27.074219 L 28.46875 15.050781 C 28.859485 14.643462 29.53593 13.770667 29.884766 12.314453 C 30.28676 10.636305 29.300201 9.4419435 28.873047 9.0175781 L 28.46875 14.082031 L 28.384766 15.138672 L 27.957031 15.40625 L 28.474609 8.9199219 L 23.300781 8.0546875 z M 5.3417969 14.830078 C 5.0266939 14.880724 4.624286 15.10961 4.4179688 15.355469 C 4.0559769 15.786864 3.7498756 16.592409 3.6523438 17.363281 C 3.6317075 17.520888 3.6270165 17.769592 3.6289062 18.291016 C 3.630782 18.919324 3.6100204 19.393819 3.578125 19.423828 C 3.5724935 19.427608 3.5147869 19.431514 3.4472656 19.427734 C 3.130288 19.416396 2.7845046 19.625649 2.6269531 19.925781 C 2.5444271 20.085277 2.4337036 20.530662 2.3417969 21.083984 C 2.2892803 21.399197 2.2807534 21.434139 2.1269531 21.919922 C 2.0106646 22.28578 1.945187 22.513389 1.8476562 22.884766 C 1.7501255 23.256293 1.6799644 23.451302 1.5449219 23.738281 C 1.2898378 24.278451 1.2728505 24.423661 1.4003906 24.939453 C 1.4247686 25.036965 1.4638995 25.209964 1.4882812 25.324219 C 1.6420816 26.078234 1.7411341 26.357113 2.09375 27.058594 C 2.408853 27.688792 2.5510607 27.942234 2.6523438 28.056641 C 2.7292458 28.144704 3.0190043 28.347396 3.1953125 28.4375 C 3.2459544 28.460177 3.2932004 28.492504 3.2988281 28.501953 C 3.3213541 28.535969 3.7084265 28.783203 3.7421875 28.783203 C 3.7797182 28.783203 3.8339844 28.726744 3.8339844 28.685547 C 3.8339844 28.670429 3.7866599 28.615099 3.7285156 28.564453 C 3.570966 28.429524 3.5332031 28.393393 3.5332031 28.371094 C 3.5332031 28.331787 3.5848696 28.356374 3.7480469 28.476562 C 4.0837823 28.722232 4.241924 28.79296 4.3300781 28.746094 C 4.3882224 28.715858 4.4087625 28.644649 4.375 28.601562 C 4.3599953 28.586444 4.3023634 28.541387 4.2460938 28.505859 C 4.1898241 28.468064 4.0849462 28.389731 4.0136719 28.328125 C 3.9423975 28.268031 3.8664103 28.208226 3.8476562 28.197266 C 3.8082698 28.174588 3.8042028 28.130733 3.8398438 28.126953 C 3.8923603 28.123174 3.9236259 28.136927 4.0605469 28.236328 C 4.3850269 28.476328 4.4290974 28.506753 4.5566406 28.568359 C 4.7535805 28.665871 4.9023438 28.655789 4.9023438 28.548828 C 4.9023438 28.526151 4.9146828 28.499556 4.9296875 28.486328 C 4.9446922 28.47499 4.9589844 28.45621 4.9589844 28.443359 C 4.9589844 28.432021 4.8890919 28.351925 4.8046875 28.269531 C 4.61525 28.083956 4.3911676 27.829559 4.4042969 27.816406 C 4.4099284 27.812627 4.4389013 27.816786 4.4726562 27.828125 C 4.5570569 27.854582 4.7590355 27.854455 4.8359375 27.824219 C 4.9653561 27.769794 4.9571436 27.683965 4.8183594 27.648438 C 4.7770945 27.640878 4.6762798 27.599917 4.59375 27.5625 C 4.4943409 27.517524 4.4156446 27.494141 4.359375 27.494141 C 4.3124862 27.494141 4.1909706 27.463262 4.0859375 27.427734 C 3.9471419 27.378978 3.8232716 27.350297 3.6113281 27.324219 C 3.1968179 27.271683 3.2064723 27.280558 3.0039062 26.884766 C 2.6775516 26.248936 2.6079024 26.01321 2.5722656 25.435547 C 2.5422562 24.942243 2.5445383 24.765703 2.5820312 24.578125 C 2.5989257 24.495731 2.6215571 24.308327 2.6328125 24.164062 C 2.6459275 24.019685 2.6707927 23.836224 2.6914062 23.753906 C 2.728937 23.601969 2.7505899 23.545542 3.0957031 22.757812 C 3.210117 22.498915 3.3274086 22.217045 3.3574219 22.128906 C 3.3855416 22.040843 3.4142942 21.962259 3.4199219 21.955078 C 3.4274431 21.947519 3.4521921 22.00953 3.4765625 22.095703 C 3.7597814 23.127287 3.824873 23.287698 4.21875 23.869141 C 4.3706757 24.0944 4.5535736 24.361663 4.6210938 24.464844 C 4.752387 24.663647 4.9728733 25.054018 5.0253906 25.179688 C 5.0422851 25.218995 5.1224737 25.387947 5.203125 25.552734 C 5.2837763 25.7179 5.4011503 26.003765 5.4667969 26.189453 C 5.6693644 26.776527 5.791295 26.981903 6.1289062 27.300781 C 6.4383815 27.593317 6.7164276 27.77156 7.3691406 28.103516 C 7.8061579 28.324996 8.0364748 28.412118 8.3046875 28.458984 C 8.9817834 28.575394 9.8467586 28.271015 10.203125 27.785156 C 10.281902 27.680085 10.31512 27.652145 10.425781 27.599609 C 10.49893 27.565594 10.632703 27.487892 10.724609 27.429688 C 10.818391 27.371483 10.904839 27.324219 10.917969 27.324219 C 10.931084 27.324219 10.949697 27.340604 10.960938 27.363281 C 10.990947 27.419596 11.185843 27.550781 11.240234 27.550781 C 11.296504 27.548891 11.339131 27.520717 11.369141 27.462891 C 11.402892 27.402796 11.369885 27.332953 11.246094 27.208984 L 11.140625 27.099609 L 11.199219 27.021484 C 11.264865 26.927752 11.339702 26.895977 11.525391 26.880859 L 11.646484 26.869141 L 11.695312 26.980469 C 11.723432 27.042453 11.762649 27.139566 11.785156 27.201172 C 11.84705 27.364447 11.914822 27.419279 11.980469 27.353516 C 12.01422 27.3195 12.010492 27.294805 11.933594 27.011719 C 11.866072 26.754711 11.881823 26.744556 12.046875 26.943359 C 12.125652 27.038981 12.142578 27.072718 12.142578 27.132812 C 12.142578 27.251112 12.19553 27.37935 12.248047 27.392578 C 12.274315 27.400137 12.29906 27.396358 12.304688 27.392578 C 12.327213 27.369901 12.404297 27.055732 12.404297 26.984375 C 12.404297 26.94658 12.397944 26.907635 12.386719 26.902344 C 12.377346 26.898564 12.367187 26.875942 12.367188 26.857422 C 12.367188 26.802997 12.219416 26.634875 12.09375 26.544922 C 11.964331 26.453079 11.87531 26.358108 11.882812 26.320312 C 11.886564 26.305194 12.028539 26.227366 12.199219 26.146484 C 12.718764 25.898925 13.255814 25.582066 13.632812 25.298828 C 13.728469 25.227395 13.821011 25.167969 13.837891 25.167969 C 13.854785 25.167969 14.07078 25.336543 14.318359 25.541016 C 14.834153 25.970521 15.122227 26.193873 15.480469 26.443359 C 16.015018 26.814887 16.248296 27.012169 16.443359 27.259766 C 16.58028 27.43249 16.644531 27.539515 16.644531 27.599609 C 16.644531 27.618507 16.626105 27.667788 16.605469 27.708984 C 16.579201 27.76152 16.568359 27.820077 16.568359 27.90625 C 16.570235 28.140581 16.684355 28.302859 16.986328 28.494141 C 17.06323 28.541007 17.400563 28.694943 17.830078 28.875 C 18.115172 28.993299 18.28866 29.080928 18.5625 29.246094 C 18.761314 29.364393 18.983414 29.487469 19.054688 29.521484 C 19.127836 29.5555 19.187653 29.584048 19.191406 29.585938 C 19.195157 29.589717 19.180957 29.618833 19.164062 29.65625 C 19.124676 29.736754 19.139361 29.808413 19.203125 29.849609 C 19.250014 29.879846 19.254744 29.879212 19.322266 29.830078 L 19.390625 29.783203 L 19.417969 29.833984 C 19.432973 29.860441 19.453596 29.890878 19.464844 29.898438 C 19.496743 29.921115 19.584605 29.913429 19.599609 29.894531 C 19.607131 29.883193 19.628179 29.891677 19.658203 29.921875 C 19.682581 29.948332 19.715464 29.970703 19.730469 29.970703 C 19.775483 29.970703 19.832031 29.936045 19.832031 29.904297 C 19.832031 29.874061 19.881558 29.866248 19.898438 29.896484 C 19.917184 29.926721 19.993581 29.914875 20.027344 29.880859 C 20.044238 29.861962 20.062563 29.820937 20.064453 29.792969 C 20.068204 29.762733 20.072329 29.734058 20.074219 29.724609 C 20.074219 29.71705 20.100936 29.712891 20.132812 29.712891 C 20.215338 29.712891 20.276478 29.67873 20.302734 29.615234 C 20.330854 29.545691 20.307554 29.49435 20.140625 29.267578 C 20.069351 29.171956 20.017036 29.079816 20.003906 29.025391 C 19.975787 28.91465 19.92206 28.813107 19.832031 28.691406 C 19.75138 28.580666 19.671239 28.507279 19.466797 28.351562 C 19.384271 28.287688 19.219726 28.145833 19.101562 28.033203 C 18.983399 27.920573 18.825181 27.774812 18.753906 27.710938 C 18.680757 27.645174 18.631323 27.59375 18.642578 27.59375 C 18.653841 27.59375 18.783543 27.669562 18.933594 27.763672 C 19.400621 28.058097 19.621064 28.189248 19.951172 28.373047 C 20.49885 28.678811 20.9087 28.979387 21.0625 29.189453 L 21.136719 29.291016 L 21.130859 29.464844 C 21.121486 29.772497 21.196259 29.924365 21.408203 30.03125 C 21.605143 30.130652 21.699438 30.145479 22.224609 30.162109 C 22.894203 30.184787 22.991322 30.214084 23.490234 30.529297 C 23.921625 30.801423 24.000513 30.828125 24.34375 30.828125 C 24.600709 30.830015 24.607314 30.83034 24.699219 30.884766 C 24.781746 30.933522 24.811679 30.941406 24.933594 30.941406 C 25.158667 30.939516 25.28835 30.850142 25.318359 30.667969 C 25.331489 30.591244 25.31901 30.556623 25.240234 30.462891 C 25.159583 30.367269 25.075768 30.291804 24.876953 30.128906 C 24.770043 30.042733 24.555927 29.920094 24.349609 29.832031 C 23.993243 29.676315 23.831161 29.579939 23.384766 29.246094 C 23.240343 29.135354 23.020275 28.975096 22.896484 28.884766 C 22.77457 28.796703 22.616118 28.66739 22.542969 28.603516 C 22.361034 28.44024 22.237923 28.354597 21.898438 28.144531 C 21.560827 27.93439 21.376083 27.801722 20.929688 27.445312 C 20.365129 26.995171 20.065952 26.721008 19.0625 25.736328 C 17.888367 24.584706 17.716298 24.431914 17.089844 24.013672 C 16.81788 23.831877 16.752727 23.768819 16.535156 23.466797 C 16.319462 23.170482 16.258352 23.105433 16.035156 22.917969 C 15.590636 22.546441 15.490388 22.505404 15.021484 22.494141 C 14.477557 22.482802 14.349872 22.482701 14.261719 22.492188 L 14.177734 22.5 L 13.996094 22.226562 C 13.752265 21.860704 13.595749 21.552068 13.455078 21.158203 C 13.269394 20.633 13.155473 20.44226 12.900391 20.226562 C 12.589041 19.960106 12.278629 19.855414 11.931641 19.900391 C 11.798473 19.915509 11.738669 19.938529 11.511719 20.050781 C 11.367295 20.122214 11.184166 20.224808 11.103516 20.277344 C 10.784663 20.491265 9.5288449 21.819447 8.9980469 22.507812 C 8.810484 22.749702 8.574125 23.09701 8.3828125 23.412109 C 8.3021612 23.545149 8.2301586 23.652344 8.2226562 23.652344 C 8.215135 23.652344 8.2008428 23.60716 8.1933594 23.552734 C 8.1877279 23.500199 8.1629638 23.329608 8.1367188 23.175781 C 8.1123408 23.021954 8.0919501 22.894468 8.0957031 22.892578 C 8.0975785 22.890726 8.1427175 22.869892 8.1933594 22.845703 C 8.2458759 22.823026 8.3343554 22.753454 8.390625 22.693359 C 8.7094811 22.363407 8.7424349 21.862459 8.4648438 21.511719 C 8.4348343 21.473923 8.4101562 21.43107 8.4101562 21.414062 C 8.4101562 21.355858 8.4614479 21.38756 8.5683594 21.505859 C 8.6752709 21.627938 8.7224855 21.650255 8.765625 21.599609 C 8.7843715 21.576932 8.7744929 21.5507 8.7050781 21.455078 C 8.6581893 21.389314 8.5760325 21.288232 8.5253906 21.228516 C 8.4653717 21.157083 8.425161 21.087628 8.4101562 21.033203 C 8.3988933 20.986337 8.372176 20.914307 8.3515625 20.875 C 8.312176 20.796386 8.1028789 20.539865 7.8984375 20.320312 C 7.8290416 20.2451 7.7489949 20.13841 7.7246094 20.083984 C 7.6589628 19.949055 7.5877965 19.864638 7.3964844 19.707031 C 7.306456 19.632197 7.205559 19.537354 7.1699219 19.498047 C 7.1342809 19.45685 7.0375294 19.343669 6.953125 19.248047 C 6.793697 19.064362 6.6895454 18.889788 6.6445312 18.728516 C 6.6295265 18.672201 6.6191406 18.54767 6.6191406 18.419922 C 6.6191406 18.20978 6.6212951 18.197097 6.7207031 17.904297 C 6.7750943 17.739132 6.8470969 17.519159 6.8808594 17.416016 C 6.9146106 17.312835 6.9618679 17.177219 6.984375 17.115234 C 7.0762818 16.862006 7.0859375 16.810434 7.0859375 16.478516 C 7.0859375 16.182201 7.0820466 16.148638 7.0351562 16.007812 C 6.9713843 15.816568 6.7721652 15.487764 6.5996094 15.287109 C 6.528335 15.202826 6.439934 15.100169 6.4042969 15.058594 C 6.3330225 14.97809 6.2238812 14.91399 6.0644531 14.865234 C 5.94629 14.831219 5.4993484 14.811749 5.3417969 14.835938 L 5.3417969 14.830078 z M 12.109375 22.451172 C 12.120638 22.454951 12.149368 22.528747 12.171875 22.617188 C 12.196253 22.703361 12.214922 22.788058 12.216797 22.804688 C 12.216797 22.823585 12.172466 22.844764 12.044922 22.875 C 11.949266 22.897677 11.862893 22.916016 11.853516 22.916016 C 11.83099 22.916016 11.857096 22.77153 11.896484 22.679688 C 11.935871 22.591625 12.077487 22.441723 12.109375 22.451172 z "
       style="fill:#ffffff;stroke:none;stroke-width:0.00187561"
       id="path1445" />
  </g>
</svg>
