<?xml version="1.0" encoding="UTF-8" standalone="no"?>
<svg
   xmlns:dc="http://purl.org/dc/elements/1.1/"
   xmlns:cc="http://creativecommons.org/ns#"
   xmlns:rdf="http://www.w3.org/1999/02/22-rdf-syntax-ns#"
   xmlns:svg="http://www.w3.org/2000/svg"
   xmlns="http://www.w3.org/2000/svg"
   xmlns:sodipodi="http://sodipodi.sourceforge.net/DTD/sodipodi-0.dtd"
   xmlns:inkscape="http://www.inkscape.org/namespaces/inkscape"
   sodipodi:docname="fuego_estatico_externo.svg"
   inkscape:version="1.1-dev (2c50571925, 2020-02-08)"
   id="svg24"
   version="1.1"
   viewBox="0 0 42.333332 63.764584"
   height="63.764584mm"
   width="42.333332mm">
  <style
     id="style44"></style>
  <defs
     id="defs18" />
  <sodipodi:namedview
     inkscape:window-maximized="1"
     inkscape:window-y="32"
     inkscape:window-x="0"
     inkscape:window-height="712"
     inkscape:window-width="1366"
     showgrid="false"
     inkscape:current-layer="layer1"
     inkscape:document-units="mm"
     inkscape:cy="175.96521"
     inkscape:cx="106.28853"
     inkscape:zoom="1.4"
     inkscape:pageshadow="2"
     inkscape:pageopacity="0.0"
     borderopacity="1.0"
     bordercolor="#666666"
     pagecolor="#ffffff"
     id="base" />
  <metadata
     id="metadata21">
    <rdf:RDF>
      <cc:Work
         rdf:about="">
        <dc:format>image/svg+xml</dc:format>
        <dc:type
           rdf:resource="http://purl.org/dc/dcmitype/StillImage" />
        <dc:title></dc:title>
      </cc:Work>
    </rdf:RDF>
  </metadata>
  <g
     transform="translate(96.435997,-188.0136)"
     id="layer1"
     inkscape:groupmode="layer"
     inkscape:label="Capa 1">
    <path
       style="fill:#ffffff;fill-opacity:1;stroke:none;stroke-width:0.196403px;stroke-linecap:butt;stroke-linejoin:miter;stroke-opacity:1"
       d="m -82.377125,239.00328 c 0.15344,0.1918 -0.0391,2.16698 -0.6145,2.74237 -0.5754,0.5754 -0.63023,1.45322 -0.5727,2.2396 0.0575,0.78638 -1.1125,1.05488 -1.4961,0.11507 -0.38359,-0.93982 -0.0978,-3.58185 -0.0978,-3.58185 -0.95901,0.51786 -1.0165,2.87704 -1.0165,3.56752 0,0.69048 -1.20837,0.7097 -1.11246,-0.0958 0.0959,-0.80556 -1.18316,-2.14138 -1.18316,-2.14138 0,0 0.28164,1.71942 0.0515,2.44826 -0.23016,0.72884 -0.5178,0.21092 -0.5178,0.21092 0.24934,-1.64948 -1.44557,-3.35778 -1.44557,-3.35778 0.40278,0.32604 0.14135,2.39875 -0.0121,3.3961 -0.15343,0.99738 -1.01658,0.72887 -1.24674,0.38363 -0.23016,-0.34525 0.10175,-1.2017 0.19765,-2.87033 0.0959,-1.66865 -1.32922,-2.53837 -1.32922,-2.53837 0,0 -0.80558,2.09061 0.23014,3.97025 1.03572,1.87965 -1.97549,2.83862 -1.07404,0.72883 0.90147,-2.10979 -0.30688,-3.16467 -0.30688,-3.16467 0,0 0.76713,0.84387 -0.70972,2.5317 -1.47686,1.68785 -1.80287,4.2196 -1.80287,4.2196 v 3.97123 h 42.33333 v -3.97123 c 0,-2.07143 -0.88545,-4.27714 -0.88545,-4.27714 0.26852,0.7672 -1.30428,2.18649 -1.36181,0.28767 -0.0576,-1.89881 -1.1891,-3.10714 -1.1891,-3.10714 0.70965,1.61112 -0.92069,4.69909 -1.24675,3.35649 -0.32606,-1.34259 -1.55351,-1.6878 -1.55351,-1.6878 0,0 0.69904,1.19772 -0.0873,1.94574 -0.78638,0.74802 -1.07403,-0.13417 -1.07403,-0.13417 -0.24934,-2.26324 -2.00342,-3.57611 -2.00342,-3.57611 1.09326,0.6713 0.45727,3.18856 0.45727,3.57216 0,0.3836 -0.61377,0.49862 -0.86311,-0.096 -0.24934,-0.59458 -0.62985,-1.27052 -1.16689,-1.71166 -0.53704,-0.44114 -0.23013,-1.45766 -0.23013,-1.45766 -0.46034,0.5754 -0.15345,1.47684 0.0575,2.49337 0.21098,1.01655 -0.89807,1.50229 -0.80516,0.96883 0.286,-2.64966 -1.15397,-2.72747 -1.1512,-5.15011 -0.92064,1.47686 0.0222,4.62212 0.0414,5.44685 0.0192,0.82474 -1.35475,0.83039 -1.16294,0.13992 0.1918,-0.69049 0.13561,-3.13444 -0.59713,-3.79085 -0.44309,2.43037 -1.58982,4.22681 -1.93505,3.15273 -0.34524,-1.07405 -1.7569,-2.12956 -1.7569,-2.12956 0.17262,0.4795 0.70131,3.31601 -0.57216,3.15054 -0.5167,-0.0671 -0.38496,-2.05691 -0.38496,-2.05691 0.15345,-1.99472 -1.11246,-2.97286 -1.11246,-2.97286 1.24317,3.67041 -2.29528,6.03917 -2.42464,4.7204 0.0434,-2.29026 -1.10445,-3.16677 -1.10445,-3.16677 0,0 0.58033,1.36927 0.4077,1.92549 -0.17261,0.55622 -0.69785,1.00529 -1.46505,0.75596 -0.7672,-0.24934 -0.77298,-2.91043 -0.77298,-2.91043 -1.16212,1.31165 -0.20144,2.93493 -0.35488,3.68295 -0.15344,0.74802 -2.3169,-0.63179 -1.49217,-2.81831 0.82474,-2.18651 -0.48469,-3.35928 -0.48469,-3.35928 z"
       id="path9213"
       inkscape:connector-curvature="0"
       sodipodi:nodetypes="cccccsccccccccccccccccsccccccccsccccccccccccccccccccsc" />
    <path
       sodipodi:nodetypes="cccccsccccccccccccccccsccccccccsccccccccccccccccccccsc"
       inkscape:connector-curvature="0"
       id="path9323"
       d="m 345.01855,173.52922 c -0.15344,0.1918 0.19175,1.34265 0.76716,1.91804 0.5754,0.5754 0.47757,2.27756 0.42004,3.06394 -0.0575,0.78638 1.1125,1.05488 1.4961,0.11506 0.38359,-0.93982 0.0978,-3.58184 0.0978,-3.58184 0.95901,0.51786 1.0165,2.87703 1.0165,3.56752 0,0.69048 1.20837,0.7097 1.11246,-0.0958 -0.0959,-0.80557 1.15078,-1.51531 1.15078,-1.51531 0,0 -0.24926,1.09335 -0.0191,1.82218 0.23016,0.72884 0.5178,0.21093 0.5178,0.21093 -0.24934,-1.64948 1.72623,-3.08793 1.72623,-3.08793 -0.40278,0.32604 -0.42201,2.12889 -0.26856,3.12625 0.15343,0.99737 1.01658,0.72887 1.24674,0.38363 0.23016,-0.34526 -0.49865,-0.65215 -0.59455,-2.32078 -0.0959,-1.66866 1.72612,-3.08793 1.72612,-3.08793 0,0 0.80558,2.09061 -0.23014,3.97025 -1.03572,1.87965 1.97549,2.83863 1.07404,0.72884 -0.90147,-2.1098 0.30688,-3.16468 0.30688,-3.16468 0,0 -0.76713,0.84387 0.70972,2.5317 1.47687,1.68785 1.80287,4.2196 1.80287,4.2196 v 3.97123 h -42.33333 v -3.97123 c 0,-2.07143 0.88546,-4.27714 0.88546,-4.27714 -0.26852,0.7672 1.30428,2.1865 1.36181,0.28768 0.0575,-1.89882 1.1891,-3.10715 1.1891,-3.10715 -0.70966,1.61112 0.92068,4.6991 1.24674,3.35649 0.32606,-1.34259 1.55352,-1.6878 1.55352,-1.6878 0,0 -0.69905,1.19772 0.0873,1.94574 0.78638,0.74802 1.07403,-0.13417 1.07403,-0.13417 0.24934,-2.26324 2.00342,-3.57611 2.00342,-3.57611 -1.09326,0.6713 -0.59466,2.60848 -0.59466,2.99207 0,0.38361 0.61378,0.49862 0.86312,-0.096 0.24934,-0.59457 0.76723,-0.69042 1.30427,-1.13157 0.53704,-0.44113 0.23014,-1.45766 0.23014,-1.45766 0.46033,0.5754 0.15345,1.47684 -0.0575,2.49338 -0.21097,1.01654 0.89807,1.50228 0.80516,0.96882 -0.286,-2.64965 1.15398,-2.72747 1.1512,-5.15011 0.92065,1.47686 -0.0527,3.62987 -0.0719,4.4546 -0.0192,0.82474 1.18683,1.15097 0.99502,0.46049 -0.19179,-0.69049 0.0934,-2.99704 0.0934,-2.99704 0.0767,2.10979 2.29203,4.10468 2.63727,3.03061 0.34524,-1.07406 1.39052,-1.45788 1.39052,-1.45788 -0.17261,0.47949 -0.396,2.15583 0.87747,1.99036 0.51671,-0.0672 0.44602,-1.56841 0.44602,-1.56841 -0.15345,-1.99472 1.11246,-2.97286 1.11246,-2.97286 -0.55622,2.80027 1.89839,5.55067 2.02774,4.2319 -0.0434,-2.29027 1.50135,-2.67828 1.50135,-2.67828 0,0 -0.58032,1.36928 -0.4077,1.92549 0.17262,0.55622 0.69785,1.00529 1.46505,0.75596 0.7672,-0.24934 1.62785,-2.68145 1.62785,-2.68145 0.38359,0.51786 -0.54656,2.38538 -0.39313,3.1334 0.15345,0.74802 1.9658,-0.52493 1.14107,-2.71145 -0.82474,-2.18652 0.72893,-3.14557 0.72893,-3.14557 z"
       style="fill:#ffffff;fill-opacity:0.5;stroke:none;stroke-width:0.196403px;stroke-linecap:butt;stroke-linejoin:miter;stroke-opacity:1" />
  </g>
</svg>
