<?xml version="1.0" encoding="UTF-8" standalone="no"?>
<svg
   xmlns:dc="http://purl.org/dc/elements/1.1/"
   xmlns:cc="http://creativecommons.org/ns#"
   xmlns:rdf="http://www.w3.org/1999/02/22-rdf-syntax-ns#"
   xmlns:svg="http://www.w3.org/2000/svg"
   xmlns="http://www.w3.org/2000/svg"
   xmlns:sodipodi="http://sodipodi.sourceforge.net/DTD/sodipodi-0.dtd"
   xmlns:inkscape="http://www.inkscape.org/namespaces/inkscape"
   sodipodi:docname="fuego_estatico_interno.svg"
   inkscape:version="1.1-dev (2c50571925, 2020-02-08)"
   id="svg9341"
   version="1.1"
   viewBox="0 0 42.333332 63.764583"
   height="63.764584mm"
   width="42.333332mm">
  <defs
     id="defs9335" />
  <sodipodi:namedview
     inkscape:window-maximized="1"
     inkscape:window-y="32"
     inkscape:window-x="0"
     inkscape:window-height="712"
     inkscape:window-width="1366"
     showgrid="false"
     inkscape:current-layer="layer1"
     inkscape:document-units="mm"
     inkscape:cy="257.74608"
     inkscape:cx="292.3719"
     inkscape:zoom="0.7"
     inkscape:pageshadow="2"
     inkscape:pageopacity="0.0"
     borderopacity="1.0"
     bordercolor="#666666"
     pagecolor="#ffffff"
     id="base" />
  <metadata
     id="metadata9338">
    <rdf:RDF>
      <cc:Work
         rdf:about="">
        <dc:format>image/svg+xml</dc:format>
        <dc:type
           rdf:resource="http://purl.org/dc/dcmitype/StillImage" />
        <dc:title></dc:title>
      </cc:Work>
    </rdf:RDF>
  </metadata>
  <g
     transform="translate(108.29864,-165.44185)"
     id="layer1"
     inkscape:groupmode="layer"
     inkscape:label="Capa 1">
    <path
       style="fill:#ffffff;fill-opacity:0.5;stroke:none;stroke-width:0.196403px;stroke-linecap:butt;stroke-linejoin:miter;stroke-opacity:1"
       d="m -80.024134,216.43153 c -0.153443,0.1918 0.19175,1.34265 0.767151,1.91804 0.575401,0.5754 0.477577,2.27756 0.420048,3.06394 -0.05754,0.78638 1.112497,1.05488 1.496093,0.11506 0.383596,-0.93982 0.09775,-3.58184 0.09775,-3.58184 0.959014,0.51786 1.0165,2.87703 1.0165,3.56752 0,0.69048 1.208369,0.7097 1.112463,-0.0958 -0.0959,-0.80557 1.150781,-1.51531 1.150781,-1.51531 0,0 -0.249264,1.09335 -0.01911,1.82218 0.23016,0.72884 0.517801,0.21093 0.517801,0.21093 -0.249343,-1.64948 1.72623,-3.08793 1.72623,-3.08793 -0.402778,0.32604 -0.422008,2.12889 -0.268565,3.12625 0.153437,0.99737 1.016584,0.72887 1.246743,0.38363 0.230162,-0.34526 -0.498651,-0.65215 -0.594551,-2.32078 -0.0959,-1.66866 1.726119,-3.08793 1.726119,-3.08793 0,0 0.805581,2.09061 -0.230133,3.97025 -1.035723,1.87965 1.975485,2.83863 1.074031,0.72884 -0.901462,-2.1098 0.306884,-3.16468 0.306884,-3.16468 0,0 -0.76713,0.84387 0.709725,2.5317 1.476861,1.68785 1.802866,4.2196 1.802866,4.2196 v 3.97123 h -42.333332 v -3.97123 c 0,-2.07143 0.88546,-4.27714 0.88546,-4.27714 -0.26852,0.7672 1.30428,2.1865 1.36181,0.28768 0.0575,-1.89882 1.1891,-3.10715 1.1891,-3.10715 -0.70966,1.61112 0.92068,4.6991 1.24674,3.35649 0.32606,-1.34259 1.55352,-1.6878 1.55352,-1.6878 0,0 -0.69905,1.19772 0.0873,1.94574 0.78638,0.74802 1.07403,-0.13417 1.07403,-0.13417 0.24934,-2.26324 2.003418,-3.57611 2.003418,-3.57611 -1.09326,0.6713 -0.59466,2.60848 -0.59466,2.99207 0,0.38361 0.61378,0.49862 0.86312,-0.096 0.24934,-0.59457 0.76723,-0.69042 1.30427,-1.13157 0.53704,-0.44113 0.23014,-1.45766 0.23014,-1.45766 0.46033,0.5754 0.15345,1.47684 -0.0575,2.49338 -0.21097,1.01654 0.89807,1.50228 0.80516,0.96882 -0.286,-2.64965 1.15398,-2.72747 1.1512,-5.15011 0.92065,1.47686 -0.0527,3.62987 -0.0719,4.4546 -0.0192,0.82474 1.18683,1.15097 0.99502,0.46049 -0.19179,-0.69049 0.0934,-2.99704 0.0934,-2.99704 0.0767,2.10979 2.292037,4.10468 2.637272,3.03061 0.345238,-1.07406 1.390523,-1.45788 1.390523,-1.45788 -0.172616,0.47949 -0.396,2.15583 0.87747,1.99036 0.516705,-0.0672 0.446021,-1.56841 0.446021,-1.56841 -0.153453,-1.99472 1.112461,-2.97286 1.112461,-2.97286 -0.556221,2.80027 1.898382,5.55067 2.027739,4.2319 -0.04336,-2.29027 1.501352,-2.67828 1.501352,-2.67828 0,0 -0.580326,1.36928 -0.407702,1.92549 0.172617,0.55622 0.69785,1.00529 1.465051,0.75596 0.767199,-0.24934 1.627844,-2.68145 1.627844,-2.68145 0.383588,0.51786 -0.546561,2.38538 -0.393124,3.1334 0.153443,0.74802 1.965797,-0.52493 1.141062,-2.71145 -0.824736,-2.18652 0.728939,-3.14557 0.728939,-3.14557 z"
       id="path9323"
       inkscape:connector-curvature="0"
       sodipodi:nodetypes="cccccsccccccccccccccccsccccccccsccccccccccccccccccccsc" />
  </g>
</svg>
