<?xml version="1.0" encoding="UTF-8" standalone="no"?>
<svg
   xmlns:dc="http://purl.org/dc/elements/1.1/"
   xmlns:cc="http://creativecommons.org/ns#"
   xmlns:rdf="http://www.w3.org/1999/02/22-rdf-syntax-ns#"
   xmlns:svg="http://www.w3.org/2000/svg"
   xmlns="http://www.w3.org/2000/svg"
   xmlns:xlink="http://www.w3.org/1999/xlink"
   xmlns:sodipodi="http://sodipodi.sourceforge.net/DTD/sodipodi-0.dtd"
   xmlns:inkscape="http://www.inkscape.org/namespaces/inkscape"
   sodipodi:docname="hombre.svg"
   inkscape:version="1.1-dev (2c50571925, 2020-02-08)"
   id="svg394"
   version="1.1"
   viewBox="0 0 8.4666653 8.4666405"
   height="8.4666405mm"
   width="8.4666653mm">
  <defs
     id="defs388">
    <radialGradient
       inkscape:collect="always"
       xlink:href="#linearGradient999"
       id="radialGradient1327"
       gradientUnits="userSpaceOnUse"
       gradientTransform="matrix(0.10583334,0,0,0.10583334,47.253564,91.372112)"
       cx="-470.15863"
       cy="120.1164"
       fx="-470.15863"
       fy="120.1164"
       r="40" />
    <linearGradient
       inkscape:collect="always"
       id="linearGradient999">
      <stop
         style="stop-color:#aa0000;stop-opacity:1"
         offset="0"
         id="stop995" />
      <stop
         style="stop-color:#d40000;stop-opacity:1"
         offset="1"
         id="stop997" />
    </linearGradient>
  </defs>
  <sodipodi:namedview
     inkscape:window-maximized="1"
     inkscape:window-y="32"
     inkscape:window-x="0"
     inkscape:window-height="712"
     inkscape:window-width="1366"
     showgrid="false"
     inkscape:current-layer="layer1"
     inkscape:document-units="px"
     inkscape:cy="15.915638"
     inkscape:cx="23.385867"
     inkscape:zoom="7.9195959"
     inkscape:pageshadow="2"
     inkscape:pageopacity="0.0"
     borderopacity="1.0"
     bordercolor="#666666"
     pagecolor="#ffffff"
     id="base" />
  <metadata
     id="metadata391">
    <rdf:RDF>
      <cc:Work
         rdf:about="">
        <dc:format>image/svg+xml</dc:format>
        <dc:type
           rdf:resource="http://purl.org/dc/dcmitype/StillImage" />
        <dc:title></dc:title>
      </cc:Work>
    </rdf:RDF>
  </metadata>
  <g
     transform="translate(6.7382172,-99.85119)"
     id="layer1"
     inkscape:groupmode="layer"
     inkscape:label="Capa 1">
    <path
       inkscape:connector-curvature="0"
       id="rect1315"
       style="opacity:1;fill:url(#radialGradient1327);fill-opacity:1;stroke:none;stroke-width:0.0179379;stroke-linecap:round;stroke-linejoin:miter;stroke-miterlimit:4;stroke-dasharray:none;stroke-dashoffset:0;stroke-opacity:1"
       d="m -6.1479495,99.851098 h 7.286102 c 0.327017,0 0.590283,0.263272 0.590283,0.590282 v 7.2861 c 0,0.32702 -0.263266,0.59029 -0.590283,0.59029 h -7.286102 c -0.327016,0 -0.590282,-0.26327 -0.590282,-0.59029 v -7.2861 c 0,-0.32701 0.263266,-0.590282 0.590282,-0.590282 z" />
    <path
       transform="matrix(0.26458334,0,0,0.26458334,-6.7382172,99.85119)"
       d="M 29.769531 -0.00390625 L 27.916016 0 C 27.893716 0.22495748 27.828277 0.62198379 27.634766 1.1308594 C 27.535175 1.3939145 27.365772 1.6999945 27.082031 1.9375 C 26.773508 2.1892165 26.415436 2.3430851 26.013672 2.4921875 C 25.45499 2.7030851 24.911143 2.8716983 24.279297 3.0703125 C 24.293281 3.066533 24.087654 3.1311106 24.101562 3.1269531 C 22.619115 3.5958791 21.640325 4.2037837 20.939453 4.8886719 C 20.461298 5.5364451 20.148701 5.9211769 20.109375 5.8945312 C 20.07003 5.8680746 20.311263 5.4345325 20.746094 4.734375 C 20.781999 4.6935561 20.8194 4.652147 20.857422 4.6113281 L 20.751953 4.6132812 C 20.658032 4.7138167 20.063927 4.8577984 19.585938 5.3164062 C 19.462309 5.4350834 19.362661 5.559752 19.28125 5.6875 C 19.184003 5.8367913 19.111015 5.9817648 19.052734 6.1054688 C 19.182561 6.0979097 19.303624 6.0976562 19.408203 6.0976562 C 20.028246 6.139987 20.388622 6.1829712 20.390625 6.2226562 C 20.390625 6.2226562 20.390625 6.2246094 20.390625 6.2246094 C 20.383444 6.2639165 20.018244 6.2924051 19.410156 6.3105469 C 19.272166 6.325665 19.106627 6.3446371 18.927734 6.3710938 C 18.920553 6.3862119 18.912675 6.4019047 18.90625 6.4121094 C 18.893778 6.4347865 18.882054 6.451552 18.871094 6.4628906 C 18.865424 6.4666702 18.858807 6.4746094 18.853516 6.4746094 C 18.847846 6.4777842 18.843182 6.4767515 18.837891 6.4765625 C 18.832221 6.4757688 18.827557 6.4750496 18.822266 6.4707031 C 18.817352 6.4669236 18.812751 6.4587309 18.808594 6.4511719 C 18.800279 6.4360538 18.792401 6.4167037 18.787109 6.390625 C 18.426127 6.4552549 18.022691 6.5631668 17.664062 6.7578125 C 17.36873 6.9127731 17.124433 7.1668802 16.867188 7.4746094 C 16.618154 7.7769716 16.392541 8.1141325 16.183594 8.484375 C 16.157893 8.5297293 16.132027 8.5757394 16.107422 8.6210938 C 15.880197 9.0415662 15.699281 9.4524722 15.570312 9.8652344 C 15.458741 10.234116 15.381156 10.557859 15.417969 10.869141 C 15.479575 11.479119 15.793021 12.058332 15.994141 12.408203 C 16.310638 12.874824 16.481537 13.158699 16.451172 13.181641 C 16.422447 13.204318 16.21314 12.981894 15.880859 12.589844 C 15.824015 12.857812 15.669736 13.372269 15.439453 14.058594 C 15.329696 14.419539 15.192647 14.87254 15.089844 15.322266 C 15.051557 15.490077 15.014437 15.66412 14.994141 15.835938 C 14.982424 15.95726 14.970203 16.068124 14.990234 16.154297 C 15.054033 16.487651 15.096785 16.829802 15.152344 17.169922 L 15.152344 17.173828 C 15.243884 17.732707 15.342034 18.242885 15.460938 18.734375 C 15.620849 19.393487 15.789034 19.918285 15.992188 20.392578 C 16.380005 21.289762 16.832401 21.724266 16.791016 21.773438 C 16.767583 21.799894 16.602234 21.715621 16.380859 21.494141 C 16.367631 21.552723 16.35045 21.62237 16.330078 21.707031 C 16.275388 21.936071 16.203746 22.250818 16.158203 22.644531 C 16.095009 23.193356 16.095182 23.866692 16.269531 24.580078 C 16.347314 24.898314 16.743263 26.463874 16.869141 26.734375 C 17.4531 27.99137 18.515457 31.925044 18.445312 31.958984 C 18.44371 31.959778 18.440524 31.956312 18.4375 31.951172 C 18.443169 31.97007 18.448526 31.988976 18.451172 31.998047 L 22.359375 31.998047 C 22.29346 31.561663 22.649823 26.496631 22.511719 24.40625 C 22.461451 23.645469 22.344387 22.988384 22.181641 22.398438 C 22.018214 21.803993 21.840354 21.4028 21.673828 21.082031 C 21.592304 20.924803 21.546361 20.846946 21.496094 20.755859 C 21.475684 20.718064 21.459903 20.689512 21.451172 20.667969 C 21.446636 20.65663 21.444493 20.648184 21.443359 20.640625 C 21.442161 20.633066 21.442217 20.62878 21.445312 20.625 C 21.448514 20.621372 21.453378 20.62248 21.460938 20.623047 C 21.468119 20.624256 21.477321 20.62708 21.488281 20.630859 C 21.510203 20.642198 21.539749 20.660729 21.574219 20.689453 C 21.644896 20.748036 21.734785 20.840436 21.837891 20.974609 C 21.928335 21.092531 22.022371 21.23399 22.115234 21.398438 C 22.163083 21.230249 22.23531 20.987531 22.314453 20.685547 C 22.477464 20.063663 22.637365 19.280652 22.695312 18.314453 C 22.722903 17.856563 22.722149 17.423916 22.707031 17.023438 C 22.593305 16.201126 22.520284 15.541893 22.501953 15.183594 C 22.364378 14.875184 22.2334 14.592532 22.117188 14.347656 C 22.066088 14.239562 22.022435 14.131091 21.984375 14.021484 C 21.866643 14.064949 21.678989 14.120801 21.478516 14.240234 C 21.420689 14.27425 21.362893 14.310112 21.310547 14.34375 C 21.080298 14.539907 20.881189 14.65706 20.837891 14.611328 C 20.794539 14.565596 20.922256 14.37158 21.138672 14.142578 C 21.192757 14.095334 21.254789 14.047812 21.324219 14.005859 C 21.562669 13.862615 21.783609 13.834933 21.929688 13.851562 C 21.917971 13.8115 21.906689 13.771729 21.896484 13.732422 C 21.783817 13.59976 21.633213 13.410863 21.441406 13.21875 C 21.362603 13.139758 21.283807 13.065259 21.210938 12.996094 C 20.914925 12.761763 20.72367 12.559869 20.761719 12.505859 C 20.799816 12.451812 21.058025 12.563925 21.386719 12.769531 C 21.473534 12.834161 21.563159 12.91074 21.650391 12.998047 C 21.698126 13.045669 21.741111 13.092625 21.78125 13.140625 C 21.763108 13.007964 21.751069 12.886889 21.742188 12.787109 C 21.719132 12.530857 21.713395 12.321722 21.716797 12.179688 C 21.718399 12.101073 21.722846 12.041575 21.728516 12 C 21.731312 11.977323 21.734502 11.96251 21.738281 11.951172 C 21.740281 11.943613 21.742069 11.939326 21.744141 11.935547 C 21.74614 11.931956 21.74811 11.931641 21.75 11.931641 C 21.751999 11.931641 21.75397 11.933355 21.755859 11.935547 C 21.757863 11.938344 21.759829 11.943486 21.761719 11.947266 C 21.765876 11.958604 21.770855 11.972597 21.775391 11.994141 C 21.784461 12.034582 21.794546 12.095529 21.806641 12.171875 C 21.827806 12.303781 21.859661 12.520169 21.904297 12.761719 C 21.969154 13.109813 22.084242 13.723822 22.355469 14.224609 C 22.957657 15.346449 23.885249 17.218635 24.158203 19.277344 C 24.248496 19.964008 24.352213 20.722358 24.392578 21.476562 C 24.401271 21.645885 24.404611 21.817371 24.402344 21.988281 C 24.399142 22.253604 24.384887 22.515296 24.359375 22.773438 C 24.328005 23.090162 24.332409 23.422365 24.332031 23.748047 C 24.33182 24.2189 24.339341 24.69226 24.347656 25.140625 C 24.352948 25.430137 24.369709 26.189155 24.375 26.478516 C 24.381047 26.765382 24.389742 27.029476 24.386719 27.308594 C 24.380672 27.723132 24.28968 28.132033 24.220703 28.474609 C 24.125837 28.952644 24.028238 29.390058 23.957031 29.789062 C 23.858915 30.335922 23.812015 31.033306 23.78125 31.378906 C 23.757817 31.641583 23.74008 31.828156 23.722656 31.992188 L 29.769531 31.992188 C 31.005505 31.992188 32 30.9977 32 29.761719 L 32 28.308594 C 31.975433 28.386074 31.949969 28.463599 31.919922 28.542969 C 31.890064 28.669583 31.81896 28.879898 31.595703 29.058594 C 31.407596 29.170468 31.225722 29.199158 31.087891 29.208984 C 30.991475 29.224102 30.8945 29.232675 30.796875 29.240234 C 30.676951 29.247793 30.560878 29.250127 30.447266 29.253906 C 30.228658 29.257119 30.016767 29.252971 29.816406 29.240234 C 29.674598 29.232675 29.537576 29.221455 29.392578 29.197266 C 29.246688 29.170809 29.118277 29.126127 29.015625 29.089844 C 28.838138 29.028615 28.675298 28.964077 28.541016 28.90625 C 28.36882 28.832171 28.230682 28.763724 28.134766 28.707031 C 28.081059 28.676795 28.038478 28.647614 28.011719 28.623047 C 27.997734 28.611708 27.988469 28.59545 27.982422 28.587891 C 27.981904 28.572773 27.979555 28.570059 27.978516 28.5625 C 27.977476 28.55872 27.976801 28.558594 27.976562 28.558594 C 27.97708 28.558594 27.979209 28.557182 27.982422 28.554688 C 27.985823 28.552269 27.992063 28.548448 28 28.537109 C 28.011339 28.53333 28.026138 28.52917 28.044922 28.525391 C 28.080827 28.521611 28.12946 28.522128 28.191406 28.527344 C 28.303053 28.534903 28.451682 28.560868 28.634766 28.59375 C 28.793657 28.623986 28.92949 28.652855 29.123047 28.691406 C 29.233863 28.714083 29.351178 28.738471 29.449219 28.744141 C 29.567329 28.7517 29.686735 28.751953 29.832031 28.751953 C 30.024485 28.751651 30.22538 28.747982 30.433594 28.740234 C 30.542444 28.736455 30.652566 28.734122 30.761719 28.726562 C 30.850802 28.719003 30.938814 28.710684 31.023438 28.703125 C 31.174278 28.676668 31.279734 28.680688 31.324219 28.640625 C 31.371841 28.644405 31.400004 28.509549 31.486328 28.363281 C 31.589396 28.147092 31.684629 27.902611 31.759766 27.714844 C 31.855312 27.4756 31.930872 27.287975 32 27.136719 L 32 24.896484 C 31.988283 24.926721 31.977253 24.957667 31.962891 24.988281 C 31.942859 25.04951 31.889458 25.134467 31.78125 25.21875 C 31.583959 25.334026 31.39309 25.351626 31.248047 25.353516 C 31.129823 25.364854 31.010776 25.367314 30.890625 25.371094 C 30.771003 25.373097 30.65294 25.37224 30.539062 25.369141 C 30.120707 25.357802 29.752996 25.330445 29.396484 25.271484 C 29.29285 25.252587 29.168893 25.24584 29.056641 25.238281 C 28.872389 25.226943 28.70394 25.214464 28.556641 25.203125 C 28.156113 25.176668 27.914035 25.133433 27.908203 25.082031 C 27.908203 25.082031 27.908203 25.080078 27.908203 25.080078 C 27.911204 25.028677 28.149966 24.974223 28.550781 24.927734 C 28.696671 24.912616 28.872481 24.897365 29.060547 24.888672 C 29.170229 24.884892 29.303943 24.877333 29.445312 24.888672 C 29.793369 24.918908 30.124784 24.924018 30.548828 24.929688 C 30.659644 24.931275 30.77274 24.931502 30.884766 24.929688 C 30.997547 24.9281 31.105779 24.925401 31.212891 24.914062 C 31.37953 24.891385 31.499228 24.905863 31.550781 24.859375 C 31.5471 24.874493 31.555563 24.845758 31.589844 24.800781 C 31.627261 24.733128 31.656067 24.65195 31.685547 24.570312 C 31.76726 24.340517 31.834146 24.087362 31.886719 23.888672 C 31.93075 23.721617 31.966249 23.585133 32 23.460938 L 32 21.748047 C 31.940813 21.774504 31.885904 21.787741 31.841797 21.794922 C 31.733438 21.817599 31.627802 21.832789 31.521484 21.84375 C 31.350121 21.862648 31.175753 21.875127 30.998047 21.878906 C 30.899628 21.882119 30.802313 21.880859 30.707031 21.880859 C 30.425419 21.882863 30.156842 21.878399 29.902344 21.863281 C 29.730073 21.855722 29.568724 21.848659 29.398438 21.820312 C 29.292649 21.801415 29.16859 21.796622 29.056641 21.789062 C 28.871897 21.777724 28.703887 21.767325 28.556641 21.759766 C 28.155565 21.737088 27.913835 21.699273 27.908203 21.654297 C 27.908203 21.654297 27.908203 21.652344 27.908203 21.652344 L 27.908203 21.650391 C 27.911367 21.605414 28.14946 21.557956 28.550781 21.515625 C 28.696369 21.500507 28.872905 21.489981 29.060547 21.482422 C 29.170267 21.478642 29.304178 21.471411 29.443359 21.484375 C 29.591252 21.499493 29.732166 21.492314 29.912109 21.496094 C 30.162541 21.497681 30.427057 21.496156 30.703125 21.492188 C 30.796706 21.490562 30.891386 21.488306 30.986328 21.484375 C 31.158334 21.480595 31.323159 21.46837 31.484375 21.457031 C 31.585062 21.449472 31.677713 21.438946 31.765625 21.423828 C 31.830444 21.40871 31.872583 21.405743 31.886719 21.390625 C 31.882183 21.409523 31.886328 21.382111 31.914062 21.337891 C 31.942031 21.274017 31.961281 21.198133 31.978516 21.119141 C 31.986831 21.079456 31.992819 21.038488 32 20.998047 L 32 2.2285156 C 32 0.99253454 31.005505 -0.00390625 29.769531 -0.00390625 z M 31.570312 4.0371094 C 31.573072 4.0371094 31.57466 4.0379286 31.576172 4.0390625 C 31.583353 4.042842 31.580327 4.0607414 31.564453 4.0898438 C 31.548957 4.12008 31.523215 4.1565101 31.480469 4.1992188 C 31.3853 4.2944628 31.236791 4.3988965 31.009766 4.4941406 C 30.347056 4.7738257 29.547927 4.8485801 28.375 4.7363281 C 28.324241 4.7325486 28.271954 4.7244827 28.220703 4.7207031 C 27.053615 4.6107189 26.475239 4.5499053 25.691406 4.5820312 C 25.433869 4.5933698 25.283685 4.6087547 25.128906 4.6601562 C 24.946884 4.7225185 24.883955 4.8219488 24.863281 4.8125 C 24.855722 4.8089094 24.850786 4.6616459 25.078125 4.5429688 C 25.233388 4.4590632 25.415381 4.4114102 25.671875 4.3789062 C 26.405723 4.2810165 27.14888 4.3164262 28.25 4.421875 C 28.26474 4.4235002 28.387452 4.4375 28.402344 4.4375 C 29.588239 4.5459724 30.268688 4.5259822 30.949219 4.3222656 C 31.176331 4.2538562 31.30889 4.1911417 31.421875 4.125 C 31.4763 4.0947638 31.497435 4.0770501 31.529297 4.0566406 C 31.547439 4.045302 31.561922 4.0390625 31.570312 4.0390625 L 31.570312 4.0371094 z M 24.287109 5.6347656 C 24.295046 5.6351436 24.303744 5.6355093 24.310547 5.6367188 C 24.323775 5.6391376 24.33386 5.644658 24.341797 5.6484375 C 24.35049 5.652217 24.357107 5.6604097 24.359375 5.6679688 C 24.361374 5.6755278 24.360619 5.6820208 24.357422 5.6933594 C 24.354621 5.7009184 24.3486 5.7132708 24.341797 5.7246094 C 24.328569 5.743507 24.307291 5.7689065 24.28125 5.796875 C 24.20702 5.8762451 24.162278 5.9206388 24.056641 6.046875 C 23.961623 6.1598829 23.871113 6.2814555 23.771484 6.4355469 C 23.487528 6.8752193 23.307947 7.2968306 23.201172 7.2617188 C 23.125921 7.2352621 23.136543 6.7551072 23.472656 6.2421875 C 23.585664 6.069841 23.714478 5.930449 23.845703 5.8261719 C 23.976664 5.7222349 24.101556 5.6656966 24.199219 5.6445312 C 24.233234 5.6369722 24.262807 5.6329392 24.287109 5.6367188 L 24.287109 5.6347656 z M 22.462891 6.8847656 L 22.462891 6.8886719 C 22.473851 6.8878782 22.487515 6.890008 22.501953 6.8925781 C 22.531055 6.9001372 22.56717 6.9174074 22.607422 6.9472656 C 22.687964 7.0047144 22.782867 7.1005164 22.873047 7.2324219 C 22.928757 7.3136817 22.982153 7.4074038 23.025391 7.5117188 C 23.219696 7.9807959 23.116182 8.3652844 23.027344 8.3632812 C 22.946651 8.3612781 22.875626 8.0110309 22.720703 7.6386719 C 22.683286 7.5487191 22.644083 7.464955 22.607422 7.3867188 C 22.549822 7.26464 22.491488 7.1457763 22.458984 7.0664062 C 22.441977 7.0244535 22.430317 6.989284 22.425781 6.9609375 C 22.422981 6.9458194 22.422229 6.9351667 22.423828 6.9238281 C 22.425431 6.9124895 22.428744 6.9040434 22.435547 6.8964844 C 22.44235 6.8889253 22.451174 6.8885452 22.462891 6.8847656 z M 2.2011719 11.011719 L 2.2011719 11.154297 L 2.3867188 11.154297 C 2.6337426 11.154297 2.8426558 11.23907 3.0136719 11.410156 C 3.1941922 11.581268 3.2893289 11.79018 3.2988281 12.037109 L 3.2988281 19.947266 C 3.2893289 20.194396 3.1941922 20.407481 3.0136719 20.587891 C 2.8426568 20.758977 2.6337436 20.845703 2.3867188 20.845703 L 2.2011719 20.845703 L 2.2011719 20.988281 L 5.3222656 20.988281 L 5.3222656 20.845703 L 5.1386719 20.845703 C 4.8916483 20.845703 4.6766115 20.758977 4.4960938 20.587891 C 4.315576 20.40728 4.2265625 20.194195 4.2265625 19.947266 L 4.2265625 16.269531 L 10.054688 16.269531 L 10.054688 19.960938 C 10.045188 20.207892 9.9500516 20.416804 9.7695312 20.587891 C 9.5985162 20.758977 9.389603 20.845703 9.1425781 20.845703 L 8.9570312 20.845703 L 8.9570312 20.986328 L 12.078125 20.986328 L 12.078125 20.845703 L 11.892578 20.845703 C 11.645555 20.845703 11.432471 20.758977 11.251953 20.587891 C 11.080935 20.40728 10.989968 20.194195 10.980469 19.947266 L 10.980469 12.050781 C 10.989968 11.803827 11.080935 11.594915 11.251953 11.423828 C 11.43247 11.243419 11.645553 11.154297 11.892578 11.154297 L 12.078125 11.154297 L 12.078125 11.011719 L 8.9570312 11.011719 L 8.9570312 11.154297 L 9.1425781 11.154297 C 9.304094 11.154297 9.4551429 11.191484 9.5976562 11.267578 C 9.8921865 11.438589 10.045188 11.695062 10.054688 12.037109 L 10.054688 15.841797 L 4.2265625 15.841797 L 4.2265625 12.037109 C 4.2360642 11.790155 4.3250777 11.581243 4.4960938 11.410156 C 4.6766103 11.23907 4.891647 11.154297 5.1386719 11.154297 L 5.3222656 11.154297 L 5.3222656 11.011719 L 2.2011719 11.011719 z M 31.876953 14.25 C 31.878794 14.25 31.879268 14.250781 31.880859 14.251953 C 31.895222 14.259512 31.681665 14.88511 31.130859 15.771484 C 31.069404 15.872398 30.992192 15.988238 30.882812 16.091797 C 30.805597 16.162852 30.709581 16.218567 30.601562 16.248047 C 30.335257 16.317212 30.06158 16.307844 29.816406 16.34375 C 29.246695 16.426522 28.681155 16.591523 28.046875 16.810547 L 28.03125 16.814453 C 27.256666 17.085445 26.518008 17.212276 25.816406 17.160156 C 25.24857 17.117448 24.774936 16.946063 24.412109 16.716797 C 24.06205 16.494561 23.839943 16.236228 23.712891 16.041016 C 23.645199 15.937079 23.601407 15.848274 23.578125 15.785156 C 23.566031 15.751141 23.559286 15.727504 23.556641 15.708984 C 23.555802 15.701425 23.55548 15.693106 23.556641 15.685547 C 23.55748 15.677988 23.559253 15.673828 23.5625 15.673828 C 23.565701 15.672203 23.568927 15.672606 23.574219 15.675781 C 23.579132 15.678616 23.585372 15.683847 23.591797 15.691406 C 23.604647 15.702745 23.623101 15.726189 23.644531 15.75 C 23.687429 15.800646 23.741195 15.868149 23.822266 15.955078 C 23.97254 16.116086 24.203797 16.329053 24.537109 16.505859 C 24.881613 16.689166 25.314918 16.815969 25.835938 16.837891 C 26.484535 16.864347 27.165562 16.730042 27.912109 16.472656 L 27.927734 16.46875 C 28.57112 16.245002 29.16865 16.082207 29.771484 16.011719 C 30.064511 15.977703 30.318385 15.999928 30.527344 15.951172 C 30.5857 15.939833 30.64207 15.910842 30.6875 15.873047 C 30.766757 15.809551 30.836606 15.713692 30.904297 15.621094 C 31.477534 14.820401 31.814016 14.260835 31.876953 14.251953 L 31.876953 14.25 z M 27.414062 15.216797 C 27.412464 15.243254 27.634053 15.262338 27.464844 15.537109 C 27.408907 15.658054 27.303485 15.789519 27.140625 15.873047 C 27.122861 15.880606 27.103739 15.882939 27.085938 15.886719 C 26.863134 15.940388 26.688641 15.81305 26.605469 15.724609 C 26.470577 15.57494 26.39625 15.46194 26.421875 15.433594 C 26.447576 15.407137 26.5651 15.469023 26.720703 15.582031 C 26.818593 15.627764 26.962965 15.715342 27.023438 15.683594 C 27.029107 15.680797 27.034527 15.675655 27.039062 15.671875 C 27.157815 15.612914 27.247429 15.526572 27.310547 15.445312 C 27.382152 15.316214 27.389699 15.244094 27.414062 15.216797 z M 30.884766 17.861328 C 31.141093 17.86163 31.37063 17.875824 31.550781 17.900391 C 31.678303 17.915509 31.780974 17.937378 31.855469 17.957031 C 31.940508 17.979708 31.986328 18.009707 31.986328 18.03125 C 31.986328 18.057707 31.937207 18.07523 31.851562 18.09375 C 31.776048 18.108868 31.671271 18.124561 31.544922 18.134766 C 31.299593 18.157443 30.99475 18.173833 30.636719 18.197266 C 31.464216 18.142085 29.652953 18.261078 30.480469 18.207031 C 30.163707 18.229708 29.931075 18.251709 29.6875 18.291016 C 29.532464 18.317472 29.428912 18.338212 29.324219 18.371094 C 29.160905 18.427031 29.084029 18.48645 29.052734 18.466797 C 29.024388 18.447899 29.047843 18.315438 29.236328 18.193359 C 29.338527 18.124194 29.465671 18.065956 29.623047 18.017578 C 29.867167 17.941988 30.142396 17.896165 30.458984 17.875 C 30.513372 17.871409 30.566454 17.867188 30.619141 17.867188 C 30.709849 17.863597 30.799311 17.863281 30.884766 17.863281 L 30.884766 17.861328 z M 26.333984 18.029297 C 26.454173 18.025517 26.650439 18.049846 26.875 18.103516 C 26.925494 18.111075 26.972855 18.117568 27.025391 18.128906 C 27.157825 18.151583 27.258665 18.168854 27.369141 18.183594 C 27.513897 18.198712 27.63623 18.209869 27.714844 18.224609 C 27.853704 18.164893 27.954953 18.171058 27.957031 18.181641 C 27.95987 18.196759 27.890178 18.229221 27.792969 18.296875 C 27.775961 18.323332 27.737301 18.35245 27.683594 18.378906 C 27.57754 18.469237 27.459621 18.59972 27.363281 18.787109 C 27.256207 18.999897 27.177647 19.236836 27.113281 19.523438 C 27.09325 19.612256 27.076459 19.701314 27.060547 19.787109 C 26.992856 20.594341 26.908522 21.212575 26.863281 21.208984 C 26.818116 21.205394 26.828009 20.581134 26.882812 19.765625 C 26.897553 19.676428 26.914608 19.583589 26.935547 19.490234 C 27.002482 19.191274 27.093938 18.934383 27.220703 18.710938 C 27.279702 18.604733 27.342943 18.518384 27.40625 18.449219 C 27.390754 18.450012 27.375703 18.450794 27.359375 18.451172 C 27.238884 18.458731 27.107648 18.449857 26.96875 18.425781 C 26.911717 18.414443 26.856921 18.401964 26.804688 18.390625 C 26.445443 18.277617 26.189629 18.144896 26.208984 18.074219 C 26.216165 18.047762 26.261833 18.034274 26.333984 18.03125 L 26.333984 18.029297 z M 25.71875 21.138672 C 25.772873 21.141469 25.905093 21.244106 26.048828 21.394531 C 26.077175 21.417208 26.106369 21.438197 26.136719 21.458984 C 26.1919 21.49678 26.241794 21.52489 26.292969 21.544922 C 26.440219 21.605772 26.575457 21.57158 26.59375 21.609375 C 26.602065 21.624493 26.503289 21.783758 26.240234 21.71875 C 26.165362 21.699852 26.090133 21.663612 26.019531 21.615234 C 25.980262 21.588778 25.945281 21.56073 25.914062 21.53125 C 25.756985 21.338116 25.666098 21.175259 25.701172 21.144531 C 25.705707 21.140941 25.711191 21.136845 25.71875 21.140625 L 25.71875 21.138672 z M 26.998047 21.841797 L 26.998047 21.84375 C 27.00296 21.84375 27.008317 21.843549 27.011719 21.845703 C 27.038553 21.86838 26.832512 22.206587 26.773438 22.791016 C 26.748871 23.056716 26.743324 23.336402 26.753906 23.660156 C 26.757667 23.77581 26.763106 23.890016 26.769531 24 C 26.873279 24.867553 26.921211 25.529449 26.876953 25.535156 C 26.832695 25.538936 26.71157 24.887739 26.591797 24.017578 C 26.583482 23.905704 26.576423 23.788599 26.572266 23.669922 C 26.561683 23.339969 26.576309 23.043799 26.615234 22.771484 C 26.694075 22.187472 26.923998 21.845009 26.998047 21.841797 z M 26.507812 25.75 C 26.514994 25.750794 26.519595 25.753466 26.521484 25.757812 C 26.536602 25.788049 26.366064 25.906709 26.128906 26.001953 C 26.067602 26.02463 26.007588 26.046248 25.953125 26.0625 C 25.874964 26.085177 25.809164 26.101375 25.759766 26.107422 C 25.735955 26.110634 25.715194 26.110962 25.701172 26.109375 C 25.686432 26.10775 25.677671 26.105215 25.675781 26.097656 C 25.673982 26.090097 25.680362 26.083731 25.691406 26.076172 C 25.701989 26.068613 25.717758 26.05626 25.738281 26.044922 C 25.780121 26.022245 25.84142 25.992686 25.914062 25.960938 C 25.964897 25.93826 26.022353 25.914436 26.082031 25.890625 C 26.283404 25.809743 26.457643 25.747859 26.507812 25.753906 L 26.507812 25.75 z M 27.066406 26.224609 C 27.070564 26.224194 27.075479 26.224635 27.078125 26.226562 C 27.10496 26.24924 26.912687 26.563216 26.970703 27.082031 C 27.000561 27.323921 27.062707 27.573164 27.15625 27.857422 C 27.186108 27.948508 27.216563 28.038449 27.248047 28.125 C 27.590359 28.861554 27.823973 29.43768 27.783203 29.457031 C 27.742422 29.475929 27.441868 28.929422 27.083984 28.193359 C 27.049969 28.105296 27.015594 28.014788 26.984375 27.919922 C 26.887468 27.625875 26.830717 27.355118 26.8125 27.097656 C 26.765861 26.530047 27.003666 26.232735 27.066406 26.224609 z "
       style="fill:#ffffff;stroke:none;stroke-width:0.105833px;stroke-linecap:butt;stroke-linejoin:miter;stroke-opacity:1"
       id="path1329" />
  </g>
</svg>
