<?xml version="1.0" encoding="UTF-8" standalone="no"?>
<svg
   xmlns:dc="http://purl.org/dc/elements/1.1/"
   xmlns:cc="http://creativecommons.org/ns#"
   xmlns:rdf="http://www.w3.org/1999/02/22-rdf-syntax-ns#"
   xmlns:svg="http://www.w3.org/2000/svg"
   xmlns="http://www.w3.org/2000/svg"
   xmlns:sodipodi="http://sodipodi.sourceforge.net/DTD/sodipodi-0.dtd"
   xmlns:inkscape="http://www.inkscape.org/namespaces/inkscape"
   width="11.895415mm"
   height="8.4666672mm"
   viewBox="0 0 11.895415 8.4666671"
   version="1.1"
   id="svg8"
   sodipodi:docname="llamar.svg"
   inkscape:version="1.1-dev (2c50571925, 2020-02-08)">
  <defs
     id="defs2" />
  <sodipodi:namedview
     id="base"
     pagecolor="#ffffff"
     bordercolor="#666666"
     borderopacity="1.0"
     inkscape:pageopacity="0.0"
     inkscape:pageshadow="2"
     inkscape:zoom="0.49497475"
     inkscape:cx="398.15454"
     inkscape:cy="254.11026"
     inkscape:document-units="mm"
     inkscape:current-layer="layer1"
     showgrid="false"
     inkscape:snap-bbox="true"
     inkscape:bbox-paths="true"
     inkscape:bbox-nodes="true"
     inkscape:snap-bbox-edge-midpoints="true"
     inkscape:snap-bbox-midpoints="true"
     inkscape:object-paths="true"
     inkscape:snap-intersection-paths="true"
     inkscape:snap-smooth-nodes="true"
     inkscape:snap-midpoints="true"
     inkscape:snap-global="false"
     showguides="false"
     inkscape:window-width="1366"
     inkscape:window-height="712"
     inkscape:window-x="0"
     inkscape:window-y="32"
     inkscape:window-maximized="1" />
  <metadata
     id="metadata5">
    <rdf:RDF>
      <cc:Work
         rdf:about="">
        <dc:format>image/svg+xml</dc:format>
        <dc:type
           rdf:resource="http://purl.org/dc/dcmitype/StillImage" />
        <dc:title />
      </cc:Work>
    </rdf:RDF>
  </metadata>
  <g
     inkscape:label="Capa 1"
     inkscape:groupmode="layer"
     id="layer1"
     transform="translate(276.5179,-34.895015)">
    <path
       style="opacity:1;fill:#ffffff;fill-opacity:1;stroke:none;stroke-width:0.110891;stroke-linecap:round;stroke-linejoin:round;stroke-miterlimit:4;stroke-dasharray:0.221782, 0.221782;stroke-dashoffset:0;stroke-opacity:1"
       d="m -270.57024,34.895015 a 2.5777239,2.5777239 0 0 0 -2.5777,2.577704 v 5.888963 h 5.15543 v -5.888963 a 2.5777239,2.5777239 0 0 0 -2.57773,-2.577704 z m 0,0.669575 a 1.6776141,1.6776141 0 0 1 1.67762,1.677621 1.6776141,1.6776141 0 0 1 -1.67762,1.677592 1.6776141,1.6776141 0 0 1 -1.67759,-1.677592 1.6776141,1.6776141 0 0 1 1.67759,-1.677621 z m 0.0499,3.934218 c 0.0357,0 0.0691,0.0053 0.10009,0.01593 0.031,0.0106 0.0577,0.02609 0.0801,0.0465 0.0228,0.02002 0.0406,0.04454 0.0536,0.07358 0.0129,0.02905 0.0194,0.06202 0.0194,0.09891 0,0.0314 -0.005,0.06044 -0.0141,0.08713 -0.009,0.02669 -0.0222,0.05241 -0.0383,0.07713 -0.0161,0.02433 -0.0347,0.04807 -0.0559,0.07123 -0.0208,0.02276 -0.043,0.04614 -0.0665,0.07008 l -0.22194,0.227241 c 0.0157,-0.0043 0.0316,-0.0076 0.0477,-0.01 0.0161,-0.0027 0.0316,-0.0041 0.0465,-0.0041 h 0.28257 c 0.0114,0 0.0204,0.0033 0.0271,0.01 0.007,0.0067 0.01,0.0153 0.01,0.0259 v 0.06361 h -0.56281 v -0.03593 c 0,-0.0075 0.001,-0.0151 0.004,-0.02295 0.003,-0.0078 0.008,-0.0151 0.0147,-0.02177 l 0.21991,-0.220909 c -0.0256,-1.11e-4 -0.0512,-0.0011 -0.0767,-0.0028 a 2.5777239,2.5777239 0 0 0 0.0768,0.0027 l 0.0502,-0.05046 c 0.0224,-0.02276 0.0428,-0.04453 0.0612,-0.06533 0.0184,-0.0212 0.0341,-0.04241 0.0471,-0.06361 0.0133,-0.02119 0.0236,-0.04257 0.0306,-0.06415 0.007,-0.02198 0.0106,-0.04533 0.0106,-0.07006 0,-0.02473 -0.004,-0.04634 -0.0118,-0.06478 -0.008,-0.01884 -0.0186,-0.03433 -0.0324,-0.0465 -0.0137,-0.01217 -0.0298,-0.02119 -0.0483,-0.02708 -0.0185,-0.0063 -0.0383,-0.0094 -0.0595,-0.0094 -0.0212,0 -0.0408,0.0031 -0.0589,0.0094 -0.018,0.0063 -0.0341,0.01512 -0.0482,0.0265 -0.0137,0.01099 -0.0255,0.02412 -0.0353,0.03943 -0.009,0.01531 -0.0161,0.03218 -0.02,0.05063 -0.003,0.01138 -0.008,0.01963 -0.0141,0.02473 -0.006,0.0051 -0.0145,0.0077 -0.0247,0.0077 h -0.006 c -0.002,-3.88e-4 -0.004,-8.15e-4 -0.007,-0.0012 l -0.0547,-0.0094 c 0.005,-0.03846 0.0161,-0.07242 0.0318,-0.101859 0.0157,-0.02983 0.0355,-0.05474 0.0594,-0.07475 0.0243,-0.02002 0.052,-0.03515 0.083,-0.04536 0.0314,-0.01059 0.0651,-0.01587 0.10125,-0.01587 v -2.9e-5 z m 1.43537,2.9e-5 c 0.0357,0 0.0687,0.0051 0.0989,0.01533 0.0302,0.0102 0.0561,0.02471 0.0777,0.04355 0.022,0.01884 0.039,0.04162 0.0512,0.06831 0.0122,0.02669 0.0182,0.0563 0.0182,0.08888 0,0.02669 -0.004,0.05064 -0.0106,0.07183 -0.007,0.0208 -0.0165,0.03927 -0.0294,0.05536 -0.0126,0.0157 -0.0279,0.02904 -0.0459,0.04003 -0.0181,0.01099 -0.0383,0.0198 -0.0607,0.02647 0.055,0.01452 0.0962,0.03886 0.12364,0.07301 0.0279,0.03415 0.0418,0.07695 0.0418,0.128363 0,0.03886 -0.007,0.07377 -0.0224,0.104781 -0.0145,0.03101 -0.0345,0.0575 -0.06,0.07948 -0.0255,0.02159 -0.0553,0.03825 -0.0895,0.05003 -0.0338,0.01138 -0.0701,0.01708 -0.10891,0.01708 -0.0447,0 -0.083,-0.0055 -0.11481,-0.01647 -0.0318,-0.01138 -0.0587,-0.02688 -0.0807,-0.0465 -0.022,-0.01962 -0.04,-0.04279 -0.0542,-0.06948 -0.0141,-0.02708 -0.0261,-0.05631 -0.0359,-0.0877 l 0.0448,-0.01885 c 0.008,-0.0035 0.0165,-0.0053 0.0247,-0.0053 0.008,0 0.0147,0.0018 0.0206,0.0053 0.006,0.0031 0.011,0.0082 0.0141,0.0153 7.8e-4,0.0016 0.002,0.0033 0.002,0.0053 7.8e-4,0.0016 0.002,0.0033 0.002,0.0053 0.005,0.01138 0.0121,0.02433 0.02,0.03885 0.008,0.01413 0.0184,0.0275 0.0318,0.04006 0.0133,0.01256 0.0298,0.02314 0.0495,0.03178 0.02,0.0086 0.0447,0.01295 0.0742,0.01295 0.0294,0 0.0552,-0.0047 0.0771,-0.01412 0.0224,-0.0098 0.0408,-0.02237 0.0553,-0.03768 0.0149,-0.01531 0.0261,-0.03239 0.0336,-0.05123 0.007,-0.01884 0.0112,-0.03748 0.0112,-0.05593 0,-0.02276 -0.003,-0.04357 -0.009,-0.0624 -0.006,-0.01884 -0.0169,-0.03512 -0.033,-0.04885 -0.0157,-0.01374 -0.0377,-0.02453 -0.0659,-0.03238 -0.0279,-0.0079 -0.0638,-0.01178 -0.10773,-0.01178 v -0.07596 c 0.0357,-3.88e-4 0.0661,-0.0043 0.0913,-0.01178 0.0255,-0.0075 0.0463,-0.01765 0.0624,-0.0306 0.0161,-0.01295 0.0277,-0.02845 0.0347,-0.0465 0.007,-0.01805 0.0112,-0.03808 0.0112,-0.06005 0,-0.02433 -0.004,-0.04553 -0.0118,-0.06358 -0.007,-0.01805 -0.0179,-0.03298 -0.0312,-0.04475 -0.0134,-0.01178 -0.0292,-0.02059 -0.0477,-0.02648 -0.0181,-0.0059 -0.0377,-0.0089 -0.0589,-0.0089 -0.0212,0 -0.0408,0.0031 -0.0589,0.0094 -0.0181,0.0063 -0.0342,0.01512 -0.0483,0.0265 -0.0137,0.01099 -0.0253,0.02433 -0.0348,0.04003 -0.009,0.01531 -0.0165,0.03197 -0.0212,0.05003 -0.003,0.01138 -0.008,0.01963 -0.0141,0.02473 -0.006,0.0051 -0.0143,0.0077 -0.0242,0.0077 h -0.006 c -0.002,-3.88e-4 -0.004,-7.87e-4 -0.007,-0.0012 l -0.0547,-0.0094 c 0.005,-0.03846 0.0161,-0.07242 0.0318,-0.101859 0.0157,-0.02983 0.0355,-0.05474 0.0595,-0.07475 0.0243,-0.02002 0.052,-0.03512 0.083,-0.04533 0.0314,-0.0106 0.0651,-0.0159 0.10126,-0.0159 z m -3.22886,0.0106 h 0.0771 c 0.008,0 0.0135,0.0017 0.0169,0.0051 0.004,0.0034 0.007,0.0073 0.0101,0.01183 l 0.24724,0.357323 c 0.002,-0.0096 0.007,-0.01976 0.0144,-0.03049 l 0.23117,-0.325977 c 0.003,-0.0051 0.006,-0.0093 0.0101,-0.01269 0.005,-0.0034 0.01,-0.0051 0.0152,-0.0051 h 0.0745 l -0.29466,0.407264 0.30649,0.435228 h -0.077 c -0.008,0 -0.0141,-0.0023 -0.0186,-0.0068 -0.005,-0.0051 -0.008,-0.0099 -0.011,-0.01438 l -0.2557,-0.372565 c -0.003,0.01129 -0.007,0.02089 -0.0127,0.0288 l -0.24552,0.345461 c -0.004,0.0051 -0.008,0.0096 -0.0127,0.01355 -0.004,0.004 -0.009,0.0059 -0.0152,0.0059 h -0.0719 l 0.3048,-0.430988 z m 1.42904,1.262249 h 0.077 c 0.008,0 0.0136,0.0017 0.0169,0.0051 0.004,0.0034 0.007,0.0073 0.0102,0.01186 l 0.24724,0.357323 c 0.002,-0.0096 0.007,-0.01976 0.0144,-0.03049 l 0.23114,-0.325978 c 0.003,-0.0051 0.006,-0.0093 0.0102,-0.01272 0.005,-0.0034 0.01,-0.0051 0.0152,-0.0051 h 0.0745 l -0.29463,0.407263 0.30649,0.4352 h -0.077 c -0.008,0 -0.0141,-0.0023 -0.0186,-0.0068 -0.005,-0.0051 -0.008,-0.0099 -0.011,-0.01441 l -0.25572,-0.372537 c -0.003,0.01129 -0.007,0.02089 -0.0127,0.0288 l -0.24555,0.345461 c -0.004,0.0051 -0.008,0.0096 -0.0127,0.01352 -0.004,0.004 -0.009,0.0059 -0.0152,0.0059 h -0.072 l 0.30483,-0.430959 z m -0.98937,0.0041 h 0.0977 v 0.539264 h 0.12776 v 0.06006 c 0,0.0063 -0.002,0.01158 -0.006,0.0159 -0.004,0.0043 -0.009,0.0065 -0.017,0.0065 h -0.10481 v 0.221941 h -0.0924 V 41.39751 h -0.37382 c -0.008,0 -0.0147,-0.0022 -0.0206,-0.0065 -0.005,-0.0047 -0.009,-0.0104 -0.0106,-0.01708 l -0.0106,-0.05358 z m 2.85689,0 h 0.093 l -0.2926,0.370302 c 0.02,-0.01374 0.0422,-0.02432 0.0665,-0.03177 0.0243,-0.0079 0.0506,-0.01178 0.0789,-0.01178 0.0338,0 0.0658,0.0057 0.096,0.01708 0.0302,0.01099 0.0567,0.02726 0.0795,0.04885 0.0228,0.02119 0.0408,0.04748 0.0542,0.07888 0.0134,0.03101 0.02,0.06652 0.02,0.106558 0,0.03886 -0.007,0.07497 -0.0212,0.108334 -0.0141,0.03336 -0.034,0.06241 -0.0595,0.08713 -0.0251,0.02473 -0.0555,0.04415 -0.0912,0.05828 -0.0357,0.01413 -0.075,0.0212 -0.11776,0.0212 -0.0424,0 -0.0808,-0.0067 -0.11539,-0.02003 -0.0341,-0.01374 -0.0634,-0.03295 -0.0877,-0.05768 -0.0243,-0.02512 -0.0432,-0.05536 -0.0565,-0.09068 -0.0129,-0.03572 -0.0194,-0.07555 -0.0194,-0.119509 0,-0.03689 0.008,-0.07613 0.0247,-0.117732 0.0165,-0.0416 0.0426,-0.08635 0.0783,-0.134236 l 0.21371,-0.28787 c 0.005,-0.0071 0.0131,-0.01297 0.023,-0.01768 0.01,-0.0051 0.021,-0.0076 0.0336,-0.0076 z m -2.84686,0.121858 -0.30675,0.417406 h 0.30202 v -0.347924 c 0,-0.0102 2.3e-4,-0.0212 6e-4,-0.03298 7.8e-4,-0.01177 0.002,-0.02394 0.004,-0.0365 z m 2.75856,0.284947 c -0.0283,0 -0.0538,0.0049 -0.0766,0.01473 -0.0228,0.0094 -0.0422,0.02237 -0.0583,0.03885 -0.0157,0.01609 -0.0279,0.03492 -0.0365,0.0565 -0.008,0.02119 -0.0124,0.04337 -0.0124,0.06653 0,0.02708 0.004,0.05181 0.0118,0.07418 0.008,0.02237 0.0192,0.04161 0.0341,0.0577 0.0153,0.01609 0.0338,0.02865 0.0554,0.03768 0.022,0.0086 0.0469,0.01295 0.0747,0.01295 0.0283,0 0.0538,-0.0045 0.0766,-0.01355 0.0228,-0.009 0.0422,-0.02159 0.0583,-0.03768 0.0165,-0.01609 0.029,-0.03513 0.0377,-0.0571 0.009,-0.02198 0.0135,-0.0459 0.0135,-0.0718 0,-0.02747 -0.004,-0.0522 -0.0129,-0.07418 -0.009,-0.02237 -0.0208,-0.04122 -0.0365,-0.05653 -0.0157,-0.0157 -0.0345,-0.02766 -0.0565,-0.0359 -0.022,-0.0082 -0.0461,-0.01238 -0.0724,-0.01238 z m -1.44141,0.841317 c 0.0381,0 0.0728,0.0057 0.10421,0.01705 0.0314,0.01138 0.0583,0.02709 0.0806,0.0471 0.0224,0.02002 0.0396,0.04357 0.0518,0.07066 0.0122,0.02708 0.0183,0.05613 0.0183,0.08713 0,0.04553 -0.0114,0.08476 -0.0341,0.117732 -0.0228,0.03258 -0.0561,0.05712 -0.10008,0.07361 0.0526,0.01491 0.093,0.04003 0.12126,0.07536 0.0283,0.03493 0.0424,0.07947 0.0424,0.133634 0,0.03689 -0.007,0.07025 -0.0212,0.100082 -0.0137,0.02944 -0.0332,0.05456 -0.0583,0.07536 -0.0247,0.0208 -0.0546,0.0369 -0.0895,0.04828 -0.0349,0.01099 -0.0734,0.01647 -0.11541,0.01647 -0.042,0 -0.0804,-0.0055 -0.11539,-0.01647 -0.0349,-0.01138 -0.065,-0.02748 -0.0901,-0.04828 -0.0251,-0.0208 -0.0445,-0.04592 -0.0583,-0.07536 -0.0137,-0.02983 -0.0206,-0.06319 -0.0206,-0.100082 0,-0.05416 0.0141,-0.0987 0.0424,-0.133634 0.0283,-0.03532 0.0687,-0.06044 0.12128,-0.07536 -0.0444,-0.01648 -0.0779,-0.04103 -0.10065,-0.07361 -0.0224,-0.03297 -0.0336,-0.0722 -0.0336,-0.117732 0,-0.03101 0.006,-0.06005 0.0183,-0.08713 0.0122,-0.02708 0.0295,-0.05064 0.0518,-0.07066 0.0224,-0.02002 0.049,-0.03572 0.0801,-0.0471 0.0314,-0.01138 0.0663,-0.01705 0.10478,-0.01705 z m 1.46493,0 c 0.0404,0 0.0771,0.0067 0.11011,0.02 0.033,0.01335 0.0612,0.03199 0.0848,0.05593 0.0235,0.02394 0.0416,0.0526 0.0542,0.08596 0.0129,0.03336 0.0194,0.07026 0.0194,0.110684 0,0.02433 -0.002,0.0475 -0.007,0.06948 -0.004,0.02159 -0.0108,0.04278 -0.0194,0.06358 -0.009,0.0208 -0.019,0.0416 -0.0312,0.06241 -0.0118,0.02041 -0.0253,0.0416 -0.0406,0.06358 l -0.20547,0.296723 c -0.005,0.0075 -0.0124,0.01354 -0.0218,0.01825 -0.009,0.0043 -0.0202,0.0065 -0.0324,0.0065 h -0.0965 l 0.25667,-0.336177 c 0.009,-0.01138 0.0167,-0.02217 0.0242,-0.03238 0.007,-0.0102 0.0145,-0.0204 0.0212,-0.0306 -0.0216,0.01727 -0.0459,0.0304 -0.073,0.03943 -0.0271,0.009 -0.0557,0.01355 -0.0859,0.01355 -0.0318,0 -0.062,-0.0053 -0.0907,-0.0159 -0.0283,-0.0106 -0.0532,-0.02609 -0.0748,-0.0465 -0.0216,-0.0208 -0.0389,-0.04613 -0.0518,-0.07596 -0.0126,-0.03022 -0.0188,-0.06475 -0.0188,-0.103606 0,-0.03689 0.007,-0.07142 0.0206,-0.103607 0.0137,-0.03218 0.033,-0.06027 0.0577,-0.08421 0.0247,-0.02394 0.0542,-0.04276 0.0883,-0.0565 0.0342,-0.01374 0.0716,-0.0206 0.11243,-0.0206 z m -3.23295,0.01 h 0.077 c 0.008,0 0.0135,0.0017 0.0169,0.0051 0.004,0.0034 0.007,0.0073 0.0102,0.01186 l 0.24724,0.357294 c 0.002,-0.0096 0.007,-0.01973 0.0144,-0.03046 l 0.23117,-0.326006 c 0.003,-0.0051 0.006,-0.0093 0.0101,-0.01269 0.005,-0.0034 0.01,-0.0051 0.0152,-0.0051 h 0.0745 l -0.29466,0.407264 0.3065,0.435199 h -0.077 c -0.008,0 -0.0141,-0.0023 -0.0186,-0.0068 -0.005,-0.0051 -0.008,-0.0099 -0.011,-0.01441 l -0.25569,-0.372538 c -0.003,0.01129 -0.007,0.02089 -0.0127,0.0288 l -0.24552,0.345432 c -0.004,0.0051 -0.008,0.0096 -0.0127,0.01355 -0.004,0.004 -0.009,0.0059 -0.0152,0.0059 h -0.0719 l 0.3048,-0.430959 z m 1.76802,0.07123 c -0.0251,0 -0.0473,0.0037 -0.0665,0.01117 -0.0188,0.0075 -0.0348,0.01768 -0.0477,0.03063 -0.0126,0.01295 -0.0222,0.02806 -0.0289,0.04533 -0.006,0.01727 -0.009,0.03573 -0.009,0.05536 0,0.01923 0.003,0.03787 0.008,0.05593 0.005,0.01805 0.0143,0.03412 0.0265,0.04825 0.0122,0.01374 0.0279,0.02495 0.0471,0.03358 0.0196,0.0082 0.0432,0.01235 0.0706,0.01235 0.0275,0 0.0508,-0.0041 0.0701,-0.01235 0.0196,-0.0086 0.0355,-0.01984 0.0477,-0.03358 0.0122,-0.01413 0.021,-0.0302 0.0265,-0.04825 0.005,-0.01806 0.008,-0.0367 0.008,-0.05593 0,-0.01962 -0.003,-0.03809 -0.01,-0.05536 -0.006,-0.01727 -0.0159,-0.03238 -0.0289,-0.04533 -0.0126,-0.01295 -0.0284,-0.02317 -0.0477,-0.03063 -0.0188,-0.0075 -0.0408,-0.01117 -0.066,-0.01117 z m 1.46376,0.0065 c -0.0259,0 -0.0496,0.0043 -0.0712,0.01295 -0.0212,0.0082 -0.0394,0.01981 -0.0548,0.03473 -0.0149,0.01492 -0.0265,0.03278 -0.0347,0.05358 -0.008,0.0208 -0.0124,0.04358 -0.0124,0.06831 0,0.02669 0.004,0.05061 0.0112,0.0718 0.008,0.0208 0.0189,0.03849 0.033,0.05301 0.0145,0.01452 0.032,0.02549 0.0524,0.03295 0.0208,0.0075 0.044,0.0112 0.0695,0.0112 0.0283,0 0.0532,-0.0045 0.0747,-0.01355 0.022,-0.0094 0.0404,-0.02177 0.0554,-0.03708 0.0149,-0.01531 0.0263,-0.03299 0.0341,-0.05301 0.008,-0.02002 0.0118,-0.04082 0.0118,-0.0624 0,-0.0263 -0.004,-0.05004 -0.0129,-0.07123 -0.008,-0.02159 -0.0198,-0.03984 -0.0347,-0.05475 -0.0149,-0.01491 -0.0328,-0.02627 -0.0536,-0.03412 -0.0204,-0.0082 -0.043,-0.01238 -0.0677,-0.01238 z m -1.46376,0.370302 c -0.0232,0 -0.0453,0.0031 -0.0665,0.0094 -0.0212,0.0059 -0.0401,0.0153 -0.0565,0.02825 -0.0161,0.01295 -0.029,0.02983 -0.0389,0.05063 -0.009,0.02041 -0.0141,0.04514 -0.0141,0.07418 0,0.02355 0.004,0.04516 0.0118,0.06478 0.008,0.01923 0.0198,0.0359 0.0347,0.05003 0.0153,0.01374 0.0337,0.02453 0.0553,0.03238 0.022,0.0075 0.0467,0.0112 0.0742,0.0112 0.0275,0 0.052,-0.0037 0.0736,-0.0112 0.022,-0.0078 0.0404,-0.01864 0.0553,-0.03238 0.0153,-0.01413 0.0269,-0.0308 0.0347,-0.05003 0.008,-0.01962 0.0124,-0.04123 0.0124,-0.06478 0,-0.02904 -0.005,-0.05377 -0.0147,-0.07418 -0.009,-0.0208 -0.0224,-0.03768 -0.0388,-0.05063 -0.0161,-0.01295 -0.0347,-0.02236 -0.0559,-0.02825 -0.0212,-0.0063 -0.0434,-0.0094 -0.0665,-0.0094 z"
       id="rect819"
       inkscape:connector-curvature="0" />
    <path
       style="color:#000000;font-style:normal;font-variant:normal;font-weight:normal;font-stretch:normal;font-size:medium;line-height:normal;font-family:sans-serif;font-variant-ligatures:normal;font-variant-position:normal;font-variant-caps:normal;font-variant-numeric:normal;font-variant-alternates:normal;font-feature-settings:normal;text-indent:0;text-align:start;text-decoration:none;text-decoration-line:none;text-decoration-style:solid;text-decoration-color:#000000;letter-spacing:normal;word-spacing:normal;text-transform:none;writing-mode:lr-tb;direction:ltr;text-orientation:mixed;dominant-baseline:auto;baseline-shift:baseline;text-anchor:start;white-space:normal;shape-padding:0;clip-rule:nonzero;display:inline;overflow:visible;visibility:visible;opacity:1;isolation:auto;mix-blend-mode:normal;color-interpolation:sRGB;color-interpolation-filters:linearRGB;solid-color:#000000;solid-opacity:1;vector-effect:none;fill:#ffffff;fill-opacity:1;fill-rule:nonzero;stroke:none;stroke-width:0.277228;stroke-linecap:round;stroke-linejoin:miter;stroke-miterlimit:4;stroke-dasharray:none;stroke-dashoffset:0;stroke-opacity:1;color-rendering:auto;image-rendering:auto;shape-rendering:auto;text-rendering:auto;enable-background:accumulate"
       d="m -275.76894,35.357722 a 0.13862779,0.13862779 0 0 0 -0.0783,0.254261 c 0,0 0.30296,0.202627 0.46187,0.694703 0.15892,0.492076 0.16976,1.274346 -0.50376,2.440918 -0.70402,1.219403 -0.7094,2.248869 -0.52998,2.966859 0.17941,0.71799 0.546,1.135892 0.546,1.135892 a 0.13865241,0.13865241 0 1 0 0.20804,-0.183347 c 0,0 -0.32085,-0.362228 -0.48517,-1.019792 -0.16432,-0.657564 -0.16972,-1.598977 0.50119,-2.761021 0.7014,-1.214875 0.7123,-2.092469 0.52748,-2.664749 -0.18481,-0.57228 -0.5694,-0.838481 -0.5694,-0.838481 a 0.13862779,0.13862779 0 0 0 -0.078,-0.02524 z m 1.49756,0 a 0.13862779,0.13862779 0 0 0 -0.0782,0.254261 c 0,0 0.30285,0.202627 0.46176,0.694703 0.15892,0.492076 0.16976,1.274346 -0.50376,2.440918 -0.70402,1.219403 -0.7094,2.248869 -0.52998,2.966859 0.17941,0.71799 0.54611,1.135892 0.54611,1.135892 a 0.13862779,0.13862779 0 1 0 0.20793,-0.183347 c 0,0 -0.32074,-0.362228 -0.48506,-1.019792 -0.16431,-0.657564 -0.16983,-1.598977 0.50108,-2.761021 0.7014,-1.214875 0.7123,-2.092469 0.52748,-2.664749 -0.18481,-0.57228 -0.5694,-0.838481 -0.5694,-0.838481 a 0.13862779,0.13862779 0 0 0 -0.078,-0.02524 z"
       id="path829"
       inkscape:connector-curvature="0" />
    <path
       style="color:#000000;font-style:normal;font-variant:normal;font-weight:normal;font-stretch:normal;font-size:medium;line-height:normal;font-family:sans-serif;font-variant-ligatures:normal;font-variant-position:normal;font-variant-caps:normal;font-variant-numeric:normal;font-variant-alternates:normal;font-feature-settings:normal;text-indent:0;text-align:start;text-decoration:none;text-decoration-line:none;text-decoration-style:solid;text-decoration-color:#000000;letter-spacing:normal;word-spacing:normal;text-transform:none;writing-mode:lr-tb;direction:ltr;text-orientation:mixed;dominant-baseline:auto;baseline-shift:baseline;text-anchor:start;white-space:normal;shape-padding:0;clip-rule:nonzero;display:inline;overflow:visible;visibility:visible;opacity:1;isolation:auto;mix-blend-mode:normal;color-interpolation:sRGB;color-interpolation-filters:linearRGB;solid-color:#000000;solid-opacity:1;vector-effect:none;fill:#ffffff;fill-opacity:1;fill-rule:nonzero;stroke:none;stroke-width:0.277228;stroke-linecap:round;stroke-linejoin:miter;stroke-miterlimit:4;stroke-dasharray:none;stroke-dashoffset:0;stroke-opacity:1;color-rendering:auto;image-rendering:auto;shape-rendering:auto;text-rendering:auto;enable-background:accumulate"
       d="m -266.87304,35.35782 a 0.13862779,0.13862779 0 0 0 -2.7e-4,2.9e-5 0.13862779,0.13862779 0 0 0 -0.0738,0.02513 c 0,0 -0.38457,0.266201 -0.56938,0.838481 -0.18482,0.57228 -0.17392,1.449875 0.52749,2.66475 0.6709,1.162043 0.66547,2.103457 0.50115,2.761021 -0.16431,0.657563 -0.48514,1.019792 -0.48514,1.019792 a 0.13865475,0.13865475 0 1 0 0.20805,0.183346 c 0,0 0.36658,-0.417902 0.54599,-1.135892 0.17942,-0.717989 0.17404,-1.747456 -0.52998,-2.966859 -0.67352,-1.166572 -0.66268,-1.948841 -0.50376,-2.440918 0.15891,-0.492076 0.46184,-0.694703 0.46184,-0.694703 a 0.13862779,0.13862779 0 0 0 -0.0823,-0.254175 z m 1.49743,2.9e-5 a 0.13862779,0.13862779 0 0 0 -0.0738,0.02513 c 0,0 -0.38456,0.266201 -0.56938,0.838481 -0.18482,0.57228 -0.17404,1.449875 0.52737,2.66475 0.67091,1.162043 0.66551,2.103457 0.50119,2.761021 -0.16432,0.657563 -0.48506,1.019792 -0.48506,1.019792 a 0.13862779,0.13862779 0 1 0 0.20793,0.183346 c 0,0 0.3667,-0.417902 0.54612,-1.135892 0.17941,-0.717989 0.17392,-1.747456 -0.5301,-2.966859 -0.67352,-1.166572 -0.66256,-1.948841 -0.50365,-2.440918 0.15892,-0.492076 0.46173,-0.694703 0.46173,-0.694703 a 0.13862779,0.13862779 0 0 0 -0.0824,-0.254146 z"
       id="path845"
       inkscape:connector-curvature="0" />
  </g>
</svg>
