<?xml version="1.0" encoding="UTF-8" standalone="no"?>
<svg
   xmlns:dc="http://purl.org/dc/elements/1.1/"
   xmlns:cc="http://creativecommons.org/ns#"
   xmlns:rdf="http://www.w3.org/1999/02/22-rdf-syntax-ns#"
   xmlns:svg="http://www.w3.org/2000/svg"
   xmlns="http://www.w3.org/2000/svg"
   xmlns:xlink="http://www.w3.org/1999/xlink"
   xmlns:sodipodi="http://sodipodi.sourceforge.net/DTD/sodipodi-0.dtd"
   xmlns:inkscape="http://www.inkscape.org/namespaces/inkscape"
   sodipodi:docname="mujer.svg"
   inkscape:version="1.1-dev (2c50571925, 2020-02-08)"
   id="svg394"
   version="1.1"
   viewBox="0 0 8.4666653 8.4666405"
   height="8.4666405mm"
   width="8.4666653mm">
  <defs
     id="defs388">
    <radialGradient
       inkscape:collect="always"
       xlink:href="#linearGradient999"
       id="radialGradient1307"
       gradientUnits="userSpaceOnUse"
       gradientTransform="matrix(0.10583197,0,0,0.10583197,47.252888,91.372343)"
       cx="-470.15863"
       cy="120.1164"
       fx="-470.15863"
       fy="120.1164"
       r="40" />
    <linearGradient
       inkscape:collect="always"
       id="linearGradient999">
      <stop
         style="stop-color:#aa0000;stop-opacity:1"
         offset="0"
         id="stop995" />
      <stop
         style="stop-color:#d40000;stop-opacity:1"
         offset="1"
         id="stop997" />
    </linearGradient>
  </defs>
  <sodipodi:namedview
     inkscape:window-maximized="1"
     inkscape:window-y="32"
     inkscape:window-x="0"
     inkscape:window-height="712"
     inkscape:window-width="1366"
     showgrid="false"
     inkscape:current-layer="layer1"
     inkscape:document-units="px"
     inkscape:cy="15.915638"
     inkscape:cx="23.385867"
     inkscape:zoom="7.9195959"
     inkscape:pageshadow="2"
     inkscape:pageopacity="0.0"
     borderopacity="1.0"
     bordercolor="#666666"
     pagecolor="#ffffff"
     id="base" />
  <metadata
     id="metadata391">
    <rdf:RDF>
      <cc:Work
         rdf:about="">
        <dc:format>image/svg+xml</dc:format>
        <dc:type
           rdf:resource="http://purl.org/dc/dcmitype/StillImage" />
        <dc:title></dc:title>
      </cc:Work>
    </rdf:RDF>
  </metadata>
  <g
     transform="translate(6.7382172,-99.85119)"
     id="layer1"
     inkscape:groupmode="layer"
     inkscape:label="Capa 1">
    <path
       inkscape:connector-curvature="0"
       id="rect1271"
       style="opacity:1;fill:url(#radialGradient1307);fill-opacity:1;stroke:none;stroke-width:0.0179377;stroke-linecap:round;stroke-linejoin:miter;stroke-miterlimit:4;stroke-dasharray:none;stroke-dashoffset:0;stroke-opacity:1"
       d="m -6.1479325,99.85122 h 7.286007 c 0.327012,0 0.590276,0.26326 0.590276,0.59028 v 7.286 c 0,0.32702 -0.263264,0.59028 -0.590276,0.59028 h -7.286007 c -0.327013,0 -0.590275,-0.26326 -0.590275,-0.59028 v -7.286 c 0,-0.32702 0.263262,-0.59028 0.590275,-0.59028 z" />
    <path
       transform="matrix(0.26458334,0,0,0.26458334,-6.7382172,99.85119)"
       d="M 29.769531 -0.00390625 L 29.658203 0 C 29.692975 0.0028006299 29.685665 0.46479177 29.642578 1.3164062 C 29.49718 1.6970047 29.214345 2.1036943 28.759766 2.4492188 C 28.205997 2.8611872 27.512552 3.1386684 26.654297 3.3203125 C 25.382664 3.5916826 24.235659 3.5752325 22.654297 3.6054688 C 22.284583 3.6168073 21.907479 3.6487197 21.607422 3.8085938 C 21.25585 3.9794284 20.981729 4.3156089 20.728516 4.6972656 C 20.555829 4.958431 20.465106 5.2848703 20.386719 5.6386719 C 20.288905 6.0986404 20.243443 6.5765561 20.216797 7.0761719 C 20.152696 8.29129 20.21487 9.5225261 20.322266 10.833984 C 20.368829 11.400006 20.42321 11.973421 20.486328 12.550781 C 20.700438 14.509635 20.995298 16.369536 21.349609 18.128906 C 21.616671 19.446752 21.705677 20.71743 21.542969 21.931641 C 21.439901 22.698771 21.217981 23.375964 21.214844 24.011719 C 21.212043 24.230931 21.235374 24.462266 21.255859 24.689453 C 21.289119 25.051532 21.330199 25.412804 21.371094 25.753906 C 21.484933 26.704079 21.620697 27.696574 21.720703 28.435547 C 21.934473 29.938741 22.073961 31.013032 22.125 31.5625 L 22.126953 31.580078 C 22.126953 31.580078 22.128509 31.599609 22.128906 31.599609 C 22.147804 31.813531 22.153097 31.946955 22.140625 31.972656 C 22.141067 31.983995 22.140228 31.988661 22.140625 32 L 24.789062 32 L 24.789062 31.996094 C 24.69087 31.935999 24.639064 30.419513 24.648438 28.257812 C 24.650437 27.442644 24.659844 26.561287 24.673828 25.609375 L 24.675781 25.5 C 24.681451 25.133008 24.687249 24.806675 24.691406 24.457031 C 24.693806 24.244622 24.698537 24.048653 24.693359 23.853516 C 24.680509 23.36452 24.640886 22.893174 24.623047 22.447266 C 24.602637 22.019159 24.58748 21.642227 24.683594 21.251953 C 24.809112 20.770479 24.882229 20.2352 24.927734 19.933594 C 24.955703 19.747641 24.97925 19.605573 25 19.492188 C 24.924939 19.432849 24.850944 19.369569 24.78125 19.300781 C 24.459801 18.968939 24.239736 18.554817 24.115234 18.105469 C 24.060204 17.906666 24.025879 17.705305 24.007812 17.505859 C 23.939743 16.781022 24.043702 16.07212 24.191406 15.4375 C 24.348899 14.754426 24.569751 14.104264 24.783203 13.53125 C 25.204836 12.407521 25.168717 11.261477 25.085938 10.515625 C 25.036841 10.077729 24.966359 9.7248408 24.916016 9.4824219 C 24.889559 9.3554298 24.86745 9.2508693 24.855469 9.1835938 C 24.849044 9.149578 24.844884 9.1208381 24.84375 9.1015625 C 24.843308 9.0902239 24.842593 9.0819045 24.84375 9.078125 C 24.844948 9.0705659 24.848339 9.0701858 24.851562 9.0664062 C 24.854764 9.0651968 24.858368 9.0667975 24.863281 9.0703125 C 24.867817 9.0739031 24.872859 9.0783784 24.878906 9.0859375 C 24.891379 9.1010556 24.90614 9.1237461 24.923828 9.15625 C 24.9586 9.2197461 25.002177 9.315548 25.050781 9.4414062 C 25.14183 9.6772488 25.253595 10.027378 25.339844 10.474609 C 25.487926 11.238338 25.585304 12.429808 25.167969 13.666016 C 24.974759 14.236649 24.773018 14.87738 24.632812 15.533203 C 24.503061 16.146129 24.40775 16.809031 24.474609 17.457031 C 24.493129 17.631267 24.523787 17.807643 24.570312 17.978516 C 24.67561 18.364746 24.85334 18.711151 25.113281 18.972656 C 25.600821 19.489204 26.36355 19.695216 27.041016 19.783203 C 27.858705 19.876557 28.563609 19.852399 29.171875 19.609375 C 29.649951 19.42191 30.00851 19.101764 30.234375 18.767578 C 30.477777 18.410791 30.603397 18.007862 30.673828 17.734375 C 30.711245 17.588863 30.751906 17.396871 30.771484 17.310547 C 30.810565 17.137822 30.840164 17.045553 30.867188 17.052734 C 30.876636 17.055115 30.888545 17.149983 30.884766 17.324219 C 30.883167 17.431935 30.87424 17.592775 30.851562 17.767578 C 30.814145 18.062003 30.721854 18.497522 30.476562 18.919922 C 30.244575 19.315525 29.856586 19.705275 29.3125 19.945312 C 28.635178 20.240116 27.853061 20.304041 26.994141 20.214844 C 26.925656 20.207285 26.855418 20.200792 26.785156 20.189453 C 26.793471 20.219689 26.801854 20.24692 26.810547 20.283203 C 26.85987 20.488431 26.915106 20.785102 26.970703 21.162109 C 27.080158 21.904446 27.183813 22.934138 27.208984 24.144531 C 27.220701 24.697174 27.216161 25.283923 27.185547 25.892578 C 27.14813 26.633668 27.076808 27.328399 26.974609 27.978516 C 26.793683 29.1349 26.537489 30.014315 26.267578 30.683594 C 26.037103 31.255021 25.83238 31.584901 25.763672 31.636719 L 25.597656 31.996094 L 29.769531 31.996094 C 31.005493 31.996094 32 31.001568 32 29.765625 L 32 2.2265625 C 32 0.99058141 31.005493 -0.00390625 29.769531 -0.00390625 z M 5.7988281 10.8125 L 4.7285156 19.947266 C 4.6905137 20.222793 4.5725656 20.442004 4.3730469 20.603516 C 4.1830306 20.765027 3.9554764 20.845703 3.6894531 20.845703 L 3.4609375 20.845703 L 3.4609375 20.988281 L 6.2265625 20.988281 L 6.2265625 20.859375 L 5.9980469 20.859375 C 5.8460318 20.859375 5.7116644 20.797293 5.5976562 20.673828 C 5.4836229 20.540764 5.4360545 20.398031 5.4550781 20.246094 L 6.0683594 13.277344 L 9.7167969 21.1875 L 9.859375 21.1875 C 9.9163796 20.797957 10.077727 20.313928 10.34375 19.734375 L 13.337891 13.078125 L 13.978516 20.246094 C 13.997514 20.398056 13.949946 20.540789 13.835938 20.673828 C 13.721928 20.797293 13.583387 20.859375 13.421875 20.859375 L 13.208984 20.859375 L 13.208984 20.988281 L 16.300781 20.988281 L 16.300781 20.845703 L 16.072266 20.845703 C 15.90125 20.845703 15.746026 20.812613 15.603516 20.746094 C 15.270987 20.594081 15.080707 20.32731 15.033203 19.947266 L 13.935547 10.8125 L 13.806641 10.8125 L 9.9160156 19.40625 L 5.9414062 10.8125 L 5.7988281 10.8125 z M 27.046875 16.578125 L 27.046875 16.582031 C 27.051788 16.583203 27.056011 16.585875 27.060547 16.589844 C 27.064145 16.593019 27.066911 16.597783 27.070312 16.601562 C 27.076738 16.609122 27.082977 16.623176 27.087891 16.638672 C 27.096961 16.668908 27.104525 16.709813 27.111328 16.757812 C 27.123045 16.837938 27.134608 16.960894 27.166016 17.064453 C 27.18189 17.113587 27.201908 17.163189 27.228516 17.207031 C 27.251571 17.244827 27.278811 17.276907 27.308594 17.298828 C 27.467485 17.448497 27.744363 17.429196 27.753906 17.496094 C 27.753963 17.496396 27.543636 17.760855 27.148438 17.525391 C 27.084488 17.481926 27.02915 17.425517 26.986328 17.359375 C 26.936401 17.282273 26.908314 17.199708 26.896484 17.121094 C 26.870784 16.961976 26.894351 16.824592 26.925781 16.734375 C 26.943545 16.682595 26.965881 16.643644 26.986328 16.617188 C 26.996911 16.602069 27.007373 16.593497 27.017578 16.585938 C 27.022869 16.582725 27.026715 16.583858 27.03125 16.580078 C 27.036541 16.578869 27.041962 16.576916 27.046875 16.578125 z M 30.548828 21.414062 C 30.644223 21.429181 30.593053 22.398838 30.439453 23.783203 C 30.418288 24.312904 30.408961 24.884505 30.419922 25.505859 C 30.460627 27.747837 30.788068 29.557591 30.658203 29.585938 C 30.53208 29.612394 29.98071 27.828731 29.939453 25.503906 C 29.928115 24.868719 29.954987 24.275125 30.005859 23.738281 C 30.237166 22.350968 30.453376 21.400834 30.548828 21.414062 z "
       style="fill:#ffffff;stroke:none;stroke-width:0.105832px;stroke-linecap:butt;stroke-linejoin:miter;stroke-opacity:1"
       id="path1273" />
  </g>
</svg>
