<?xml version="1.0" encoding="UTF-8" standalone="no"?>
<svg
   xmlns:dc="http://purl.org/dc/elements/1.1/"
   xmlns:cc="http://creativecommons.org/ns#"
   xmlns:rdf="http://www.w3.org/1999/02/22-rdf-syntax-ns#"
   xmlns:svg="http://www.w3.org/2000/svg"
   xmlns="http://www.w3.org/2000/svg"
   xmlns:xlink="http://www.w3.org/1999/xlink"
   xmlns:sodipodi="http://sodipodi.sourceforge.net/DTD/sodipodi-0.dtd"
   xmlns:inkscape="http://www.inkscape.org/namespaces/inkscape"
   sodipodi:docname="new.svg"
   inkscape:version="1.1-dev (2c50571925, 2020-02-08)"
   id="svg394"
   version="1.1"
   viewBox="0 0 8.4666653 8.4666405"
   height="8.4666405mm"
   width="8.4666653mm">
  <defs
     id="defs388">
    <radialGradient
       inkscape:collect="always"
       xlink:href="#linearGradient999"
       id="radialGradient1403"
       gradientUnits="userSpaceOnUse"
       gradientTransform="matrix(0.10583301,0,0,0.10583301,47.2534,91.37223)"
       cx="-470.15863"
       cy="120.1164"
       fx="-470.15863"
       fy="120.1164"
       r="40" />
    <linearGradient
       inkscape:collect="always"
       id="linearGradient999">
      <stop
         style="stop-color:#aa0000;stop-opacity:1"
         offset="0"
         id="stop995" />
      <stop
         style="stop-color:#d40000;stop-opacity:1"
         offset="1"
         id="stop997" />
    </linearGradient>
  </defs>
  <sodipodi:namedview
     inkscape:window-maximized="1"
     inkscape:window-y="32"
     inkscape:window-x="0"
     inkscape:window-height="712"
     inkscape:window-width="1366"
     showgrid="false"
     inkscape:current-layer="layer1"
     inkscape:document-units="px"
     inkscape:cy="15.915638"
     inkscape:cx="44.535936"
     inkscape:zoom="7.9195959"
     inkscape:pageshadow="2"
     inkscape:pageopacity="0.0"
     borderopacity="1.0"
     bordercolor="#666666"
     pagecolor="#ffffff"
     id="base" />
  <metadata
     id="metadata391">
    <rdf:RDF>
      <cc:Work
         rdf:about="">
        <dc:format>image/svg+xml</dc:format>
        <dc:type
           rdf:resource="http://purl.org/dc/dcmitype/StillImage" />
        <dc:title></dc:title>
      </cc:Work>
    </rdf:RDF>
  </metadata>
  <g
     transform="translate(6.7382172,-99.85119)"
     id="layer1"
     inkscape:groupmode="layer"
     inkscape:label="Capa 1">
    <path
       inkscape:connector-curvature="0"
       id="rect1387"
       style="opacity:1;fill:url(#radialGradient1403);fill-opacity:1;stroke:none;stroke-width:0.0179378;stroke-linecap:round;stroke-linejoin:miter;stroke-miterlimit:4;stroke-dasharray:none;stroke-dashoffset:0;stroke-opacity:1"
       d="m -6.1479362,99.85119 h 7.2860788 c 0.3270155,0 0.5902815,0.26326 0.5902815,0.59028 v 7.28608 c 0,0.32701 -0.263266,0.59028 -0.5902815,0.59028 h -7.2860788 c -0.3270158,0 -0.590281,-0.26327 -0.590281,-0.59028 v -7.28608 c 0,-0.32702 0.2632652,-0.59028 0.590281,-0.59028 z" />
    <path
       transform="matrix(0.26458334,0,0,0.26458334,-6.7382172,99.85119)"
       d="M 25.001953 0.064453125 C 25.51935 1.5495504 25.706952 4.4760413 24.197266 10.384766 C 23.787639 11.987814 23.588614 13.389166 23.5 14.667969 C 23.745363 14.181468 23.99665 13.690955 24.304688 13.171875 C 25.502167 11.153532 26.326798 9.4983436 26.886719 8.1347656 C 26.996531 5.2499657 26.900239 2.2624449 25.001953 0.064453125 z M 28.173828 2.9941406 C 28.497624 4.280276 28.267174 7.1501093 24.601562 13.328125 C 21.733933 18.16112 21.403893 21.743493 21.785156 24.117188 C 22.164705 26.48045 23.24436 27.638271 23.253906 27.648438 C 23.26794 27.655997 24.157469 28.248886 25.326172 28.421875 C 26.504178 28.596111 27.951928 28.351176 29.072266 26.638672 C 29.46787 26.034023 29.635473 25.488877 29.648438 24.976562 L 29.648438 24.953125 L 29.666016 24.9375 C 29.743432 24.879673 29.798828 24.757976 29.798828 24.623047 C 29.798828 24.444653 29.70546 24.299894 29.597656 24.273438 L 29.570312 24.267578 L 29.5625 24.240234 C 29.305537 23.22271 28.511678 22.279925 27.802734 21.201172 C 27.093759 20.122419 26.47217 18.902689 26.580078 17.332031 C 26.720804 15.283716 27.873586 12.811978 28.585938 10.251953 C 29.265773 7.8088448 29.540258 5.2953414 28.173828 2.9941406 z M 7.8769531 3.0742188 L 7.8964844 3.2285156 C 7.9416926 3.5385125 7.9648438 3.8892504 7.9648438 4.2832031 L 7.9648438 9.3125 C 7.9648437 9.4805126 7.9072663 9.6221238 7.7910156 9.7382812 C 7.6747639 9.8481395 7.5345083 9.9023438 7.3730469 9.9023438 L 7.1894531 9.9023438 L 7.1894531 10 L 9.1855469 10 L 9.1855469 9.9023438 L 9.0019531 9.9023438 C 8.8986183 9.9023438 8.8013564 9.8778254 8.7109375 9.8261719 C 8.5171762 9.716364 8.4166066 9.5482814 8.4101562 9.3222656 L 8.4101562 4.4980469 L 13.689453 10.134766 L 13.777344 10.134766 L 13.757812 9.9609375 C 13.712604 9.6250887 13.689453 9.2710607 13.689453 8.8964844 L 13.689453 3.8964844 C 13.695911 3.7350734 13.758747 3.6000926 13.875 3.4902344 C 13.991251 3.3740769 14.129554 3.3164062 14.291016 3.3164062 L 14.464844 3.3164062 L 14.464844 3.21875 L 12.46875 3.21875 L 12.46875 3.3164062 L 12.654297 3.3164062 C 12.815759 3.3164063 12.954062 3.3740769 13.070312 3.4902344 C 13.186573 3.600143 13.247456 3.738439 13.253906 3.90625 L 13.253906 8.7109375 L 7.9746094 3.0742188 L 7.8769531 3.0742188 z M 12.482422 12.527344 C 12.385545 12.566147 12.217478 12.603775 11.978516 12.642578 C 11.746012 12.681381 11.528337 12.701172 11.328125 12.701172 L 8.4902344 12.701172 L 8.5 12.798828 L 8.6171875 12.798828 C 8.7786477 12.798828 8.9169499 12.853032 9.0332031 12.962891 C 9.1494538 13.066273 9.2169517 13.194649 9.2363281 13.349609 L 9.2363281 18.775391 C 9.2298702 18.943302 9.1656799 19.088229 9.0429688 19.210938 C 8.9267168 19.327095 8.7851069 19.386719 8.6171875 19.386719 L 8.4902344 19.386719 L 8.4902344 19.484375 L 12.511719 19.484375 L 13.072266 17.914062 L 12.976562 17.914062 C 12.808644 18.333817 12.597583 18.650116 12.345703 18.863281 C 12.093824 19.076447 11.729878 19.183594 11.251953 19.183594 L 9.8652344 19.183594 L 9.8652344 16.287109 L 11.513672 16.287109 C 11.642841 16.293409 11.74807 16.341184 11.832031 16.431641 C 11.92245 16.521845 11.96875 16.632459 11.96875 16.761719 L 11.96875 16.90625 L 12.064453 16.90625 L 12.064453 15.375 L 11.96875 15.375 L 11.96875 15.511719 C 11.96875 15.647278 11.92245 15.759153 11.832031 15.849609 C 11.741612 15.938806 11.633075 15.988535 11.503906 15.996094 L 9.8652344 15.996094 L 9.8652344 13.001953 L 11.841797 13.001953 C 11.990342 13.008252 12.117368 13.065923 12.220703 13.175781 C 12.330496 13.285614 12.384766 13.419258 12.384766 13.574219 L 12.384766 13.748047 L 12.482422 13.748047 L 12.482422 12.527344 z M 31.140625 12.878906 L 31.140625 12.880859 C 30.034427 12.888418 28.937649 13.090194 27.900391 13.474609 C 27.417369 14.895636 26.992209 16.222342 26.914062 17.359375 C 26.77685 19.356817 27.896254 20.743445 28.845703 22.128906 C 29.265765 22.74187 29.652051 23.352621 29.849609 24.021484 C 30.021684 24.135626 30.124989 24.364564 30.125 24.617188 C 30.125 24.797471 30.071392 24.9689 29.974609 25.095703 C 29.938439 25.641278 29.749129 26.217503 29.353516 26.822266 C 28.168049 28.63436 26.542377 28.943135 25.277344 28.755859 C 24.647764 28.662505 24.107987 28.458698 23.712891 28.275391 C 24.120941 28.79311 24.578028 29.268779 25.083984 29.691406 C 25.128942 29.695186 25.171518 29.701299 25.201172 29.705078 C 25.217808 29.706666 25.230934 29.708795 25.240234 29.708984 C 25.244658 29.709778 25.249437 29.709652 25.251953 29.710938 L 25.255859 29.710938 C 25.3515 29.718497 25.45649 29.726562 25.574219 29.726562 C 25.751998 29.729775 25.955577 29.722085 26.1875 29.699219 C 26.41938 29.676542 26.67927 29.641875 26.966797 29.585938 C 27.25445 29.529623 27.570555 29.453988 27.916016 29.351562 C 28.261455 29.249137 28.635918 29.122009 29.041016 28.962891 C 29.266291 28.87445 29.487888 28.803228 29.705078 28.748047 C 29.922076 28.692488 30.134392 28.651457 30.34375 28.625 C 30.553117 28.598543 30.758081 28.585874 30.958984 28.583984 C 31.020258 28.583191 31.080368 28.587097 31.140625 28.587891 C 31.200897 28.586303 31.260988 28.583191 31.322266 28.583984 C 31.523166 28.585572 31.728161 28.599299 31.9375 28.625 C 31.957985 28.627419 31.979447 28.632939 32 28.636719 L 32 12.923828 C 31.715012 12.897371 31.427824 12.880796 31.140625 12.878906 z M 10.933594 21.873047 L 9.1328125 27.435547 L 7.6601562 22.716797 C 7.6407799 22.652293 7.6308594 22.581513 7.6308594 22.503906 C 7.6308594 22.4263 7.6619779 22.345624 7.7265625 22.261719 C 7.797605 22.171262 7.9014823 22.125 8.0371094 22.125 L 8.125 22.125 L 8.125 22.029297 L 5.9746094 22.029297 L 5.9746094 22.125 L 6.0507812 22.125 C 6.2187004 22.125 6.3834605 22.177943 6.5449219 22.28125 C 6.7063808 22.378107 6.8267939 22.523033 6.9042969 22.716797 L 9.1035156 28.925781 L 9.1894531 28.925781 C 9.202369 28.609309 9.2718201 28.251991 9.3945312 27.851562 L 10.867188 23.384766 L 12.841797 28.925781 L 12.929688 28.925781 C 12.942603 28.615759 13.013409 28.258441 13.142578 27.851562 L 14.751953 22.726562 C 14.797161 22.591003 14.871275 22.477175 14.974609 22.386719 C 15.155447 22.212357 15.364554 22.125 15.603516 22.125 L 15.681641 22.125 L 15.681641 22.03125 L 13.773438 22.03125 L 13.773438 22.126953 L 13.859375 22.126953 C 13.995002 22.126953 14.095572 22.170001 14.160156 22.253906 C 14.224741 22.337812 14.257813 22.418487 14.257812 22.496094 C 14.257812 22.567149 14.247892 22.637929 14.228516 22.708984 L 12.929688 27.242188 L 11.021484 21.884766 L 10.933594 21.873047 z M 30.960938 28.923828 C 30.771995 28.925453 30.58005 28.937882 30.384766 28.960938 C 30.189262 28.987394 29.990658 29.024014 29.787109 29.076172 C 29.583676 29.128329 29.376798 29.193816 29.164062 29.277344 C 28.750309 29.439863 28.364941 29.572437 28.009766 29.677734 C 27.654537 29.782805 27.327714 29.861717 27.029297 29.919922 C 26.730848 29.978127 26.460255 30.015188 26.216797 30.037109 C 25.973381 30.059787 25.75869 30.06628 25.568359 30.0625 C 25.558931 30.0625 25.551953 30.0625 25.542969 30.0625 C 26.96909 31.118878 28.65676 31.759617 30.421875 31.904297 C 30.686064 31.824171 30.928429 31.69484 31.140625 31.529297 L 31.140625 31.527344 C 31.66324 31.11976 32 30.486621 32 29.769531 L 32 28.978516 C 31.965569 28.974736 31.930685 28.96667 31.896484 28.962891 C 31.701253 28.940213 31.509296 28.927608 31.320312 28.923828 L 31.257812 28.923828 C 31.218653 28.923828 31.179581 28.924988 31.140625 28.925781 C 31.101666 28.924156 31.062522 28.924622 31.023438 28.923828 L 30.960938 28.923828 z "
       style="font-style:normal;font-variant:normal;font-weight:normal;font-stretch:normal;font-size:17.3488px;line-height:1.25;font-family:Cinzel;-inkscape-font-specification:Cinzel;font-variant-ligatures:normal;font-variant-caps:normal;font-variant-numeric:normal;font-feature-settings:normal;text-align:start;letter-spacing:0px;word-spacing:0px;writing-mode:lr-tb;text-anchor:start;fill:#ffffff;fill-opacity:1;stroke:none;stroke-width:0.45411"
       id="path1391" />
  </g>
</svg>
