<?xml version="1.0" encoding="UTF-8" standalone="no"?>
<svg
   xmlns:dc="http://purl.org/dc/elements/1.1/"
   xmlns:cc="http://creativecommons.org/ns#"
   xmlns:rdf="http://www.w3.org/1999/02/22-rdf-syntax-ns#"
   xmlns:svg="http://www.w3.org/2000/svg"
   xmlns="http://www.w3.org/2000/svg"
   xmlns:sodipodi="http://sodipodi.sourceforge.net/DTD/sodipodi-0.dtd"
   xmlns:inkscape="http://www.inkscape.org/namespaces/inkscape"
   sodipodi:docname="noticias.svg"
   inkscape:version="1.0beta2 (2b71d25d45, 2019-12-03)"
   id="svg270"
   version="1.1"
   viewBox="0 0 8.467 8.467"
   height="8.467mm"
   width="8.467mm">
  <defs
     id="defs264" />
  <sodipodi:namedview
     inkscape:window-maximized="1"
     inkscape:window-y="0"
     inkscape:window-x="0"
     inkscape:window-height="731"
     inkscape:window-width="1366"
     showgrid="false"
     inkscape:document-rotation="0"
     inkscape:current-layer="layer1"
     inkscape:document-units="mm"
     inkscape:cy="192.91507"
     inkscape:cx="-54.212106"
     inkscape:zoom="0.7"
     inkscape:pageshadow="2"
     inkscape:pageopacity="0.0"
     borderopacity="1.0"
     bordercolor="#666666"
     pagecolor="#ffffff"
     id="base" />
  <metadata
     id="metadata267">
    <rdf:RDF>
      <cc:Work
         rdf:about="">
        <dc:format>image/svg+xml</dc:format>
        <dc:type
           rdf:resource="http://purl.org/dc/dcmitype/StillImage" />
        <dc:title></dc:title>
      </cc:Work>
    </rdf:RDF>
  </metadata>
  <g
     transform="translate(-31.815334,-114.9701)"
     id="layer1"
     inkscape:groupmode="layer"
     inkscape:label="Layer 1">
    <path
       inkscape:connector-curvature="0"
       id="path1441"
       style="opacity:1;fill:#ffffff;fill-opacity:1;stroke:none;stroke-width:0.0179385;stroke-linecap:round;stroke-linejoin:miter;stroke-miterlimit:4;stroke-dasharray:none;stroke-dashoffset:0;stroke-opacity:1"
       d="m 32.405634,114.9701 c -0.327027,0 -0.5903,0.26327 -0.5903,0.5903 v 7.2864 c 0,0.32703 0.263273,0.5903 0.5903,0.5903 h 7.2864 c 0.327029,0 0.5903,-0.26327 0.5903,-0.5903 v -7.2864 c 0,-0.32703 -0.263271,-0.5903 -0.5903,-0.5903 z m 3.719934,0.66649 a 0.1587733,0.1587733 0 0 1 2.22e-4,0 h 3.360329 a 0.1587733,0.1587733 0 1 1 0,0.31754 H 36.12579 a 0.15877333,0.15877333 0 1 1 -2.22e-4,-0.31754 z m -3.037313,5e-5 c 0.317697,0.36785 0.333629,0.86763 0.31525,1.35042 -0.09371,0.2282 -0.231503,0.50542 -0.431909,0.8432 -0.05155,0.0869 -0.09359,0.16897 -0.134654,0.25039 0.01483,-0.21402 0.048,-0.44863 0.11655,-0.71692 0.25266,-0.98887 0.221354,-1.47854 0.134763,-1.72709 z m 2.054647,0 c -0.08659,0.24855 -0.117842,0.73822 0.134817,1.72709 0.06855,0.26829 0.101665,0.5029 0.116496,0.71692 -0.04106,-0.0814 -0.08311,-0.16351 -0.134654,-0.25039 -0.20041,-0.33778 -0.338203,-0.615 -0.431909,-0.8432 -0.01838,-0.48279 -0.0025,-0.98257 0.31525,-1.35042 z m -1.523743,0.49011 c 0.228858,0.38519 0.182658,0.8062 0.06886,1.21516 -0.119218,0.42844 -0.312206,0.84212 -0.335759,1.18492 -0.01806,0.26286 0.08595,0.46681 0.204606,0.64735 0.118647,0.18053 0.251679,0.33834 0.294685,0.50864 l 0.0011,0.005 0.0046,0.001 c 0.01804,0.004 0.0338,0.0286 0.0338,0.0584 0,0.0226 -0.0093,0.043 -0.02226,0.0527 l -0.0031,0.002 -1.06e-4,0.004 c -0.0022,0.0857 -0.03011,0.17691 -0.09631,0.27811 -0.187498,0.28661 -0.429687,0.32785 -0.626835,0.29868 -0.195593,-0.029 -0.344676,-0.12784 -0.347026,-0.12941 -0.0016,-0.002 -0.182323,-0.19555 -0.245844,-0.59106 -0.06381,-0.39726 -0.0084,-0.9969 0.471561,-1.80574 0.61347,-1.03394 0.652148,-1.51431 0.597957,-1.72955 z m 0.992839,0 h 5.6e-5 c -0.0542,0.21524 -0.01557,0.69561 0.597902,1.72955 0.479922,0.80884 0.535418,1.40848 0.471617,1.80574 -0.06352,0.3955 -0.244249,0.58936 -0.245844,0.59106 -0.0023,0.002 -0.151433,0.10046 -0.347027,0.12941 -0.197148,0.0292 -0.439391,-0.0121 -0.626889,-0.29868 -0.06621,-0.1012 -0.09414,-0.19237 -0.09631,-0.27812 l -1.06e-4,-0.004 -0.0031,-0.002 c -0.01295,-0.01 -0.0222,-0.0301 -0.0222,-0.0527 0,-0.0299 0.01576,-0.054 0.0338,-0.0584 l 0.0046,-10e-4 0.0011,-0.005 c 0.04301,-0.1703 0.17598,-0.32811 0.29463,-0.50864 0.118654,-0.18054 0.22272,-0.38449 0.204661,-0.64735 -0.02355,-0.3428 -0.21659,-0.75648 -0.335814,-1.18492 -0.113804,-0.40896 -0.16,-0.82997 0.06886,-1.21516 z m 1.513789,0.49174 h 3.360328 a 0.158775,0.158775 0 1 1 0,0.31755 h -3.360328 a 0.158775,0.158775 0 0 1 0,-0.31755 z m -0.0055,0.98184 a 0.15877155,0.15877155 0 0 1 0.0055,6e-5 h 3.360328 a 0.15877155,0.15877155 0 1 1 0,0.31749 h -3.360328 a 0.15879769,0.15879769 0 1 1 -0.0055,-0.31754 z m -2.004657,0.18104 c 0.185129,0.001 0.36857,0.035 0.54217,0.0993 0.08083,0.23782 0.152041,0.45962 0.165118,0.64992 0.02296,0.33428 -0.164226,0.56654 -0.323125,0.7984 -0.0703,0.10259 -0.135002,0.20479 -0.168071,0.31673 -0.0288,0.0191 -0.04616,0.0575 -0.04616,0.0998 0,0.0302 0.0091,0.0589 0.02527,0.0801 0.0061,0.0913 0.03782,0.18773 0.104026,0.28894 0.198399,0.30326 0.470307,0.35479 0.68202,0.32345 0.105366,-0.0156 0.195856,-0.0498 0.261979,-0.0804 -0.0683,0.0866 -0.145042,0.16625 -0.229711,0.23698 -0.0075,9.5e-4 -0.01462,0.002 -0.01958,0.003 -0.0028,4.2e-4 -0.005,6.3e-4 -0.0066,8.4e-4 -7.41e-4,1.1e-4 -0.0014,2.2e-4 -0.0018,2.2e-4 h -1.17e-4 l -4.34e-4,5e-5 c -0.016,0.001 -0.03362,0.003 -0.05333,0.003 -0.02975,5.3e-4 -0.06395,-6.4e-4 -0.102768,-0.004 -0.03881,-0.004 -0.08221,-0.01 -0.130333,-0.0189 -0.04814,-0.009 -0.101017,-0.0222 -0.158828,-0.0393 -0.05781,-0.0171 -0.12062,-0.0385 -0.188417,-0.0652 -0.0377,-0.0148 -0.07469,-0.0267 -0.111026,-0.036 -0.03632,-0.009 -0.07194,-0.016 -0.10698,-0.0204 -0.03503,-0.004 -0.06936,-0.006 -0.102986,-0.007 -0.01026,-1.1e-4 -0.02032,2.1e-4 -0.03041,4.2e-4 v 6e-5 c -0.01009,-2.2e-4 -0.02021,-5.3e-4 -0.03046,-4.3e-4 -0.03362,3.2e-4 -0.06789,0.002 -0.102932,0.007 -0.03504,0.004 -0.07072,0.0111 -0.107034,0.0204 -0.03635,0.009 -0.07333,0.0212 -0.111027,0.036 -0.0678,0.0267 -0.130604,0.0481 -0.188417,0.0652 -0.05781,0.0171 -0.110686,0.0299 -0.158828,0.0393 -0.04812,0.009 -0.09153,0.0154 -0.130333,0.0189 -0.03881,0.004 -0.07296,0.005 -0.102713,0.004 -0.0197,-3.2e-4 -0.03732,-10e-4 -0.05333,-0.003 l -3.81e-4,-5e-5 h -1.06e-4 c -4.24e-4,-1.1e-4 -0.0011,-1.1e-4 -0.0018,-2.2e-4 -0.0016,-2.1e-4 -0.0038,-5.3e-4 -0.0066,-8.4e-4 -0.005,-6.4e-4 -0.01206,-0.002 -0.01958,-0.003 -0.08467,-0.0707 -0.161419,-0.15029 -0.22971,-0.23693 0.06612,0.0306 0.156613,0.0648 0.261979,0.0804 0.211712,0.0313 0.483623,-0.0202 0.68202,-0.32346 0.06621,-0.10121 0.09803,-0.19763 0.10408,-0.28894 0.0162,-0.0212 0.02527,-0.0499 0.02527,-0.0801 -3e-6,-0.0423 -0.01742,-0.0807 -0.04621,-0.0998 -0.03306,-0.11194 -0.09777,-0.21414 -0.168071,-0.31673 -0.1589,-0.23186 -0.34609,-0.46407 -0.323126,-0.79835 0.01308,-0.1903 0.08428,-0.41215 0.165118,-0.64997 0.173594,-0.0644 0.357094,-0.0979 0.542225,-0.0993 z m 2.010181,0.80108 h 3.360329 a 0.158775,0.158775 0 1 1 0,0.31755 h -3.360329 a 0.158775,0.158775 0 0 1 0,-0.31755 z m 0,0.98191 h 3.360329 a 0.15877346,0.15877346 0 0 1 0,0.31754 h -3.360329 a 0.15877346,0.15877346 0 0 1 0,-0.31754 z m -2.040316,0.90193 v 6e-5 h 5.6e-5 5.5e-5 0.01039 c 0.0065,1.1e-4 0.01306,2.1e-4 0.01958,4.2e-4 v 2.2e-4 l 5.6e-5,-1.1e-4 c 0.0065,-2.1e-4 0.01303,-4.2e-4 0.01958,-4.2e-4 h 0.01045 5.6e-5 c 0.03163,3.1e-4 0.06364,0.002 0.09631,0.006 0.03272,0.004 0.06602,0.0104 0.100088,0.0191 0.03405,0.009 0.06886,0.0199 0.104463,0.0339 0.06924,0.0272 0.133515,0.0492 0.192957,0.0668 0.05945,0.0176 0.114135,0.0308 0.164078,0.0405 0.04995,0.01 0.09522,0.016 0.135967,0.0198 0.04074,0.004 0.07693,0.005 0.108784,0.004 0.0016,0 0.0027,-2.2e-4 0.0042,-2.2e-4 -0.270882,0.20066 -0.598318,0.31175 -0.936889,0.3135 l -5.6e-5,-5e-5 c -0.33857,-0.002 -0.666001,-0.11284 -0.936888,-0.3135 0.0015,0 0.0026,2.1e-4 0.0042,2.1e-4 0.03185,5.3e-4 0.06799,-6.3e-4 0.10873,-0.004 0.04074,-0.004 0.08602,-0.01 0.135966,-0.0198 0.04994,-0.01 0.104629,-0.0229 0.164078,-0.0405 0.05944,-0.0176 0.123712,-0.0396 0.192957,-0.0668 0.0356,-0.014 0.07042,-0.0251 0.104463,-0.0339 0.03407,-0.009 0.06737,-0.015 0.100088,-0.0191 0.03268,-0.004 0.06469,-0.006 0.09631,-0.006 z m 2.034792,0.0799 a 0.15877155,0.15877155 0 0 1 0.0055,6e-5 h 3.360328 a 0.15877155,0.15877155 0 1 1 0,0.31749 h -3.360328 a 0.15879881,0.15879881 0 1 1 -0.0055,-0.31755 z m -3.436789,0.9819 a 0.15877155,0.15877155 0 0 1 0.0055,6e-5 h 6.719619 a 0.15877155,0.15877155 0 1 1 0,0.31749 h -6.719618 a 0.15879881,0.15879881 0 1 1 -0.0055,-0.31755 z m 0,0.9819 a 0.15877155,0.15877155 0 0 1 0.0055,6e-5 h 6.719619 a 0.15877155,0.15877155 0 1 1 0,0.31749 h -6.719618 a 0.15879881,0.15879881 0 1 1 -0.0055,-0.31755 z" />
  </g>
</svg>
