<?xml version="1.0" encoding="UTF-8" standalone="no"?>
<svg
   xmlns:dc="http://purl.org/dc/elements/1.1/"
   xmlns:cc="http://creativecommons.org/ns#"
   xmlns:rdf="http://www.w3.org/1999/02/22-rdf-syntax-ns#"
   xmlns:svg="http://www.w3.org/2000/svg"
   xmlns="http://www.w3.org/2000/svg"
   xmlns:xlink="http://www.w3.org/1999/xlink"
   xmlns:sodipodi="http://sodipodi.sourceforge.net/DTD/sodipodi-0.dtd"
   xmlns:inkscape="http://www.inkscape.org/namespaces/inkscape"
   sodipodi:docname="promo.svg"
   inkscape:version="1.1-dev (2c50571925, 2020-02-08)"
   id="svg394"
   version="1.1"
   viewBox="0 0 8.4666653 8.4666405"
   height="8.4666405mm"
   width="8.4666653mm">
  <defs
     id="defs388">
    <radialGradient
       inkscape:collect="always"
       xlink:href="#linearGradient999"
       id="radialGradient1485"
       gradientUnits="userSpaceOnUse"
       gradientTransform="matrix(0.10583333,0,0,0.10583333,47.253573,91.37219)"
       cx="-470.15863"
       cy="120.1164"
       fx="-470.15863"
       fy="120.1164"
       r="40" />
    <linearGradient
       inkscape:collect="always"
       id="linearGradient999">
      <stop
         style="stop-color:#aa0000;stop-opacity:1"
         offset="0"
         id="stop995" />
      <stop
         style="stop-color:#d40000;stop-opacity:1"
         offset="1"
         id="stop997" />
    </linearGradient>
  </defs>
  <sodipodi:namedview
     inkscape:window-maximized="1"
     inkscape:window-y="32"
     inkscape:window-x="0"
     inkscape:window-height="712"
     inkscape:window-width="1366"
     showgrid="false"
     inkscape:current-layer="layer1"
     inkscape:document-units="px"
     inkscape:cy="16.353645"
     inkscape:cx="18.108378"
     inkscape:zoom="11.2"
     inkscape:pageshadow="2"
     inkscape:pageopacity="0.0"
     borderopacity="1.0"
     bordercolor="#666666"
     pagecolor="#ffffff"
     id="base" />
  <metadata
     id="metadata391">
    <rdf:RDF>
      <cc:Work
         rdf:about="">
        <dc:format>image/svg+xml</dc:format>
        <dc:type
           rdf:resource="http://purl.org/dc/dcmitype/StillImage" />
        <dc:title></dc:title>
      </cc:Work>
    </rdf:RDF>
  </metadata>
  <g
     transform="translate(6.7382172,-99.85119)"
     id="layer1"
     inkscape:groupmode="layer"
     inkscape:label="Capa 1">
    <rect
       ry="0.5902828"
       y="99.851173"
       x="-6.7382183"
       height="8.4666672"
       width="8.4666672"
       id="rect1439"
       style="opacity:1;fill:url(#radialGradient1485);fill-opacity:1;stroke:none;stroke-width:0.0179379;stroke-linecap:round;stroke-linejoin:miter;stroke-miterlimit:4;stroke-dasharray:none;stroke-dashoffset:0;stroke-opacity:1" />
    <path
       inkscape:connector-curvature="0"
       id="path1463"
       d="m -5.3168027,100.37196 c -0.120666,0 -0.21778,0.0972 -0.21778,0.21783 v 6.98945 c 0,0.12066 0.09711,0.21783 0.21778,0.21783 h 5.62326099 c 0.120668,0 0.217834,-0.0972 0.217834,-0.21783 v -5.40483 c 0.0105,-0.15751 -0.147009,-0.25716 -0.147009,-0.25716 l -1.76410999,-1.39746 c -0.09545,-0.0738 -0.188177,-0.14783 -0.308839,-0.14783 z m 1.664297,0.73237 c 0.355034,0.41106 0.372801,0.96956 0.352264,1.50908 -0.104718,0.25501 -0.258637,0.56481 -0.482592,0.94227 -0.0576,0.0971 -0.104679,0.18876 -0.150563,0.27975 0.01657,-0.23917 0.05367,-0.50126 0.130272,-0.80106 0.282348,-1.10505 0.24738,-1.6523 0.150619,-1.93004 z m 2.68051099,0.38404 a 0.21001301,0.21001301 0 0 1 0.210014,0.21001 0.21001301,0.21001301 0 0 1 -0.210014,0.21001 0.21001301,0.21001301 0 0 1 -0.21001199,-0.21001 0.21001301,0.21001301 0 0 1 0.21001199,-0.21001 z m -2.08722399,0.16374 c 0.255718,0.43043 0.204063,0.90087 0.0769,1.35787 -0.133226,0.47877 -0.348857,0.94104 -0.375178,1.32412 -0.02018,0.29374 0.09607,0.52159 0.228662,0.72334 0.132594,0.20175 0.28118,0.37815 0.329239,0.56846 l 0.0013,0.005 0.0051,0.001 c 0.02016,0.005 0.03779,0.0318 0.03779,0.0652 0,0.0253 -0.01035,0.0481 -0.02483,0.0589 l -0.0034,0.003 v 0.004 c -0.0024,0.0958 -0.03359,0.19766 -0.107578,0.31075 -0.209525,0.32028 -0.480227,0.36644 -0.700536,0.33383 -0.218573,-0.0324 -0.385189,-0.14284 -0.387812,-0.1446 -0.0018,-0.002 -0.203724,-0.21864 -0.274714,-0.66061 -0.0713,-0.44393 -0.0093,-1.11395 0.527003,-2.01782 0.685435,-1.15523 0.728728,-1.69208 0.668212,-1.93267 z m 0.554457,1.84877 c 2.5e-5,0 0,0 0,0 h 0.251743 0.248788 0.248734 v 6e-5 h 0.08854 l -0.05081,0.60608 c -0.08421,0 -0.161389,0.0202 -0.231561,0.0605 -0.06842,0.0386 -0.121979,0.0921 -0.160573,0.16052 -0.0386,0.0667 -0.05786,0.14036 -0.05786,0.22106 0,0.13158 0.04735,0.24119 0.142086,0.32891 l 0.23424,0.21581 -0.06579,0.8447 c -0.09824,-0.0158 -0.171937,-0.0579 -0.221059,-0.12628 -0.04912,-0.0684 -0.07367,-0.15001 -0.07367,-0.24474 0,-0.0175 8.47e-4,-0.036 0.0026,-0.0553 h -0.02368 c -0.02632,0.079 -0.03949,0.15351 -0.03949,0.22369 0,0.0702 0.0035,0.11752 0.01056,0.14208 v 6e-5 c 0.07017,0.0737 0.18333,0.11929 0.339468,0.13683 l -0.04944,0.56398 c -0.06179,-0.0186 -0.128171,-0.0413 -0.200002,-0.0696 -0.04213,-0.0166 -0.08348,-0.0299 -0.124096,-0.0403 -0.04058,-0.0104 -0.08045,-0.0178 -0.119608,-0.0228 -0.03913,-0.005 -0.07735,-0.007 -0.114906,-0.007 v 0 c -0.01144,-1.1e-4 -0.02271,3.1e-4 -0.03396,5.3e-4 v 0 0.0626 c 0.0073,-3.2e-4 0.01451,-4.3e-4 0.02182,-5.3e-4 h 0.01165 v 0 5e-5 c 0.03534,3.2e-4 0.07117,0.002 0.107687,0.007 0.03657,0.005 0.07378,0.0116 0.111844,0.0213 0.03805,0.01 0.07698,0.0222 0.116764,0.0378 0.07738,0.0304 0.149225,0.0551 0.215647,0.0747 0.01993,0.006 0.03841,0.0105 0.05737,0.0155 l 0.02138,0.0196 0.0012,-0.0134 c 0.03606,0.009 0.07088,0.0173 0.103365,0.0236 0.03811,0.007 0.07296,0.0126 0.106264,0.0167 l 0.01531,0.007 v -0.005 c 0.01005,0.001 0.0208,0.003 0.03041,0.004 0.03846,0.004 0.07248,0.005 0.103806,0.005 v 6e-5 c 9.52e-4,2e-5 0.0022,-6e-5 0.0031,-6e-5 0.0047,0 0.01002,3.2e-4 0.01455,2.1e-4 3.18e-4,-2.1e-4 3.18e-4,-2.1e-4 5.29e-4,-3.1e-4 0.03124,-2e-5 0.06512,-0.001 0.103422,-0.005 0.04553,-0.004 0.09617,-0.0111 0.151985,-0.022 0.05581,-0.0109 0.116835,-0.0257 0.183268,-0.0453 0.06643,-0.0197 0.13826699,-0.0442 0.21564699,-0.0747 0.02581,-0.0101 0.05112,-0.0185 0.07619,-0.0261 v 0.27126 c 0,0.13962 -0.1124,0.25202 -0.252016,0.25202 h -0.38316399 -0.886267 -0.25185 v 0 c -0.378323,-0.002 -0.744197,-0.12613 -1.046893,-0.35035 0.0017,0 0.0029,1.1e-4 0.0047,2.1e-4 0.0356,6.4e-4 0.076,-7.4e-4 0.121521,-0.005 0.04553,-0.004 0.09617,-0.0111 0.151989,-0.022 0.05581,-0.0109 0.116831,-0.0256 0.183268,-0.0453 0.06643,-0.0197 0.138264,-0.0443 0.215644,-0.0747 0.03979,-0.0157 0.07872,-0.0281 0.116767,-0.0379 0.03807,-0.01 0.07527,-0.0167 0.111843,-0.0213 0.03652,-0.005 0.07235,-0.007 0.107686,-0.007 v -5e-5 0 h 0.01165 c 0.0073,2.1e-4 0.0145,3.1e-4 0.02177,5.2e-4 v -0.0626 c -0.01127,-3.1e-4 -0.02261,-6.3e-4 -0.03407,-5.2e-4 -0.03758,3.1e-4 -0.07581,0.003 -0.114959,0.007 -0.03916,0.005 -0.07903,0.0124 -0.119609,0.0228 -0.04061,0.0104 -0.08197,0.0237 -0.124095,0.0403 -0.07576,0.0298 -0.145898,0.0537 -0.210504,0.0729 -0.0646,0.0191 -0.123728,0.0334 -0.177528,0.0439 -0.05377,0.0105 -0.102279,0.0172 -0.145642,0.0212 -0.04338,0.004 -0.08161,0.005 -0.114849,0.005 -0.02202,-4.3e-4 -0.04162,-0.002 -0.0595,-0.003 l -3.18e-4,-6e-5 v 0 c -4.23e-4,-1.1e-4 -0.0011,-1.1e-4 -0.002,-2.1e-4 -0.0017,-2.1e-4 -0.0042,-6.4e-4 -0.0073,-9.5e-4 -0.0055,-6.4e-4 -0.01353,-0.002 -0.02193,-0.003 -0.09462,-0.079 -0.180354,-0.16805 -0.256664,-0.26487 0.07389,0.0343 0.17502,0.0725 0.292762,0.0899 0.236586,0.035 0.540469,-0.0226 0.76217,-0.36151 0.07399,-0.1131 0.109444,-0.22086 0.116219,-0.32289 0.01809,-0.0237 0.02822,-0.0557 0.02822,-0.0894 -5e-6,-0.0473 -0.01945,-0.0902 -0.05163,-0.11157 -0.03695,-0.1251 -0.109193,-0.23927 -0.187755,-0.35391 -0.177564,-0.2591 -0.386737,-0.51861 -0.361068,-0.89217 0.01461,-0.21265 0.09419,-0.46059 0.184525,-0.72635 0.19395,-0.0719 0.398919,-0.10938 0.605756,-0.11092 v -1e-4 z m 0.916183,6e-5 0.222155,5e-5 h 0.191581 0.19158299 c 0.139613,0 0.252016,0.1124 0.252016,0.25202 v 0.52153 2.20175 c -0.03262,0.009 -0.06556,0.0198 -0.09916,0.033 -0.07576,0.0298 -0.145899,0.0538 -0.21050199,0.0729 -0.0646,0.0191 -0.123732,0.0334 -0.177528,0.0439 -0.05378,0.0105 -0.102279,0.0172 -0.145644,0.0212 -0.04337,0.004 -0.08057,0.005 -0.11381,0.005 -0.03325,6.3e-4 -0.05671,-8.5e-4 -0.100083,-0.005 -0.01136,-0.001 -0.02408,-0.003 -0.03615,-0.004 l -0.141321,-0.024 c -0.02508,-0.005 -0.05125,-0.0116 -0.07826,-0.0185 l 0.05026,-0.57787 c 0.221049,-0.002 0.373662,-0.0781 0.457871,-0.22893 0.04035,-0.0737 0.06055,-0.16931 0.06055,-0.28686 0,-0.11754 -0.04387,-0.21665 -0.131589,-0.29735 l -0.302603,-0.28155 0.05524,-0.73685 c 0.04912,0.007 0.09212,0.0219 0.128959,0.0447 0.07719,0.0491 0.115782,0.12282 0.115782,0.22106 h 0.02368 v -0.32372 h -0.09997 c -0.05088,-0.0105 -0.104433,-0.0184 -0.160574,-0.0237 l 0.04846,-0.60865 z m -0.134321,0.68768 -0.05267,0.671 -0.136836,-0.1289 c -0.07193,-0.0649 -0.107848,-0.14122 -0.107848,-0.22894 0,-0.0877 0.0289,-0.16054 0.08679,-0.21843 0.05789,-0.0597 0.128106,-0.0912 0.21056,-0.0947 z m 0.0052,0.97366 0.197378,0.1842 c 0.06842,0.0632 0.102601,0.14475 0.102601,0.24474 0,0.1 -0.03418,0.18333 -0.102601,0.24999 -0.06666,0.0649 -0.149993,0.0991 -0.249991,0.10261 h -0.0079 z"
       style="opacity:1;fill:#ffffff;fill-opacity:1;stroke:none;stroke-width:0.105833;stroke-linecap:round;stroke-linejoin:round;stroke-miterlimit:4;stroke-dasharray:none;stroke-opacity:1" />
  </g>
</svg>
