<?xml version="1.0" encoding="UTF-8" standalone="no"?>
<svg
   xmlns:dc="http://purl.org/dc/elements/1.1/"
   xmlns:cc="http://creativecommons.org/ns#"
   xmlns:rdf="http://www.w3.org/1999/02/22-rdf-syntax-ns#"
   xmlns:svg="http://www.w3.org/2000/svg"
   xmlns="http://www.w3.org/2000/svg"
   xmlns:xlink="http://www.w3.org/1999/xlink"
   xmlns:sodipodi="http://sodipodi.sourceforge.net/DTD/sodipodi-0.dtd"
   xmlns:inkscape="http://www.inkscape.org/namespaces/inkscape"
   sodipodi:docname="trans.svg"
   inkscape:version="1.1-dev (2c50571925, 2020-02-08)"
   id="svg394"
   version="1.1"
   viewBox="0 0 8.4666653 8.4666405"
   height="8.4666405mm"
   width="8.4666653mm">
  <defs
     id="defs388">
    <radialGradient
       inkscape:collect="always"
       xlink:href="#linearGradient999"
       id="radialGradient1367"
       gradientUnits="userSpaceOnUse"
       gradientTransform="matrix(0.10583054,0,0,0.10583054,47.252251,91.372502)"
       cx="-470.15863"
       cy="120.1164"
       fx="-470.15863"
       fy="120.1164"
       r="40" />
    <linearGradient
       inkscape:collect="always"
       id="linearGradient999">
      <stop
         style="stop-color:#aa0000;stop-opacity:1"
         offset="0"
         id="stop995" />
      <stop
         style="stop-color:#d40000;stop-opacity:1"
         offset="1"
         id="stop997" />
    </linearGradient>
  </defs>
  <sodipodi:namedview
     inkscape:window-maximized="1"
     inkscape:window-y="32"
     inkscape:window-x="0"
     inkscape:window-height="712"
     inkscape:window-width="1366"
     showgrid="false"
     inkscape:current-layer="layer1"
     inkscape:document-units="px"
     inkscape:cy="15.915638"
     inkscape:cx="23.385867"
     inkscape:zoom="7.9195959"
     inkscape:pageshadow="2"
     inkscape:pageopacity="0.0"
     borderopacity="1.0"
     bordercolor="#666666"
     pagecolor="#ffffff"
     id="base" />
  <metadata
     id="metadata391">
    <rdf:RDF>
      <cc:Work
         rdf:about="">
        <dc:format>image/svg+xml</dc:format>
        <dc:type
           rdf:resource="http://purl.org/dc/dcmitype/StillImage" />
        <dc:title></dc:title>
      </cc:Work>
    </rdf:RDF>
  </metadata>
  <g
     transform="translate(6.7382172,-99.85119)"
     id="layer1"
     inkscape:groupmode="layer"
     inkscape:label="Capa 1">
    <path
       inkscape:connector-curvature="0"
       id="rect1339"
       style="opacity:1;fill:url(#radialGradient1367);fill-opacity:1;stroke:none;stroke-width:0.0179374;stroke-linecap:round;stroke-linejoin:miter;stroke-miterlimit:4;stroke-dasharray:none;stroke-dashoffset:0;stroke-opacity:1"
       d="m -6.147853,99.851263 h 7.28591 c 0.327008,0 0.590267,0.263257 0.590267,0.590267 v 7.28591 c 0,0.32701 -0.263259,0.59027 -0.590267,0.59027 h -7.28591 c -0.327008,0 -0.590267,-0.26326 -0.590267,-0.59027 v -7.28591 c 0,-0.32701 0.263259,-0.590267 0.590267,-0.590267 z" />
    <path
       transform="matrix(0.26458334,0,0,0.26458334,-6.7382172,99.85119)"
       d="M 29.769531 -0.00390625 L 28.511719 0 L 28.511719 0.001953125 C 28.539309 0.014047613 28.405557 0.46495721 28.136719 1.2851562 C 27.770596 1.9351972 26.962807 2.7344737 25.646484 2.9902344 C 24.557489 3.1988643 23.269624 3.2216067 21.888672 3.4023438 C 21.408487 3.4665957 20.902969 3.556237 20.451172 3.7539062 C 20.078246 3.9130244 19.729633 4.1638499 19.507812 4.5058594 C 19.131372 5.3786279 19.01325 6.3534015 18.943359 7.4160156 C 18.832014 9.0997195 18.884174 10.81736 19.021484 12.662109 C 19.080029 13.448327 19.151853 14.233057 19.224609 14.994141 C 19.410638 16.931602 19.467953 18.746925 19.384766 20.478516 C 19.334007 21.531908 19.220324 22.541293 19.082031 23.474609 C 19.073338 23.526767 19.075353 23.591118 19.074219 23.664062 C 19.073179 23.78085 19.076408 23.899657 19.080078 24.017578 C 19.091417 24.376255 19.112176 24.738749 19.132812 25.080078 C 19.194494 26.099341 19.274797 27.179726 19.333984 27.982422 C 19.420989 29.161861 19.675353 30.050524 19.720703 30.755859 C 19.745648 31.143374 19.762237 31.446373 19.769531 31.65625 C 19.773254 31.766234 19.77487 31.850754 19.773438 31.908203 C 19.767768 31.938439 19.763609 31.961444 19.761719 31.976562 C 19.759719 31.984122 19.760087 31.990361 19.759766 31.994141 L 19.759766 31.998047 L 19.759766 32 L 22.609375 32 L 22.664062 31.421875 C 22.646677 31.21967 22.695125 30.620973 22.701172 29.783203 C 22.709487 28.599191 22.780828 27.709605 22.613281 25.925781 C 22.587203 25.64912 22.480501 25.186879 22.451172 24.900391 C 22.389377 24.296989 22.392001 24.007782 22.339844 23.445312 C 22.274571 22.737558 22.466688 21.711891 22.490234 21.087891 C 22.773623 19.274549 22.782207 18.437224 22.871094 18.378906 L 22.871094 18.371094 C 22.52213 18.110306 22.202275 17.798622 21.929688 17.439453 C 21.818532 17.292807 21.716918 17.13965 21.625 16.982422 C 21.242168 16.323688 21.036994 15.600107 20.966797 14.898438 C 20.798683 13.216094 21.328886 11.709754 21.988281 10.650391 C 22.322467 10.113131 22.561099 9.668297 22.734375 9.2714844 C 22.677002 9.2412482 22.674912 9.1249078 22.675781 8.9707031 C 22.676942 8.7677425 22.677715 8.6508911 22.662109 8.3652344 C 22.656818 8.27188 22.652595 8.1818764 22.648438 8.0957031 C 22.637099 7.9229787 22.625946 7.7645068 22.630859 7.6484375 C 22.633301 7.5890989 22.641005 7.5393704 22.652344 7.5019531 C 22.658013 7.4830555 22.665135 7.4686844 22.673828 7.4550781 C 22.678364 7.4475191 22.682209 7.4432327 22.6875 7.4394531 C 22.693169 7.4356736 22.700228 7.4315139 22.707031 7.4277344 C 22.713834 7.4253155 22.719003 7.4238281 22.726562 7.4238281 C 22.733366 7.4237903 22.740866 7.4257312 22.748047 7.4277344 C 22.763165 7.4315139 22.780132 7.4378802 22.796875 7.4492188 C 22.830135 7.4718959 22.866211 7.5146901 22.902344 7.5683594 C 22.973248 7.6734302 23.042574 7.8300268 23.087891 8.0253906 C 23.092519 8.0431923 23.097722 8.0660505 23.101562 8.0859375 C 23.103362 7.5598651 23.120104 7.2632684 23.152344 7.2617188 C 23.18447 7.2600936 23.229194 7.552874 23.283203 8.0917969 C 23.226888 8.8256677 22.962814 9.6635147 22.294922 10.832031 C 21.708989 11.861537 21.243429 13.295203 21.419922 14.849609 C 21.493131 15.494813 21.684588 16.156298 22.03125 16.746094 C 22.113568 16.88707 22.204757 17.022467 22.304688 17.154297 C 22.634073 17.5883 23.042094 17.949825 23.486328 18.226562 C 24.845246 19.080509 26.516721 18.923024 27.642578 18.400391 C 28.367877 18.061745 28.901695 17.587988 29.255859 17.101562 C 30.043101 16.024435 29.936187 15.089478 29.990234 15.087891 C 29.924319 15.089894 30.339972 15.953045 29.494141 17.263672 C 29.141019 17.80902 28.583423 18.352216 27.808594 18.742188 C 27.111562 19.094817 26.214883 19.312376 25.283203 19.253906 L 25.283203 19.257812 C 25.287361 19.258228 25.291206 19.258771 25.296875 19.261719 C 25.304434 19.269278 25.312817 19.279677 25.322266 19.291016 C 25.341541 19.321252 25.364319 19.366884 25.390625 19.427734 C 25.445466 19.555104 25.511177 19.739664 25.580078 19.988281 C 25.732506 20.538316 25.784192 21.375564 25.884766 22.359375 C 25.977364 23.265441 25.986853 24.393949 25.962891 25.513672 C 25.891269 28.865168 25.326207 30.881594 25.25 31.367188 L 25.158203 31.996094 L 29.769531 31.996094 C 31.005463 31.996094 32 31.00153 32 29.765625 L 32 2.2285156 C 31.999966 0.99257233 31.005463 -0.00390625 29.769531 -0.00390625 z M 5.2890625 10.876953 L 5.2890625 12.673828 L 5.4316406 12.658203 L 5.4316406 12.416016 C 5.4316406 12.188009 5.5081462 11.993543 5.6601562 11.832031 C 5.8216676 11.661701 6.0161243 11.570626 6.2441406 11.560547 L 8.9511719 11.560547 L 8.9511719 20.111328 C 8.9416701 20.348758 8.8465284 20.553523 8.6660156 20.724609 C 8.4950028 20.895696 8.2860798 20.980469 8.0390625 20.980469 L 7.8535156 20.980469 L 7.8535156 21.123047 L 10.974609 21.123047 L 10.974609 20.980469 L 10.789062 20.980469 C 10.542044 20.980469 10.32895 20.895696 10.148438 20.724609 C 9.977424 20.553523 9.8864523 20.344585 9.8769531 20.097656 L 9.8769531 11.560547 L 12.585938 11.560547 C 12.804453 11.56987 12.994738 11.660945 13.15625 11.832031 C 13.317762 11.993518 13.398438 12.187984 13.398438 12.416016 L 13.398438 12.658203 L 13.541016 12.671875 L 13.541016 10.876953 C 13.474511 10.905426 13.284226 10.957109 12.970703 11.033203 C 12.666681 11.099723 12.281939 11.132812 11.816406 11.132812 L 6.9980469 11.132812 C 6.7035259 11.132813 6.3808224 11.105773 6.0292969 11.048828 C 5.6777723 10.991883 5.4315734 10.933898 5.2890625 10.876953 z M 24.302734 14.308594 C 24.315585 14.308178 24.329702 14.308104 24.341797 14.314453 C 24.437192 14.348469 24.470457 14.514122 24.4375 14.695312 C 24.446193 14.71421 24.455395 14.736394 24.464844 14.75 C 24.470513 14.757559 24.476375 14.765752 24.482422 14.769531 C 24.520406 14.87876 24.713226 15.001407 24.689453 15.113281 C 24.675847 15.177911 24.438668 15.362785 24.130859 15.068359 C 24.092951 15.020737 24.061324 14.966408 24.039062 14.908203 C 23.999944 14.806156 23.992732 14.702793 24.007812 14.611328 C 24.100751 14.425375 24.211686 14.311239 24.302734 14.308594 z M 29.169922 21.414062 C 29.265317 21.425401 29.214147 22.398876 29.060547 23.783203 C 29.039382 24.312904 29.030055 24.884505 29.041016 25.505859 C 29.081759 27.7478 29.409161 29.557591 29.279297 29.585938 C 29.153174 29.612394 28.601789 27.826778 28.560547 25.501953 C 28.549208 24.866804 28.575892 24.275163 28.626953 23.738281 C 28.85826 22.351006 29.074477 21.400796 29.169922 21.414062 z M 19.744141 31.958984 L 19.748047 32 L 19.757812 32 C 19.757812 31.997619 19.758051 31.995967 19.757812 31.992188 C 19.756652 31.988597 19.753345 31.984122 19.75 31.976562 C 19.748764 31.97313 19.746105 31.965821 19.744141 31.958984 z "
       style="fill:#ffffff;stroke:none;stroke-width:0.105831px;stroke-linecap:butt;stroke-linejoin:miter;stroke-opacity:1"
       id="path1369" />
  </g>
</svg>
