<?xml version="1.0" encoding="UTF-8" standalone="no"?>
<svg
   xmlns:dc="http://purl.org/dc/elements/1.1/"
   xmlns:cc="http://creativecommons.org/ns#"
   xmlns:rdf="http://www.w3.org/1999/02/22-rdf-syntax-ns#"
   xmlns:svg="http://www.w3.org/2000/svg"
   xmlns="http://www.w3.org/2000/svg"
   xmlns:xlink="http://www.w3.org/1999/xlink"
   xmlns:sodipodi="http://sodipodi.sourceforge.net/DTD/sodipodi-0.dtd"
   xmlns:inkscape="http://www.inkscape.org/namespaces/inkscape"
   sodipodi:docname="video.svg"
   inkscape:version="1.1-dev (2c50571925, 2020-02-08)"
   id="svg394"
   version="1.1"
   viewBox="0 0 8.4666653 8.4666405"
   height="8.4666405mm"
   width="8.4666653mm">
  <defs
     id="defs388">
    <radialGradient
       inkscape:collect="always"
       xlink:href="#linearGradient999"
       id="radialGradient1493"
       gradientUnits="userSpaceOnUse"
       gradientTransform="matrix(0.10583333,0,0,0.10583333,47.253573,91.37219)"
       cx="-470.15863"
       cy="120.1164"
       fx="-470.15863"
       fy="120.1164"
       r="40" />
    <linearGradient
       inkscape:collect="always"
       id="linearGradient999">
      <stop
         style="stop-color:#aa0000;stop-opacity:1"
         offset="0"
         id="stop995" />
      <stop
         style="stop-color:#d40000;stop-opacity:1"
         offset="1"
         id="stop997" />
    </linearGradient>
  </defs>
  <sodipodi:namedview
     inkscape:window-maximized="1"
     inkscape:window-y="32"
     inkscape:window-x="0"
     inkscape:window-height="712"
     inkscape:window-width="1366"
     showgrid="false"
     inkscape:current-layer="layer1"
     inkscape:document-units="px"
     inkscape:cy="16.353645"
     inkscape:cx="18.108378"
     inkscape:zoom="11.2"
     inkscape:pageshadow="2"
     inkscape:pageopacity="0.0"
     borderopacity="1.0"
     bordercolor="#666666"
     pagecolor="#ffffff"
     id="base" />
  <metadata
     id="metadata391">
    <rdf:RDF>
      <cc:Work
         rdf:about="">
        <dc:format>image/svg+xml</dc:format>
        <dc:type
           rdf:resource="http://purl.org/dc/dcmitype/StillImage" />
        <dc:title></dc:title>
      </cc:Work>
    </rdf:RDF>
  </metadata>
  <g
     transform="translate(6.7382172,-99.85119)"
     id="layer1"
     inkscape:groupmode="layer"
     inkscape:label="Capa 1">
    <rect
       ry="0.5902828"
       y="99.851173"
       x="-6.7382183"
       height="8.4666672"
       width="8.4666672"
       id="rect1469"
       style="opacity:1;fill:url(#radialGradient1493);fill-opacity:1;stroke:none;stroke-width:0.0179379;stroke-linecap:round;stroke-linejoin:miter;stroke-miterlimit:4;stroke-dasharray:none;stroke-dashoffset:0;stroke-opacity:1" />
    <path
       transform="matrix(0.26458334,0,0,0.26458334,-6.7382172,99.85119)"
       d="M 22.269531 2.9511719 C 22.240943 2.9625105 22.198423 2.9930112 22.171875 3.0175781 C 22.145328 3.0402553 22.084257 3.0696222 22.033203 3.0839844 C 21.945391 3.1066615 21.937594 3.1039481 21.890625 3.0585938 C 21.862037 3.0283575 21.827151 3.013484 21.804688 3.0195312 C 21.70258 3.0497675 21.416393 3.089468 21.228516 3.1015625 C 20.889518 3.1242397 20.626729 3.2096534 20.273438 3.4160156 C 20.193795 3.460992 20.008542 3.5483979 19.857422 3.6054688 C 19.404065 3.7770593 19.046818 3.9080819 18.779297 4 C 18.313687 4.1613858 17.934344 4.3169786 17.603516 4.4785156 C 17.240012 4.6584211 16.881493 4.8874968 16.777344 5.0039062 C 16.714037 5.077607 16.712448 5.0866522 16.722656 5.2011719 C 16.728779 5.2726049 16.754542 5.3629144 16.785156 5.421875 C 16.91177 5.6690561 17.27585 6.083128 17.892578 6.6855469 C 18.288755 7.0735532 18.395246 7.163135 19.095703 7.7226562 C 19.557228 8.0904043 19.788963 8.3222744 19.880859 8.5019531 C 19.970714 8.6795909 19.967703 8.691225 19.8125 8.7324219 C 19.692012 8.7664376 19.483753 8.8492336 19.498047 8.8613281 C 19.502129 8.8633691 19.609622 8.8426095 19.738281 8.8085938 C 19.866936 8.774578 19.978248 8.7480469 19.984375 8.7480469 C 19.990498 8.7480469 20.014717 8.8038182 20.035156 8.8710938 L 20.070312 8.9960938 L 20.007812 9.0605469 C 19.973116 9.0983422 19.937855 9.152665 19.929688 9.1855469 C 19.921524 9.2195626 19.890096 9.2701037 19.857422 9.2988281 C 19.785947 9.3581667 19.750793 9.4335392 19.777344 9.4785156 C 19.79163 9.5049723 19.794483 9.5006859 19.804688 9.4628906 C 19.816933 9.411867 19.944778 9.3225869 19.957031 9.3554688 C 19.971318 9.3981774 20.089577 9.5922993 20.095703 9.5839844 C 20.099785 9.5802048 20.077695 9.5223537 20.042969 9.4550781 C 19.977621 9.3265742 19.985871 9.3027344 20.085938 9.3027344 C 20.13495 9.3027344 20.140352 9.3143663 20.191406 9.5214844 C 20.240419 9.7176419 20.247959 9.782786 20.25 10.109375 C 20.25 10.31158 20.246445 10.493225 20.238281 10.513672 C 20.230117 10.53257 20.23376 10.573089 20.248047 10.597656 C 20.268456 10.636585 20.266854 10.656071 20.238281 10.708984 C 20.207629 10.770213 20.207718 10.781132 20.236328 10.824219 C 20.273103 10.88129 20.278688 10.948655 20.248047 10.966797 C 20.217395 10.985695 20.225157 11.05784 20.257812 11.070312 C 20.290505 11.081651 20.286775 11.2245 20.25 11.314453 C 20.235713 11.348469 20.206055 11.449488 20.183594 11.539062 C 20.103952 11.845204 19.936311 12.093767 19.470703 12.585938 C 19.309374 12.757528 19.138766 12.952242 19.091797 13.015625 C 18.963142 13.191373 18.841356 13.439863 18.806641 13.609375 C 18.790313 13.691013 18.75311 13.802177 18.726562 13.855469 C 18.697989 13.91065 18.646223 14.049606 18.607422 14.166016 C 18.568621 14.282425 18.468493 14.54399 18.384766 14.748047 C 18.19893 15.19936 18.175071 15.340392 18.191406 15.910156 C 18.205693 16.420695 18.272424 16.725594 18.564453 17.599609 C 18.64614 17.84868 18.742629 18.16405 18.777344 18.298828 C 18.81204 18.433757 18.910325 18.770895 18.996094 19.052734 L 19.152344 19.5625 L 19.105469 19.6875 C 18.950266 20.093875 18.6702 20.975538 18.574219 21.357422 C 18.468025 21.786247 18.465907 21.809021 18.486328 21.933594 C 18.523103 22.146003 18.580832 22.228202 18.966797 22.634766 C 19.164886 22.844907 19.366915 23.065687 19.417969 23.126953 C 19.509864 23.239205 19.508697 23.239523 19.533203 23.474609 C 19.559735 23.738042 19.619207 24.024045 19.796875 24.771484 C 19.950037 25.412719 19.968373 25.514439 20.15625 26.707031 C 20.325747 27.777129 20.32716 27.763944 20.214844 27.9375 C 20.143369 28.045594 19.879279 28.319489 19.736328 28.427734 C 19.57704 28.552459 19.381233 28.654745 19.238281 28.691406 C 19.091246 28.730335 19.012782 28.803128 19.033203 28.884766 C 19.059735 28.989081 19.119033 29.011522 19.255859 28.970703 C 19.290555 28.959365 19.425941 28.940334 19.556641 28.931641 C 19.805783 28.912743 19.856772 28.893749 20.095703 28.753906 C 20.269285 28.651859 20.490029 28.588518 20.71875 28.572266 C 21.023028 28.553368 21.161219 28.461531 21.181641 28.269531 C 21.189804 28.193941 21.182001 28.163669 21.128906 28.082031 C 21.09421 28.02685 21.046166 27.920979 21.017578 27.847656 C 20.968565 27.712727 20.967419 27.710635 20.953125 26.642578 L 20.939453 25.572266 L 21.160156 25.845703 C 21.282685 25.996884 21.495812 26.258223 21.636719 26.427734 C 21.777627 26.599325 21.92409 26.790095 21.962891 26.853516 C 22.09563 27.07613 22.191228 27.410044 22.195312 27.681641 C 22.197355 27.812412 22.188128 27.858772 22.128906 28.003906 C 21.998209 28.334615 21.82744 28.5971 21.619141 28.789062 C 21.519074 28.880905 21.494141 28.915773 21.494141 28.966797 C 21.494141 29.087364 21.62845 29.106961 21.728516 29 C 21.765275 28.961071 21.870994 28.892633 21.962891 28.847656 C 22.156895 28.749766 22.264724 28.655212 22.375 28.496094 C 22.495487 28.318456 22.761508 28.101926 23.035156 27.958984 C 23.296551 27.822165 23.372869 27.733815 23.376953 27.570312 C 23.378995 27.437651 23.318292 27.354125 23.140625 27.244141 C 23.009927 27.162503 22.976395 27.130896 22.890625 26.992188 C 22.837529 26.906392 22.724442 26.728302 22.638672 26.599609 C 22.119966 25.819515 22.056767 25.674157 21.740234 24.546875 C 21.629958 24.152746 21.505598 23.742923 21.466797 23.636719 C 21.425955 23.528624 21.381394 23.387651 21.369141 23.322266 C 21.324213 23.08151 21.228182 22.875271 21.056641 22.644531 L 20.962891 22.519531 L 20.962891 22.316406 C 20.962891 22.206044 20.979678 22.003717 20.998047 21.871094 C 21.059309 21.423862 21.041026 20.849065 20.951172 20.369141 L 20.916016 20.195312 L 21.136719 19.806641 C 21.257206 19.594231 21.507703 19.164104 21.689453 18.849609 C 22.104009 18.136904 22.204533 17.942857 22.306641 17.685547 C 22.398537 17.452728 22.520851 17.071073 22.625 16.695312 C 22.66176 16.554336 22.732417 16.352185 22.777344 16.246094 C 22.883536 15.994755 22.933766 15.793274 22.974609 15.472656 C 22.992989 15.32979 23.013405 15.199846 23.019531 15.183594 C 23.025658 15.168476 23.029388 15.14497 23.027344 15.134766 C 23.025302 15.127207 23.036575 15.104521 23.048828 15.087891 C 23.087629 15.042914 23.247486 15.073417 23.484375 15.166016 C 23.847877 15.313039 23.958507 15.300488 24.238281 15.082031 C 24.828462 14.620513 25.460573 13.958188 26.275391 12.945312 C 26.448973 12.731013 26.675147 12.456429 26.779297 12.335938 C 26.987594 12.097071 26.996634 12.07102 26.939453 11.878906 C 26.923126 11.825993 26.88051 11.673614 26.84375 11.539062 C 26.806975 11.404133 26.721598 11.161285 26.65625 10.998047 C 26.590902 10.834771 26.505598 10.606644 26.466797 10.490234 C 26.387155 10.259683 26.271414 10.015052 26.09375 9.7148438 C 25.934462 9.4453634 25.771845 9.0923528 25.71875 8.9003906 C 25.653402 8.6634143 25.496999 8.2494055 25.341797 7.9042969 C 25.121245 7.4141677 25.003394 7.2384903 24.835938 7.1445312 C 24.744041 7.0953974 24.71131 7.0895292 24.568359 7.0917969 C 24.478505 7.0917969 24.344913 7.1019427 24.273438 7.1132812 C 24.204005 7.1283994 24.139028 7.1325591 24.130859 7.125 C 24.124733 7.1174409 24.158197 7.0779283 24.203125 7.0371094 C 24.370581 6.8859283 24.404925 6.788728 24.345703 6.6191406 C 24.306902 6.5129359 24.270176 6.4765381 24.076172 6.3476562 C 23.931179 6.2516563 23.909182 6.2282489 23.886719 6.1503906 C 23.825454 5.9481859 23.665937 5.7043923 23.578125 5.6757812 C 23.502565 5.6531041 23.394447 5.7408879 23.351562 5.8652344 C 23.314803 5.9755966 23.307171 5.923677 23.339844 5.7910156 C 23.358224 5.72374 23.373047 5.6068406 23.373047 5.53125 L 23.373047 5.3945312 L 23.533203 5.5253906 C 23.774177 5.7275953 23.824564 5.804834 23.90625 6.1132812 L 23.931641 6.2050781 L 23.964844 6.1269531 C 23.985265 6.0819767 24.018641 5.9691102 24.039062 5.875 C 24.057442 5.7808898 24.079722 5.7050781 24.087891 5.7050781 C 24.096058 5.7050781 24.118162 5.7242359 24.140625 5.7480469 C 24.193721 5.8073855 24.195584 6.0998139 24.144531 6.1816406 C 24.097562 6.2489162 24.097651 6.2691467 24.142578 6.234375 C 24.199758 6.1875089 24.251953 6.0475476 24.251953 5.9394531 C 24.251953 5.812839 24.194967 5.6820075 24.113281 5.6230469 C 24.060185 5.5841177 24.051315 5.5620365 24.039062 5.4433594 C 24.020683 5.2615641 23.994235 5.1701642 23.947266 5.1191406 C 23.906423 5.076432 23.906423 5.0761019 23.947266 5.0390625 C 23.994235 4.9963538 23.997964 4.9576582 23.955078 4.9414062 C 23.912193 4.9262881 23.91583 4.8594929 23.964844 4.8164062 C 23.987305 4.7975086 24.005859 4.7719235 24.005859 4.7617188 C 24.005859 4.7503802 24.026275 4.7164123 24.050781 4.6816406 L 24.095703 4.6230469 L 24.03125 4.4902344 C 23.959775 4.3451005 23.882033 4.2905065 23.720703 4.2636719 L 23.634766 4.2480469 L 23.648438 4.078125 C 23.660691 3.9371486 23.657762 3.8959031 23.623047 3.8203125 C 23.602626 3.7711786 23.559929 3.7212667 23.529297 3.703125 C 23.474159 3.6728888 23.468845 3.6756022 23.421875 3.7285156 C 23.395328 3.7625314 23.373047 3.8001543 23.373047 3.8164062 C 23.373047 3.8315244 23.365769 3.8476562 23.353516 3.8476562 C 23.343303 3.8476562 23.332031 3.8395903 23.332031 3.8320312 C 23.332031 3.7931021 23.106008 3.5440982 23.048828 3.5195312 C 23.014113 3.5044131 22.977097 3.4662244 22.964844 3.4375 C 22.938296 3.3740039 22.860009 3.3013994 22.755859 3.2382812 C 22.715016 3.2156041 22.661313 3.154288 22.634766 3.1074219 C 22.551037 2.9585085 22.410351 2.8963687 22.271484 2.9511719 L 22.269531 2.9511719 z M 22.429688 3.0136719 C 22.43173 3.0136719 22.46706 3.0258975 22.505859 3.0410156 L 22.505859 3.0390625 C 22.542619 3.0541806 22.583361 3.0890289 22.597656 3.1113281 C 22.624204 3.1642415 22.624303 3.1641537 22.505859 3.1132812 C 22.452763 3.0906041 22.38042 3.0722656 22.345703 3.0722656 C 22.274228 3.0722656 22.293404 3.038241 22.373047 3.0253906 C 22.401635 3.0216111 22.425603 3.0136719 22.429688 3.0136719 z M 23.476562 3.7871094 C 23.486775 3.7871094 23.496094 3.8058891 23.496094 3.8300781 C 23.496094 3.8678734 23.491391 3.8676877 23.464844 3.8476562 C 23.434211 3.8249791 23.439803 3.7871094 23.476562 3.7871094 z M 20.603516 4.15625 C 20.622312 4.1499701 20.633669 4.1580172 20.634766 4.1757812 C 20.631332 4.2052322 20.451591 4.4026056 20.439453 4.390625 C 20.425167 4.3755069 20.482149 4.2660552 20.533203 4.2089844 C 20.55873 4.1813938 20.58386 4.1628169 20.603516 4.15625 z M 20.433594 4.21875 C 20.449165 4.2204035 20.437636 4.2380989 20.412109 4.2734375 L 20.412109 4.2773438 C 20.387618 4.3113595 20.363548 4.3709125 20.357422 4.4121094 C 20.349258 4.4612432 20.329564 4.4914972 20.296875 4.5058594 C 20.241735 4.5323161 20.234358 4.5668542 20.279297 4.6035156 C 20.322183 4.6375314 20.318976 4.6549327 20.259766 4.6855469 C 20.200544 4.7195626 20.195208 4.739992 20.242188 4.7910156 C 20.283029 4.8378818 20.252136 4.8377939 20.158203 4.7929688 C 20.098982 4.7665121 20.078039 4.7643055 20.035156 4.7832031 C 20.006583 4.7945417 19.982422 4.820756 19.982422 4.8339844 C 19.982422 4.876693 20.066396 4.9419787 20.15625 4.9707031 C 20.317579 5.0217267 20.322189 5.0263477 20.234375 5.0898438 C 20.191489 5.1238595 20.137788 5.1708089 20.113281 5.1972656 C 20.068354 5.2482892 20.023438 5.4314771 20.023438 5.5664062 C 20.023438 5.6091149 20.019707 5.6445312 20.015625 5.6445312 C 20.011543 5.6445312 19.97257 5.6282726 19.929688 5.609375 C 19.870466 5.5866978 19.813225 5.5803316 19.707031 5.5878906 C 19.508942 5.6030087 19.381493 5.651859 19.277344 5.7539062 C 19.203828 5.8234496 19.1875 5.8527708 19.1875 5.9121094 C 19.1875 5.9895897 19.26287 6.1035068 19.28125 6.0566406 C 19.360892 5.8706879 19.577302 5.7469808 19.775391 5.7734375 C 19.985733 5.8036737 20.085938 5.9059075 20.085938 6.09375 C 20.085938 6.3163642 19.976939 6.358149 19.789062 6.2050781 C 19.727796 6.1559443 19.642583 6.104206 19.597656 6.0898438 C 19.518014 6.0671666 19.51395 6.0667363 19.417969 6.1464844 C 19.125944 6.3872403 19.132314 6.3883063 18.830078 6.1210938 C 18.695296 6.0005268 18.48022 5.8209484 18.351562 5.71875 L 18.121094 5.5292969 L 18.1875 5.4726562 C 18.226301 5.4386405 18.506357 5.2491553 18.808594 5.046875 C 19.413069 4.6404624 19.8112 4.4312306 20.289062 4.2617188 C 20.374833 4.2311046 20.418023 4.2170965 20.433594 4.21875 z M 20.697266 4.2617188 C 20.697266 4.2806164 20.428181 4.4847507 20.417969 4.4726562 C 20.409805 4.4650972 20.409981 4.4569045 20.414062 4.453125 C 20.418144 4.4493455 20.475668 4.4044759 20.541016 4.3515625 C 20.645164 4.267657 20.697266 4.2371518 20.697266 4.2617188 z M 20.630859 4.3613281 C 20.63957 4.3580118 20.626473 4.3745132 20.59375 4.4101562 C 20.567218 4.4403925 20.526368 4.4719026 20.503906 4.484375 C 20.481456 4.4957136 20.499998 4.4735934 20.544922 4.4316406 C 20.592912 4.388743 20.621925 4.3647297 20.630859 4.3613281 z M 23.841797 4.4570312 C 23.875492 4.4594879 23.916811 4.4784589 23.943359 4.5117188 L 23.943359 4.5136719 C 24.027088 4.6217664 23.974181 4.6595116 23.849609 4.5820312 C 23.808766 4.5593541 23.78125 4.5245669 23.78125 4.5 C 23.78125 4.468252 23.808101 4.4545746 23.841797 4.4570312 z M 20.519531 4.5488281 C 20.526492 4.553015 20.514364 4.5747299 20.490234 4.609375 C 20.413467 4.7180902 20.371094 4.7333752 20.371094 4.6582031 C 20.371094 4.6241874 20.39247 4.6008022 20.439453 4.578125 C 20.487444 4.5546919 20.512384 4.5445289 20.519531 4.5488281 z M 23.324219 4.8164062 C 23.3306 4.8168787 23.344635 4.8268055 23.369141 4.8457031 C 23.399774 4.8646008 23.459068 4.9202453 23.501953 4.9648438 C 23.54688 5.0075524 23.594991 5.0691219 23.611328 5.1035156 L 23.644531 5.1640625 L 23.59375 5.1113281 C 23.567203 5.0810919 23.502315 5.0418938 23.449219 5.0214844 C 23.353238 4.9836891 23.350855 4.9827733 23.322266 4.8417969 C 23.319202 4.824789 23.317837 4.8159338 23.324219 4.8164062 z M 23.353516 5.0839844 C 23.353516 5.0613072 23.401715 5.0756127 23.460938 5.1171875 C 23.546708 5.1742584 23.720703 5.3425572 23.720703 5.3652344 C 23.720703 5.376573 23.665136 5.3315155 23.595703 5.2695312 C 23.528312 5.2060352 23.444784 5.1396768 23.412109 5.1230469 C 23.379435 5.1041492 23.353516 5.087008 23.353516 5.0839844 z M 20.554688 5.0898438 C 20.501782 5.1350817 20.358081 5.214555 20.320312 5.2128906 C 20.291739 5.2108497 20.299025 5.2066511 20.339844 5.1953125 C 20.37454 5.1877534 20.443087 5.1496914 20.494141 5.1171875 C 20.56374 5.0716086 20.550418 5.0877288 20.554688 5.0898438 z M 20.611328 5.4042969 C 20.620518 5.4001866 20.601745 5.4227665 20.552734 5.4726562 C 20.460839 5.5686562 20.322359 5.6660156 20.275391 5.6660156 C 20.254981 5.6660156 20.275385 5.6469846 20.320312 5.6269531 C 20.36524 5.6080555 20.448767 5.5471174 20.503906 5.4960938 C 20.565171 5.4399678 20.602138 5.4084071 20.611328 5.4042969 z M 21.044922 5.7910156 C 21.044922 5.7872361 21.091257 5.8251736 21.148438 5.8769531 C 21.205618 5.9279767 21.274322 5.9707665 21.298828 5.9726562 C 21.321279 5.9746972 21.362124 5.9727441 21.388672 5.9707031 C 21.456065 5.9669236 21.450461 6.074361 21.376953 6.1601562 C 21.176823 6.3929751 21.093935 6.5665405 21.044922 6.8769531 C 21.020431 7.0341815 20.985444 7.1679142 20.960938 7.2128906 C 20.938487 7.2537095 20.927471 7.271102 20.933594 7.2480469 C 20.956044 7.1845508 20.982334 6.9355336 20.984375 6.7988281 C 20.984375 6.7153006 20.997081 6.6575039 21.019531 6.625 C 21.129807 6.4677717 21.153326 6.2264115 21.085938 5.9609375 C 21.063487 5.8732525 21.044922 5.7970629 21.044922 5.7910156 z M 25.03125 6.0058594 L 25.03125 6.0761719 C 25.03125 6.115101 25.007104 6.194631 24.978516 6.2558594 C 24.949927 6.3170877 24.929599 6.368826 24.931641 6.3710938 C 24.935726 6.3748733 24.980196 6.3158249 25.03125 6.2402344 L 25.123047 6.1054688 L 25.078125 6.0546875 L 25.03125 6.0058594 z M 19.517578 6.1835938 C 19.552039 6.1931371 19.594898 6.2178129 19.658203 6.2597656 C 19.872627 6.4048995 19.978144 6.4281013 20.121094 6.3691406 C 20.186442 6.3389044 20.190522 6.3388166 20.166016 6.3710938 C 20.117003 6.4304323 20.019363 6.4653462 19.933594 6.4570312 C 19.886626 6.4494722 19.745755 6.3955273 19.619141 6.3320312 C 19.423093 6.2360313 19.393107 6.2157853 19.425781 6.1972656 C 19.457435 6.178368 19.483117 6.1740504 19.517578 6.1835938 z M 0 6.2148438 L 0 26.427734 L 3.4570312 26.427734 L 3.4570312 6.2148438 L 0 6.2148438 z M 23.271484 6.2324219 C 23.279652 6.2399809 23.296252 6.3035669 23.310547 6.375 C 23.3228 6.4464331 23.356354 6.5670509 23.380859 6.6445312 L 23.429688 6.7851562 L 23.363281 6.734375 C 23.324481 6.7041388 23.269003 6.6759058 23.236328 6.6679688 C 23.185274 6.6528506 23.179955 6.6442623 23.173828 6.5546875 C 23.167702 6.4586875 23.246979 6.1999179 23.271484 6.2324219 z M 21.548828 6.2636719 C 21.560062 6.2728845 21.582826 6.3260006 21.609375 6.4199219 C 21.627744 6.4811502 21.646324 6.5498397 21.650391 6.5683594 C 21.656513 6.587257 21.643632 6.6072974 21.619141 6.6152344 C 21.592608 6.6227934 21.568982 6.6579608 21.554688 6.7089844 C 21.515887 6.8337088 21.508334 6.788778 21.541016 6.6171875 C 21.561425 6.5151403 21.566933 6.4324488 21.554688 6.375 C 21.538341 6.2892047 21.537594 6.2544593 21.548828 6.2636719 z M 19.392578 6.3203125 C 19.44644 6.3237141 19.494402 6.3421181 19.533203 6.375 L 19.533203 6.3730469 L 19.599609 6.4257812 L 19.494141 6.4667969 L 19.384766 6.5058594 L 19.263672 6.4492188 L 19.142578 6.390625 L 19.21875 6.3554688 C 19.278994 6.3278782 19.338717 6.3169109 19.392578 6.3203125 z M 23.710938 6.359375 C 23.717064 6.359375 23.791094 6.3975004 23.878906 6.4394531 C 23.966719 6.4844295 24.053975 6.5342781 24.070312 6.5546875 C 24.09686 6.5887032 24.091987 6.5894636 23.998047 6.578125 C 23.942909 6.5705659 23.848285 6.5625 23.789062 6.5625 C 23.688997 6.5625 23.680222 6.5588995 23.667969 6.5097656 C 23.655716 6.4628995 23.684391 6.359375 23.710938 6.359375 z M 19.535156 6.4824219 C 19.545361 6.4824219 19.554688 6.5015162 19.554688 6.5234375 C 19.554688 6.5623666 19.512879 6.5775525 19.486328 6.5488281 C 19.470001 6.53371 19.508594 6.4824219 19.535156 6.4824219 z M 20.46875 6.5371094 C 20.485598 6.5332354 20.494143 6.5483935 20.494141 6.5820312 C 20.494141 6.6009289 20.462698 6.6319343 20.421875 6.6523438 C 20.321808 6.7014776 20.320997 6.6973113 20.394531 6.6054688 C 20.427205 6.5646499 20.451902 6.5409834 20.46875 6.5371094 z M 23.757812 6.625 L 23.867188 6.625 C 23.957042 6.625 23.996617 6.6372956 24.074219 6.6894531 L 24.169922 6.7519531 L 24.136719 6.8261719 C 24.12038 6.8669908 24.083367 6.9301988 24.052734 6.96875 L 24 7.0390625 L 23.976562 6.9589844 C 23.943888 6.8508899 23.911853 6.7988104 23.828125 6.7050781 L 23.757812 6.625 z M 23.185547 6.7617188 L 23.236328 6.8007812 C 23.264916 6.8234584 23.311254 6.8772132 23.339844 6.9199219 C 23.401108 7.0140321 23.395783 7.0335089 23.322266 6.984375 C 23.267128 6.9465797 23.221682 6.8838697 23.199219 6.8105469 L 23.185547 6.7617188 z M 21.699219 6.8027344 C 21.710963 6.799569 21.71875 6.8222756 21.71875 6.875 L 21.71875 6.8769531 C 21.71875 6.9544334 21.66877 7.2357012 21.650391 7.2519531 C 21.629981 7.2746303 21.635665 7.0006093 21.660156 6.890625 C 21.672402 6.8354439 21.687475 6.8058997 21.699219 6.8027344 z M 23.673828 6.9023438 C 23.710332 6.911254 23.747157 6.9306246 23.767578 6.9550781 C 23.789489 6.9853577 23.802734 7.0311617 23.802734 7.0957031 C 23.802734 7.1508842 23.800959 7.1972656 23.796875 7.1972656 C 23.792789 7.1972656 23.746366 7.1811337 23.695312 7.1660156 C 23.613627 7.1357794 23.605113 7.126693 23.613281 7.0839844 C 23.617367 7.0537482 23.608311 7.0088152 23.587891 6.9804688 C 23.559302 6.9354924 23.557613 6.924833 23.580078 6.9082031 C 23.601521 6.8949748 23.637325 6.8934335 23.673828 6.9023438 z M 10.058594 7.2929688 L 3.9746094 10.861328 L 3.9746094 23.009766 L 10.058594 26.3125 L 10.058594 7.2929688 z M 24.771484 9.5039062 C 24.77557 9.5039062 24.840634 9.6208057 24.912109 9.7636719 C 25.042807 10.025215 25.135885 10.235351 25.423828 10.929688 C 25.509598 11.13605 25.605997 11.356615 25.638672 11.419922 C 25.712191 11.568835 25.725678 11.649152 25.701172 11.763672 C 25.678721 11.859672 25.117392 12.825252 24.888672 13.160156 C 24.743679 13.372566 24.405843 13.79703 24.101562 14.152344 C 23.911643 14.374958 23.904397 14.380357 23.8125 14.388672 C 23.722646 14.396231 23.716368 14.392139 23.591797 14.269531 C 23.41413 14.091893 23.377493 14.039017 23.320312 13.865234 C 23.291724 13.781707 23.249115 13.686864 23.224609 13.65625 C 23.175598 13.595022 23.175598 13.552002 23.224609 13.34375 C 23.261369 13.174427 23.38998 12.923041 23.583984 12.626953 C 23.849464 12.222581 23.973158 11.951777 24.230469 11.220703 C 24.306028 11.002246 24.402605 10.744488 24.441406 10.646484 C 24.482249 10.550484 24.5656 10.2669 24.628906 10.013672 C 24.753477 9.513338 24.755147 9.5039062 24.771484 9.5039062 z "
       style="opacity:1;fill:#ffffff;fill-opacity:1;stroke:none;stroke-width:0.399999;stroke-linecap:round;stroke-linejoin:round;stroke-miterlimit:4;stroke-dasharray:none;stroke-opacity:1"
       id="path1475" />
  </g>
</svg>
