<?xml version="1.0" encoding="UTF-8" standalone="no"?>
<svg
   xmlns:dc="http://purl.org/dc/elements/1.1/"
   xmlns:cc="http://creativecommons.org/ns#"
   xmlns:rdf="http://www.w3.org/1999/02/22-rdf-syntax-ns#"
   xmlns:svg="http://www.w3.org/2000/svg"
   xmlns="http://www.w3.org/2000/svg"
   xmlns:sodipodi="http://sodipodi.sourceforge.net/DTD/sodipodi-0.dtd"
   xmlns:inkscape="http://www.inkscape.org/namespaces/inkscape"
   width="8.4666672mm"
   height="8.46667mm"
   viewBox="0 0 8.4666669 8.4666701"
   version="1.1"
   id="svg946"
   inkscape:version="1.1-dev (2c50571925, 2020-02-08)"
   sodipodi:docname="whatsapp.svg">
  <defs
     id="defs940" />
  <sodipodi:namedview
     id="base"
     pagecolor="#ffffff"
     bordercolor="#666666"
     borderopacity="1.0"
     inkscape:pageopacity="0.0"
     inkscape:pageshadow="2"
     inkscape:zoom="0.35"
     inkscape:cx="80.285722"
     inkscape:cy="401.71426"
     inkscape:document-units="mm"
     inkscape:current-layer="layer1"
     showgrid="false"
     inkscape:window-width="1366"
     inkscape:window-height="712"
     inkscape:window-x="0"
     inkscape:window-y="32"
     inkscape:window-maximized="1" />
  <metadata
     id="metadata943">
    <rdf:RDF>
      <cc:Work
         rdf:about="">
        <dc:format>image/svg+xml</dc:format>
        <dc:type
           rdf:resource="http://purl.org/dc/dcmitype/StillImage" />
        <dc:title />
      </cc:Work>
    </rdf:RDF>
  </metadata>
  <g
     inkscape:label="Capa 1"
     inkscape:groupmode="layer"
     id="layer1"
     transform="translate(54.882145,-119.65357)">
    <path
       style="fill:#ffffff;fill-opacity:1;stroke-width:0.0165365"
       d="m -50.66341,119.65357 c -2.321024,0 -4.218735,1.89771 -4.218735,4.20414 0,0.75909 0.204384,1.48897 0.583912,2.14586 l -0.583912,2.11667 2.160462,-0.58388 c 0.627708,0.35034 1.328387,0.58388 2.058273,0.58388 2.32104,0 4.247932,-1.95611 4.247932,-4.26253 0,-2.30643 -1.926908,-4.20414 -4.247932,-4.20414 z m 0,0.7299 c 1.926894,0 3.518034,1.53274 3.518034,3.47424 0,1.94149 -1.591143,3.53266 -3.503435,3.53266 -0.656895,0 -1.284613,-0.20437 -1.824728,-0.54011 l -0.131387,-0.073 -1.255382,0.32114 0.335735,-1.22622 -0.08759,-0.13135 c -0.350341,-0.55472 -0.540115,-1.21163 -0.540115,-1.88312 0,-1.9269 1.561975,-3.47424 3.488869,-3.47424 z m -1.330507,1.33819 c -0.08759,0 -0.175155,0.0292 -0.233545,0.0876 -0.131382,0.11678 -0.35037,0.33574 -0.40876,0.62771 -0.102179,0.43793 0.05841,0.96345 0.437957,1.48896 0.379546,0.52551 1.109423,1.37219 2.394008,1.73713 0.408732,0.11679 0.729875,0.0438 0.992639,-0.11678 0.204375,-0.13139 0.335759,-0.33574 0.379564,-0.55472 l 0.0438,-0.20438 c 0.0146,-0.0584 -0.0146,-0.13136 -0.07299,-0.16055 l -0.919679,-0.42336 c -0.05839,-0.0292 -0.131363,-0.0146 -0.175151,0.0438 l -0.364965,0.46712 c -0.0292,0.0292 -0.07297,0.0438 -0.116757,0.0292 -0.248161,-0.0876 -1.08025,-0.43793 -1.532787,-1.31378 -0.0146,-0.0438 -0.0146,-0.0876 0.0146,-0.11679 l 0.350366,-0.39413 c 0.0292,-0.0438 0.04378,-0.10218 0.0292,-0.14599 l -0.423327,-0.94884 c -0.01462,-0.0438 -0.05843,-0.0876 -0.116822,-0.0876 z"
       id="path835"
       inkscape:connector-curvature="0" />
  </g>
</svg>
