<?xml version="1.0" encoding="UTF-8" standalone="no"?>
<!-- Created with Inkscape (http://www.inkscape.org/) -->

<svg
   xmlns:dc="http://purl.org/dc/elements/1.1/"
   xmlns:cc="http://creativecommons.org/ns#"
   xmlns:rdf="http://www.w3.org/1999/02/22-rdf-syntax-ns#"
   xmlns:svg="http://www.w3.org/2000/svg"
   xmlns="http://www.w3.org/2000/svg"
   xmlns:sodipodi="http://sodipodi.sourceforge.net/DTD/sodipodi-0.dtd"
   xmlns:inkscape="http://www.inkscape.org/namespaces/inkscape"
   width="3020.6914mm"
   height="1497.7904mm"
   viewBox="0 0 3020.6914 1497.7904"
   version="1.1"
   id="svg1347"
   inkscape:version="0.92.4 (5da689c313, 2019-01-14)"
   sodipodi:docname="LOGO_FINAL-BLANCO.svg"
   inkscape:export-filename="C:\Users\dania\Google Drive (paula.alzq4@gmail.com)\Trabajo\LOGO_FINAL.png"
   inkscape:export-xdpi="20"
   inkscape:export-ydpi="20">
  <defs
     id="defs1341">
    <filter
       inkscape:collect="always"
       style="color-interpolation-filters:sRGB"
       id="filter1451"
       x="-0.24118911"
       width="1.4823782"
       y="-0.1435753"
       height="1.2871506">
      <feGaussianBlur
         inkscape:collect="always"
         stdDeviation="230.19253"
         id="feGaussianBlur1453" />
    </filter>
    <filter
       inkscape:collect="always"
       style="color-interpolation-filters:sRGB"
       id="filter1692"
       x="-0.085709698"
       width="1.1714194"
       y="-0.20002499"
       height="1.40005">
      <feGaussianBlur
         inkscape:collect="always"
         stdDeviation="38.318613"
         id="feGaussianBlur1694" />
    </filter>
    <clipPath
       clipPathUnits="userSpaceOnUse"
       id="clipPath2292">
      <rect
         y="303.12469"
         x="-2060.5642"
         height="300"
         width="198.621"
         id="rect2294"
         style="opacity:1;fill:#000000;fill-opacity:0.89639641;stroke:none;stroke-width:1.0763073;stroke-linecap:round;stroke-linejoin:miter;stroke-miterlimit:4;stroke-dasharray:none;stroke-opacity:1" />
    </clipPath>
  </defs>
  <sodipodi:namedview
     id="base"
     pagecolor="#ffffff"
     bordercolor="#666666"
     borderopacity="1.0"
     inkscape:pageopacity="0.0"
     inkscape:pageshadow="2"
     inkscape:zoom="0.040000001"
     inkscape:cx="4391.7852"
     inkscape:cy="2181.1791"
     inkscape:document-units="mm"
     inkscape:current-layer="layer1"
     showgrid="false"
     inkscape:window-width="1366"
     inkscape:window-height="705"
     inkscape:window-x="-8"
     inkscape:window-y="-8"
     inkscape:window-maximized="1" />
  <metadata
     id="metadata1344">
    <rdf:RDF>
      <cc:Work
         rdf:about="">
        <dc:format>image/svg+xml</dc:format>
        <dc:type
           rdf:resource="http://purl.org/dc/dcmitype/StillImage" />
        <dc:title></dc:title>
      </cc:Work>
    </rdf:RDF>
  </metadata>
  <g
     inkscape:label="Capa 1"
     inkscape:groupmode="layer"
     id="layer1"
     transform="translate(992.75099,536.88547)">
    <path
       id="path1088"
       d="m 764.28993,636.81551 c 62.47,179.3057 277.35997,939.89579 95.085,1653.28959 -49.454,193.5481 -73.366,362.7627 -84.067,517.1601 29.625,-58.7399 59.967,-117.9251 97.155,-180.5976 C 1017.0449,2382.9848 1116.4349,2182.9712 1184.0369,2018.3414 1197.2959,1670.0402 993.48693,902.19011 764.28993,636.81551 Z m 1889.54697,-22.6274 c -229.197,265.3746 -455.634,1055.85209 -442.374,1404.15329 67.602,164.6298 166.991,364.6434 311.574,608.3262 37.188,62.6725 67.529,121.8577 97.154,180.5976 -10.701,-154.3974 -34.612,-323.612 -84.066,-517.1601 -182.275,-713.3938 55.242,-1496.61129 117.712,-1675.91699 z m -1314.22,783.49709 c 39.098,155.2815 11.203,501.8338 -431.36897,1247.7402 -346.221,583.5175 -386.241,1016.0966 -340.209,1302.6896 45.828,285.329 176.205,425.19 177.357,426.422 1.696,1.129 109.237,72.489 250.342,93.373 142.22597,21.05 316.97697,-8.741 452.24397,-215.506 47.76,-73.005 67.916,-138.747 69.479,-200.604 l 0.07,-2.746 2.207,-1.652 c 9.346,-6.979 16.041,-21.722 16.041,-38.047 0,-21.541 -11.374,-38.934 -24.391,-42.113 l -3.314,-0.813 -0.834,-3.306 c -31.027,-122.855 -126.962,-236.712 -212.561,-366.955 -85.598,-130.2448 -160.645,-277.3824 -147.617,-467.016 16.991,-247.3059 156.228,-545.7341 242.237,-854.8223 82.098,-295.0367 115.427,-994.7368 -49.68,-1272.6243 z m 716.265,0 c -165.107,277.8875 -131.777,581.6078 -49.679,876.6445 86.009,309.0882 225.245,607.5164 242.236,854.8223 13.028,189.6336 -62.019,336.7712 -147.617,467.016 -85.599,130.243 -181.533,244.1 -212.561,366.955 l -0.834,3.306 -3.314,0.813 c -13.017,3.179 -24.391,20.572 -24.391,42.113 0,16.325 6.695,31.068 16.041,38.047 l 2.207,1.652 0.07,2.746 c 1.563,61.857 21.718,127.599 69.478,200.604 135.267,206.765 310.018,236.556 452.244,215.506 141.105,-20.884 248.646,-92.244 250.342,-93.373 1.152,-1.232 131.53,-141.093 177.358,-426.422 46.031,-286.593 6.012,-719.1721 -340.209,-1302.6896 -442.573,-745.9064 -447.841,-1533.6933 -408.743,-1688.97479 z m -358.132,1193.7187 V 4488.189 c 7.281,-0.193 14.564,-0.379 21.961,-0.31 24.255,0.207 48.994,1.715 74.269,4.894 25.277,3.179 50.996,8.024 77.199,14.719 26.22,6.699 52.908,15.296 80.108,25.992 48.909,19.234 94.206,34.678 135.916,47.021 41.706,12.346 79.868,21.572 114.597,28.356 34.715,6.782 66.019,11.102 94.016,13.656 28.002,2.554 52.649,3.356 74.113,3.004 14.215,-0.234 26.921,-1.012 38.467,-2.059 l 0.256,-0.04 h 0.125 c 0.291,-0.04 0.729,-0.08 1.291,-0.148 1.123,-0.132 2.738,-0.331 4.746,-0.576 3.583,-0.442 8.692,-1.095 14.123,-1.817 61.083,-51.026 116.453,-108.443 165.723,-170.949 -47.701,22.11 -112.992,46.755 -189.006,58.008 -152.734,22.608 -348.896,-14.583 -492.026,-233.365 -47.766,-73.016 -70.685,-142.557 -75.056,-208.428 -11.688,-15.29 -18.229,-35.991 -18.229,-57.777 0,-30.512 12.556,-58.219 33.33,-71.989 23.854,-80.756 70.515,-154.475 121.233,-228.484 114.631,-167.272 249.687,-334.8034 233.119,-575.9648 -9.434,-137.2823 -60.818,-297.3287 -119.135,-468.8965 -125.237,-46.4319 -257.587,-70.6495 -391.142,-71.6348 z m 33.941,-294.1564 c -133.556,0.9853 -299.847,319.3593 -425.084,365.7912 -58.317,171.5678 -109.701,331.6142 -119.135,468.8965 -16.568,241.1614 118.487,408.6928 233.117,575.9648 50.719,74.009 97.381,147.728 121.235,228.484 20.774,13.77 33.328,41.477 33.33,71.989 0,21.786 -6.54,42.487 -18.229,57.777 -4.37,65.871 -27.289,135.412 -75.056,208.428 -143.129,218.782 -339.292,255.973 -492.02597,233.365 -76.014,-11.253 -141.304,-35.898 -189.005,-58.008 49.269,62.506 104.639,119.923 165.722,170.949 5.431,0.722 10.54,1.375 14.123,1.817 2.008,0.245 3.623,0.444 4.746,0.576 0.562,0.06 1,0.111 1.291,0.148 h 0.123 l 0.258,0.04 c 11.546,1.047 24.25197,1.825 38.46697,2.059 21.464,0.352 46.111,-0.45 74.113,-3.004 27.997,-2.554 59.302,-6.874 94.016,-13.656 34.729,-6.784 72.892,-16.01 114.598,-28.356 41.71,-12.343 87.007,-27.787 135.916,-47.021 27.2,-10.696 53.887,-19.293 80.107,-25.992 26.203,-6.695 51.922,-11.54 77.199,-14.719 25.275,-3.179 50.014,-4.687 74.27,-4.894 7.396,-0.07 14.679,0.117 21.961,0.31 z m -55.65,2231.1425 c -22.814,0.204 -45.926,1.597 -69.5,4.563 -23.607,2.969 -47.642,7.481 -72.217,13.759 -24.562,6.278 -49.655,14.349 -75.34,24.45 -49.954,19.644 -96.341,35.494 -139.223,48.187 -42.889,12.694 -82.315,22.231 -118.345,29.27 -36.034,7.04 -68.699,11.558 -98.092,14.24 -29.392,2.682 -55.49,3.525 -78.469,3.145 -1.135,-0.04 -1.947,-0.125 -3.027,-0.163 195.423,144.759 431.649,224.889 675.9,226.159 v -363.323 c -4.702,-0.124 -9.405,-0.249 -14.129,-0.287 h -7.5 -0.05 z m 35.859,0 c -4.724,0.04 -9.427,0.163 -14.129,0.287 V 4892 c 244.251,-1.27 480.478,-81.4 675.901,-226.159 -1.08,0.04 -1.893,0.125 -3.028,0.163 -22.979,0.38 -49.076,-0.463 -78.469,-3.145 -29.393,-2.682 -62.058,-7.2 -98.091,-14.24 -36.03,-7.039 -75.457,-16.576 -118.346,-29.27 -42.882,-12.693 -89.269,-28.543 -139.223,-48.187 -25.685,-10.101 -50.778,-18.172 -75.34,-24.45 -24.574,-6.278 -48.609,-10.79 -72.216,-13.759 -23.575,-2.966 -46.686,-4.359 -69.5,-4.563 v 0 h -0.05 z"
       style="fill:#0099ff;fill-opacity:1;stroke:none;stroke-width:15.11811066;stroke-miterlimit:4;stroke-dasharray:none;stroke-opacity:1;filter:url(#filter1451)"
       inkscape:connector-curvature="0"
       sodipodi:nodetypes="cccccccccccccsccsccccscccccccccccccccsccccscscccccccccccccccccccccccsccccccccccccccccccccccccccccccccccccccccccccccccccccsccccccccc"
       transform="matrix(0.26458333,0,0,0.26458333,-992.75099,-536.88547)"
       inkscape:export-filename="C:\Users\dania\Google Drive (paula.alzq4@gmail.com)\Trabajo\PlanetaRelax\Logos\Logo_Final_Blanco.png"
       inkscape:export-xdpi="20"
       inkscape:export-ydpi="20" />
    <path
       style="fill:#ffffff;fill-opacity:1;stroke:none;stroke-width:4;stroke-miterlimit:4;stroke-dasharray:none;stroke-opacity:1"
       d="m -740.17316,-242.67117 c 16.528,47.4413 22.497,140.9177 -25.73,329.669804 -13.085,51.209596 -19.412,95.980996 -22.243,136.831996 7.838,-15.5416 15.866,-31.2011 25.706,-47.7832 38.253,-64.4744 64.55,-117.394596 82.437,-160.952896 3.508,-92.1547 0.472,-187.552004 -60.17,-257.765704 z m 392.18,0 c -60.642,70.2137 -63.679,165.611004 -60.17,257.765704 17.886,43.5583 44.183,96.478496 82.437,160.952896 9.839,16.5821 17.867,32.2416 25.705,47.7832 -2.831,-40.851 -9.158,-85.6224 -22.242,-136.831996 -48.227,-188.752104 -42.259,-282.228504 -25.73,-329.669804 z m -290.846,93.5504 c 10.344,41.0849 2.964,132.776804 -114.133,330.1312 -91.605,154.389 -102.193,268.8423 -90.014,344.67 12.125,75.4933 46.621,112.4982 46.926,112.8241 0.448,0.2988 28.902,19.1794 66.236,24.705 37.631,5.5695 83.867,-2.3127 119.656,-57.0193 12.637,-19.3159 17.97,-36.7102 18.383,-53.0765 l 0.02,-0.7265 0.584,-0.4371 c 2.473,-1.8466 4.244,-5.7473 4.244,-10.0666 0,-5.6994 -3.009,-10.3013 -6.453,-11.1424 l -0.877,-0.2151 -0.221,-0.8747 c -8.209,-32.5054 -33.592,-62.6301 -56.24,-97.0902 -22.648,-34.4606 -42.504,-73.3908 -39.057,-123.5647 4.496,-65.433 41.336,-144.3921 64.092,-226.171696 21.722,-78.0618 30.54,-158.4211 -13.144,-231.945504 z m 189.511,0 c -43.684,73.524404 -34.866,153.883704 -13.144,231.945504 22.757,81.779596 59.596,160.738696 64.092,226.171696 3.447,50.1739 -16.409,89.1041 -39.057,123.5647 -22.648,34.4601 -48.031,64.5848 -56.24,97.0902 l -0.221,0.8747 -0.877,0.2151 c -3.444,0.8411 -6.453,5.443 -6.453,11.1424 0,4.3193 1.771,8.22 4.244,10.0666 l 0.584,0.4371 0.02,0.7265 c 0.413,16.3663 5.746,33.7606 18.383,53.0765 35.789,54.7066 82.025,62.5888 119.656,57.0193 37.334,-5.5256 65.787,-24.4062 66.236,-24.705 0.305,-0.3259 34.801,-37.3308 46.926,-112.8241 12.179,-75.8277 1.591,-190.281 -90.014,-344.67 -117.097,-197.354396 -124.478,-289.0463 -114.133,-330.1312 z m -94.755,315.8381 v 501.8577 c 1.926,-0.051 3.853,-0.1003 5.81,-0.082 6.418,0.055 12.963,0.4538 19.65,1.2949 6.688,0.8411 13.493,2.123 20.426,3.8944 6.937,1.7725 13.999,4.0471 21.195,6.8771 12.941,5.089 24.926,9.1752 35.961,12.4409 11.035,3.2666 21.132,5.7076 30.321,7.5026 9.185,1.7944 17.467,2.9374 24.875,3.6131 7.409,0.6758 13.93,0.888 19.609,0.7948 3.761,-0.062 7.123,-0.2677 10.178,-0.5447 l 0.07,-0.01 h 0.03 c 0.08,-0.01 0.192,-0.022 0.341,-0.039 0.297,-0.035 0.725,-0.088 1.256,-0.1524 0.948,-0.1169 2.3,-0.2897 3.737,-0.4807 16.161,-13.5007 30.811,-28.6923 43.847,-45.2303 -12.621,5.8499 -29.896,12.3706 -50.008,15.3479 -40.411,5.9817 -92.312,-3.8584 -130.182,-61.7445 -12.638,-19.3188 -18.702,-37.7181 -19.858,-55.1466 -3.093,-4.0454 -4.823,-9.5225 -4.823,-15.2867 0,-8.0731 3.322,-15.4038 8.818,-19.0471 6.312,-21.3667 18.657,-40.8715 32.076,-60.4531 30.33,-44.2574 66.063,-88.5834 61.68,-152.3907 -2.496,-36.3227 -16.092,-78.6682 -31.521,-124.0622 -33.136,-12.2852 -68.153,-18.6928 -103.49,-18.9533 z m 0,0 c -35.337,0.2606 -70.355,6.6682 -103.49,18.9533 -15.43,45.394 -29.025,87.7396 -31.521,124.0622 -4.384,63.8073 31.349,108.1333 61.679,152.3907 13.419,19.5816 25.765,39.0864 32.076,60.4531 5.497,3.6433 8.818,10.9741 8.819,19.0471 0,5.7642 -1.731,11.2413 -4.823,15.2868 -1.156,17.4284 -7.221,35.8277 -19.859,55.1466 -37.869,57.886 -89.771,67.7261 -130.182,61.7444 -20.112,-2.9773 -37.386,-9.498 -50.007,-15.3479 13.035,16.538 27.685,31.7296 43.847,45.2303 1.437,0.191 2.789,0.3638 3.737,0.4807 0.531,0.065 0.958,0.1175 1.255,0.1524 0.149,0.017 0.265,0.029 0.342,0.039 h 0.03 l 0.07,0.01 c 3.055,0.277 6.417,0.4828 10.178,0.5447 5.679,0.093 12.2,-0.119 19.609,-0.7948 7.407,-0.6757 15.69,-1.8187 24.875,-3.6131 9.189,-1.795 19.286,-4.236 30.321,-7.5026 11.035,-3.2657 23.02,-7.3519 35.961,-12.4409 7.196,-2.83 14.257,-5.1046 21.195,-6.8771 6.932,-1.7714 13.737,-3.0533 20.425,-3.8944 6.688,-0.8411 13.233,-1.2401 19.651,-1.2949 1.957,-0.018 3.884,0.031 5.81,0.082 z m -5.744,512.4942 c -6.036,0.054 -12.151,0.4225 -18.389,1.2073 -6.246,0.7855 -12.605,1.9793 -19.107,3.6404 -6.499,1.661 -13.138,3.7965 -19.934,6.469 -13.217,5.1975 -25.49,9.3912 -36.836,12.7495 -11.348,3.3586 -21.779,5.882 -31.312,7.7444 -9.534,1.8626 -18.177,3.058 -25.954,3.7676 -7.776,0.7097 -14.681,0.9327 -20.761,0.8322 -0.301,-0.01 -0.515,-0.033 -0.801,-0.043 51.706,38.3008 114.207,59.5019 178.832,59.8379 v -96.1292 c -1.244,-0.033 -2.489,-0.066 -3.738,-0.076 h -1.985 -0.01 z m 9.488,0 c -1.25,0.01 -2.495,0.043 -3.739,0.076 v 96.1292 c 64.625,-0.336 127.127,-21.5371 178.832,-59.8379 -0.285,0.01 -0.501,0.033 -0.801,0.043 -6.08,0.1005 -12.984,-0.1225 -20.761,-0.8322 -7.777,-0.7096 -16.42,-1.905 -25.954,-3.7676 -9.533,-1.8624 -19.964,-4.3858 -31.312,-7.7444 -11.346,-3.3583 -23.619,-7.552 -36.836,-12.7495 -6.796,-2.6725 -13.435,-4.808 -19.934,-6.469 -6.502,-1.6611 -12.861,-2.8549 -19.107,-3.6404 -6.237,-0.7848 -12.352,-1.1533 -18.389,-1.2073 v 0 h -0.01 z"
       id="path5604"
       inkscape:connector-curvature="0"
       inkscape:export-filename="C:\Users\dania\Google Drive (paula.alzq4@gmail.com)\Trabajo\PlanetaRelax\Logos\Logo_Final_Blanco.png"
       inkscape:export-xdpi="20"
       inkscape:export-ydpi="20" />
    <path
       inkscape:connector-curvature="0"
       style="color:#000000;font-style:normal;font-variant:normal;font-weight:normal;font-stretch:normal;font-size:238.98574829px;line-height:1.25;font-family:sans-serif;font-variant-ligatures:normal;font-variant-position:normal;font-variant-caps:normal;font-variant-numeric:normal;font-variant-alternates:normal;font-feature-settings:normal;text-indent:0;text-align:start;text-decoration:none;text-decoration-line:none;text-decoration-style:solid;text-decoration-color:#000000;letter-spacing:0px;word-spacing:0px;text-transform:none;writing-mode:lr-tb;direction:ltr;text-orientation:mixed;dominant-baseline:auto;baseline-shift:baseline;text-anchor:start;white-space:normal;shape-padding:0;clip-rule:nonzero;display:inline;overflow:visible;visibility:visible;opacity:1;isolation:auto;mix-blend-mode:normal;color-interpolation:sRGB;color-interpolation-filters:linearRGB;solid-color:#000000;solid-opacity:1;vector-effect:none;fill:#0099ff;fill-opacity:1;fill-rule:nonzero;stroke:none;stroke-width:6.33664036;stroke-linecap:butt;stroke-linejoin:miter;stroke-miterlimit:4;stroke-dasharray:none;stroke-dashoffset:0;stroke-opacity:1;filter:url(#filter1692);color-rendering:auto;image-rendering:auto;shape-rendering:auto;text-rendering:auto;enable-background:accumulate"
       d="m -30.0906,190.0776 0.348,3.4835 0.538,5.3883 h 5.91 c 3.506,0 6.214,1.0742 8.723,3.4443 l 0.03,0.033 0.03,0.032 c 2.467,2.1921 3.817,4.79 4.26,8.2884 v 141.3184 c -0.144,3.6441 -1.427,6.5548 -4.141,9.2694 -2.503,2.5022 -5.25,3.6349 -8.912,3.6349 h -6.464 v 8.8712 h 61.846 v -8.8712 h -6.463 c -3.633,0 -6.493,-1.1388 -9.161,-3.6417 -2.519,-2.6848 -3.749,-5.6079 -3.893,-9.262 V 204.019 h 25.98 c 9.942,0 17.09,3.1268 22.406,9.5057 l 0.01,0.013 0.01,0.016 c 5.352,6.2701 8.293,14.8399 8.619,26.1493 v 5.5044 c 0,2.6836 -0.447,5.5795 -1.381,8.6997 -3.173,10.1433 -8.86,17.0696 -17.418,21.4268 v 0.01 0 c -9.835,5.076 -20.366,6.3447 -32.087,3.7758 l -3.847,-0.8427 v 8.4103 l 1.726,0.8827 c 8.129,4.1547 17.695,6.1775 28.564,6.1775 4.047,0 8.574,-0.9403 13.691,-2.7038 14.668,-4.9495 25.317,-13.983 31.254,-26.7525 3.239,-6.844 4.86,-14.2635 4.86,-22.1242 0,-15.8451 -4.974,-28.7994 -14.939,-38.0482 -9.962,-9.4144 -23.654,-14.039 -40.443,-14.039 z m 917.5856,19.526 -4.345,1.7378 c -6.151,2.4601 -15.28,3.8283 -27.212,3.8283 h -82.629 c -2.805,0 -7.399,-0.3255 -13.591,-0.9949 v 0 0 c -5.912,-0.6572 -10.421,-1.657 -13.358,-2.8323 l -4.348,-1.7378 v 4.6791 31.8106 h 9.125 V 238.87 c 0,-2.8718 0.796,-5.0321 2.486,-7.0012 1.766,-1.8721 3.846,-2.7574 7.02,-2.7574 h 42.708 v 125.2198 c -0.138,2.9263 -1.205,5.2224 -3.565,7.4441 -2.331,2.1937 -4.87,3.194 -8.221,3.194 h -6.21 v 8.8713 h 58.551 v -8.8713 h -5.956 c -2.242,0 -4.13,-0.4701 -5.85,-1.3956 l -0.02,-0.016 -0.02,-0.011 c -4.115,-2.1289 -5.748,-4.6718 -5.89,-8.9271 V 229.109 h 42.708 c 2.998,0 5.008,0.8659 6.809,2.7956 1.862,1.9957 2.696,4.1185 2.696,6.9627 v 7.2239 h 9.125 z m -165.229,0.058 -4.456,1.9807 c -0.823,0.3662 -4.288,1.319 -9.453,2.3188 -4.983,0.9644 -10.874,1.4634 -17.648,1.4634 h -77.1796 v 8.8712 h 6.717 c 3.3946,0 5.9776,0.9647 8.2956,3.0097 2.296,2.0264 3.236,4.1013 3.236,7.0027 V 354.585 c -0.138,2.9258 -1.205,5.2203 -3.564,7.442 -2.126,1.9915 -4.573,2.9408 -7.9666,2.9408 h -6.717 v 8.8712 H 721.781 l 16.379,-42.5817 h -9.156 l -0.857,1.8148 c -2.805,5.9399 -5.587,10.6566 -8.26,14.1171 l -0.03,0.037 -0.03,0.037 c -2.327,3.2004 -5.944,6.1219 -11.021,8.6603 l -0.02,0.01 -0.01,0.01 c -4.671,2.4107 -10.659,3.7026 -18.065,3.7026 h -36.625 v -58.0435 h 40.697 c 1.175,0.1387 2.262,0.3972 3.28,0.7655 2.431,1.1914 3.421,2.8305 3.421,6.7116 v 6.4633 h 9.125 v -41.822 h -9.125 v 6.4637 c 0,2.3961 -0.63,4.0172 -1.955,5.4632 l -0.05,0.055 -0.05,0.057 c -1.025,1.23 -2.424,1.9023 -5.17,1.9023 h -40.174 v -58.044 h 49.552 c 2.998,0 5.008,0.8657 6.809,2.795 1.862,1.9953 2.696,4.1185 2.696,6.9631 v 6.6955 l 9.125,0.829 z m -295.8266,1.618 0.488,3.9047 0.511,4.087 v 0.032 c 1.156,7.9214 1.741,16.9841 1.741,27.1703 V 354.957 c 0,2.9499 -0.914,5.0618 -3.054,7.0673 -2.15,2.0164 -4.52,2.9446 -7.718,2.9446 h -7.477 v 8.8712 h 54.242 v -8.8712 h -7.477 c -3.198,0 -5.567,-0.9277 -7.718,-2.9446 -2.14,-2.0058 -3.055,-4.1177 -3.055,-7.0673 v -98.3252 l 127.371,120.7574 h 7.085 l -0.903,-8.1171 v -0.036 c -1.162,-8.6326 -1.747,-17.7861 -1.747,-27.4587 V 233.9235 c 0.138,-2.7639 1.098,-4.7464 3.227,-6.6098 l 0.04,-0.036 0.04,-0.037 c 2.175,-2.0387 4.467,-2.9446 7.464,-2.9446 h 7.478 v -8.8712 h -54.242 v 8.8712 h 7.478 c 2.997,0 5.29,0.9059 7.465,2.9446 l 0.04,0.037 0.04,0.036 c 2.14,1.8729 3.198,3.9309 3.48,6.7085 v 97.6291 L 434.2344,211.9885 Z m -109.096,0.5963 -0.21,2.9425 c -0.09,1.3168 -1.504,6.2238 -4.336,13.2225 -0.546,1.3362 -5.898,13.0043 -15.527,33.6987 -9.627,20.6888 -23.692,50.8039 -42.185,90.3237 -2.173,4.4998 -4.858,7.7245 -8.043,9.8996 -3.137,2.0871 -6.032,3.0065 -8.872,3.0065 h -5.196 v 8.8712 h 54.749 v -8.8712 h -5.196 c -2.671,0 -4.001,-0.6641 -5.064,-2.0288 -1.427,-2.0148 -1.906,-3.5452 -1.906,-4.4344 0,-1.5828 0.327,-3.2973 1.05,-5.1811 l 13.089,-30.9377 h 59.909 l 13.086,31.6457 c 0.544,1.505 0.818,3.0573 0.818,4.7257 0,0.8994 -0.451,2.2972 -1.877,4.1514 -1.099,1.4282 -2.353,2.0592 -4.84,2.0592 h -5.196 v 8.8712 h 58.297 v -8.8712 h -5.196 c -6.828,0 -12.084,-3.7685 -16.669,-12.9233 l -63.409,-140.1702 z m 632.6736,0 -0.21,2.9425 c -0.09,1.3163 -1.504,6.2238 -4.336,13.2225 -0.546,1.3356 -5.898,13.0043 -15.527,33.6987 -9.627,20.688 -23.691,50.8029 -42.183,90.32 -2.174,4.5016 -4.859,7.7264 -8.044,9.9018 -3.137,2.088 -6.033,3.008 -8.873,3.008 h -5.196 v 8.8712 h 54.749 v -8.8712 H 915.2 c -2.671,0 -4.001,-0.6649 -5.065,-2.0304 -1.425,-2.0143 -1.904,-3.5436 -1.904,-4.4328 0,-1.5838 0.328,-3.2999 1.051,-5.1856 l 13.088,-30.9332 h 59.908 l 13.088,31.6462 c 0.544,1.5053 0.817,3.0576 0.817,4.7252 0,0.8983 -0.451,2.2972 -1.878,4.1519 -1.098,1.4279 -2.352,2.0587 -4.839,2.0587 h -5.196 v 8.8712 h 58.297 v -8.8712 h -5.196 c -6.826,0 -12.082,-3.7674 -16.666,-12.9175 L 957.293,211.876 Z m -778.6746,3.547 h -58.804 v 3.1684 5.7029 h 6.211 c 3.351,0 5.889,1.0011 8.22,3.1945 l 0.03,0.031 0.03,0.03 c 2.516,2.2376 3.616,4.5054 3.752,7.3846 v 119.6496 c -0.139,2.9257 -1.205,5.2202 -3.564,7.4419 -2.126,1.9915 -4.574,2.9409 -7.968,2.9409 h -6.717 v 8.8712 h 108.252 l 16.378,-42.5818 h -9.207 l -0.836,1.8814 c -2.632,5.9217 -5.321,10.6143 -7.976,14.051 l -0.03,0.036 -0.03,0.037 c -2.328,3.2004 -5.944,6.1219 -11.021,8.6603 -4.864,2.4326 -10.948,3.7219 -18.354,3.7219 h -36.372 V 234.812 c 0,-2.8866 0.962,-5.0946 3.281,-7.2903 2.509,-2.2175 5.17,-3.229 8.505,-3.229 h 6.21 z m 148.9,34.9896 23.721,58.0332 h -48.29 z m 632.6736,0 23.722,58.0332 h -48.29 z m -882.5586,140.9113 -100.433,0.01 v 3.1683 6.7705 h 7.852 c 5.472,0 9.751,1.8457 13.551,5.856 l 0.06,0.062 0.06,0.059 c 4.023,3.8116 5.999,8.1563 6.216,13.6454 v 199.748 c -0.217,5.4893 -2.192,9.8337 -6.216,13.6456 l -0.03,0.029 -0.03,0.03 c -3.784,3.7835 -8.097,5.5562 -13.61,5.5562 h -7.852 v 9.9397 h 85.563 l -0.993,-9.9397 h -7.191 c -5.75,0 -10.323,-1.7922 -14.326,-5.5581 -3.787,-4.0229 -5.561,-8.4846 -5.561,-13.9692 v -211.538 h 19.887 c 8.604,0 15.76,0.1204 21.454,0.3572 12.708,0.6826 22.356,5.4803 29.755,14.6725 7.412,9.2088 11.439,21.4093 11.908,36.9869 v 8.2185 c 0,3.7028 -0.656,7.8364 -2.02,12.392 -3.667,11.5602 -9.804,20.0327 -18.544,25.859 -8.745,5.8299 -20.24,9.0266 -34.704,9.3761 h -0.05 -0.05 c -4.525,0.2384 -8.32,0.3556 -11.362,0.3556 -3.04,0 -5.459,-0.1215 -7.171,-0.3355 l -3.562,-0.4453 v 10.36 h 3.169 c 6.559,0 13.417,3.4669 20.736,11.239 2.574,2.8091 5.031,5.7346 7.373,8.7789 l 0.04,0.049 0.04,0.047 c 1.992,2.39 10.766,14.6783 25.408,35.8016 14.659,21.1471 23.418,33.492 26.803,37.6587 l 0.07,0.084 0.07,0.08 c 3.418,3.6613 7.306,7.5491 11.669,11.6694 l 0.07,0.062 0.07,0.058 c 4.941,4.1603 11.9,8.0952 20.958,12.0121 l 0.03,0.016 0.03,0.013 c 9.282,3.7632 19.314,5.6364 30.01,5.6364 h 22.206 0.776 150.829 l 22.25,-57.8522 h -10.223 l -0.857,1.8159 c -4.015,8.5023 -8.007,15.2828 -11.891,20.3094 l -0.03,0.037 -0.03,0.037 c -3.466,4.7667 -8.791,9.0421 -16.146,12.719 l -0.02,0.01 -0.02,0.01 c -6.878,3.5497 -15.606,5.411 -26.286,5.411 h -53.39 v -85.1659 h 59.279 c 1.827,0.2119 3.527,0.6151 5.121,1.2015 3.914,1.911 5.635,4.894 5.635,10.7606 v 7.8517 h 10.3 v -56.7711 h -10.3 v 7.8518 c 0,3.678 -1.021,6.3653 -3.129,8.6656 l -0.05,0.055 -0.05,0.058 c -1.736,2.0839 -4.204,3.1829 -8.373,3.1829 h -58.434 v -85.1659 h 71.763 c 4.563,0 7.855,1.3997 10.652,4.3971 2.86,3.0634 4.191,6.4678 4.191,10.8072 v 8.2976 l 10.301,0.9358 V 419.886 l -4.456,1.9804 c -1.465,0.6512 -6.353,1.9601 -13.725,3.387 -7.189,1.3914 -15.644,2.1042 -25.336,2.1042 h -108.361 v 9.9393 h 8.213 c 5.104,0 9.146,1.4976 12.674,4.6107 3.506,3.094 5.052,6.4857 5.052,10.9532 v 171.0097 c -0.213,4.486 -1.92,8.1299 -5.485,11.4861 -3.266,3.0615 -7.137,4.5466 -12.241,4.5466 h -7.437 -0.776 -2.393 c -7.477,0 -14.416,-1.5708 -20.957,-4.7284 l -0.03,-0.011 -0.03,-0.011 c -2.879,-1.329 -5.802,-3.1218 -8.762,-5.399 -3.041,-2.3384 -5.837,-4.6699 -8.395,-6.9919 -2.576,-2.5789 -6.981,-7.2205 -13.166,-13.8809 -5.922,-6.6098 -19.475,-24.9478 -40.097,-54.4427 l -0.02,-0.026 -0.02,-0.026 c -3.962,-5.4475 -8.533,-10.6351 -13.706,-15.5614 -1.956,-2.0476 -3.809,-3.7815 -5.614,-5.3266 14.052,-2.1572 26.359,-9.3491 36.467,-21.3119 12.464,-14.7082 18.762,-32.2485 18.762,-52.1208 0,-20.1248 -6.596,-36.8636 -19.692,-49.4634 -13.148,-12.8883 -31.283,-19.2701 -53.725,-19.2701 z m 615.8476,30.9858 -0.21,2.9425 c -0.165,2.3135 -2.215,9.2136 -6.258,19.2018 -0.867,2.1196 -8.407,18.5397 -22.094,47.9537 -13.684,29.4097 -33.675,72.2151 -59.9646,128.3943 -3.168,6.5609 -7.132,11.3493 -11.88,14.5913 -4.633,3.0871 -9.026,4.505 -13.362,4.505 h -6.051 v 9.9396 h 75.1436 v -9.9396 h -6.05 c -4.098,0 -6.492,-1.1266 -8.268,-3.4176 -2.14,-3.0128 -2.973,-5.4335 -2.973,-7.103 0,-2.4363 0.505,-5.0403 1.583,-7.8502 l 18.962,-44.8196 h 86.925 l 18.963,45.8568 c 0.827,2.2847 1.241,4.654 1.241,7.1731 0,1.6817 -0.807,3.9344 -2.946,6.7144 -1.81,2.3534 -4.095,3.4462 -7.935,3.4462 h -6.05 v 9.9396 h 77.018 75.978 v -9.9396 h -7.491 c -4.341,0 -6.845,-1.1571 -8.591,-3.3806 -1.917,-3.0229 -2.651,-5.334 -2.651,-6.4201 0,-1.3399 0.488,-2.7811 1.855,-4.539 l 0.02,-0.029 49.993,-67.4568 47.07,67.5349 c 0.945,1.7306 1.356,3.3044 1.356,4.8509 0,0.6006 -0.777,2.9532 -3.012,6.0833 l -0.01,0.019 -0.01,0.019 c -1.536,2.2193 -3.725,3.3181 -7.842,3.3181 h -7.491 v 9.9391 h 91.715 v -9.9391 h -7.852 c -4.002,0 -9.344,-1.0906 -15.846,-3.411 -5.797,-2.1508 -11.187,-6.3746 -16.189,-12.959 l -63.148,-90.3119 56.634,-78.7959 c 3.82,-4.9401 8.512,-8.9655 14.16,-12.1285 l 0.02,-0.01 0.02,-0.011 c 5.817,-3.3568 11.711,-4.9798 17.87,-4.9798 h 8.211 v -9.9393 h -86.311 v 9.9393 h 7.491 c 4.064,0 6.198,1.1237 7.782,3.5881 l 0.07,0.1127 0.08,0.1063 c 2.186,2.8418 2.946,5.0052 2.946,5.9933 0,1.4577 -0.429,2.7583 -1.528,4.223 l -0.05,0.072 -41.065,61.7667 -43.055,-61.7027 c -1.197,-1.797 -1.626,-3.2314 -1.626,-4.359 0,-1.1015 0.711,-3.2684 2.663,-6.0958 1.82,-2.5394 4.162,-3.7046 8.219,-3.7046 h 7.491 v -9.9394 H 808.88 v 9.9394 h 7.852 c 6.159,0 12.052,1.6229 17.87,4.9797 l 0.06,0.035 0.06,0.033 c 6.119,3.1727 10.731,7.0507 14.004,11.6303 l 59.531,85.5956 -65.515,83.8312 c -9.404,11.2312 -19.775,16.5012 -31.78,16.5012 h -1.84 c -10.243,0 -18.24,-5.8309 -24.889,-19.1114 L 694.446,422.3083 Z m -290.9926,5.043 v 3.1684 6.7712 h 7.491 c 5.06,0 9.058,1.5703 12.599,4.903 l 0.03,0.03 0.03,0.03 c 3.796,3.374 5.571,6.9898 5.782,11.43 v 170.1803 c -0.213,4.486 -1.919,8.1296 -5.484,11.4861 -3.266,3.0615 -7.138,4.5464 -12.242,4.5464 h -8.212 v 9.9396 h 151.604 l 22.251,-57.8523 h -10.274 l -0.836,1.8815 c -3.771,8.4844 -7.635,15.2408 -11.501,20.2438 l -0.03,0.037 -0.03,0.037 c -3.467,4.7667 -8.792,9.0419 -16.146,12.7191 -7.142,3.571 -16.003,5.4297 -26.683,5.4297 h -53.03 V 453.5772 c 0,-4.4532 1.564,-8.0129 5.095,-11.3495 3.792,-3.3576 7.946,-4.9356 12.991,-4.9356 h 7.492 v -9.9396 z m 293.8916,44.9194 35.682,87.2913 h -72.637 z"
       id="path1571"
       transform="matrix(1.9019352,0,0,1.9019352,-130.47578,-449.96613)"
       inkscape:export-filename="C:\Users\dania\Google Drive (paula.alzq4@gmail.com)\Trabajo\PlanetaRelax\Logos\Logo_Final_Blanco.png"
       inkscape:export-xdpi="20"
       inkscape:export-ydpi="20" />
    <path
       style="font-style:normal;font-weight:normal;font-size:238.98574829px;line-height:1.25;font-family:sans-serif;letter-spacing:0px;word-spacing:0px;fill:#ffffff;fill-opacity:1;stroke:none;stroke-width:11.3633852;stroke-opacity:1"
       d="m -123.06031,-49.051596 0.62403,6.24482 0.96618,9.66145 h 10.59777 c 6.28818,0 11.1423,1.92837 15.642086,6.17843 l 0.0628,0.05894 0.06279,0.05521 c 4.435877,3.942708 6.85077,8.624329 7.637794,14.925623 V 241.43879 c -0.259237,6.53278 -2.55944,11.75263 -7.426494,16.61987 -4.487234,4.48705 -9.412296,6.51908 -15.980246,6.51908 h -11.58963 V 280.484 h 110.906209 v -15.90626 h -11.589816 c -6.511661,0 -11.635851,-2.05865 -16.418458,-6.54189 -4.515958,-4.81666 -6.736079,-10.05573 -6.99227,-16.61227 V -24.05119 H 0.032619 c 17.827977,0 30.64664,5.603294 40.179137,17.042481 l 0.02288,0.02662 0.02288,0.02662 c 9.603439,11.250517 14.877125,26.630897 15.45683,46.928348 v 9.836428 c 0,4.813799 -0.805081,10.008554 -2.48126,15.60576 C 47.543064,83.60309 37.346788,96.023488 21.999687,103.83645 h -0.01903 -0.01902 c -17.636988,9.10282 -36.523388,11.37887 -57.54148,6.77181 l -6.897563,-1.51261 v 15.08197 l 3.098257,1.58259 c 14.577376,7.45084 31.728652,11.07745 51.218346,11.07745 7.255312,0 15.372395,-1.68531 24.54258,-4.84442 26.296144,-8.87177 45.390427,-25.06047 56.040507,-47.945316 5.81536,-12.279655 8.725896,-25.590919 8.725896,-39.69567 0,-28.406733 -8.916466,-51.632404 -26.775826,-68.216515 C 56.507097,-40.750796 31.950266,-49.046836 1.838639,-49.046836 Z m 1645.49121,35.014061 -7.7935,3.116314 c -11.0295,4.411734 -27.3992,6.865421 -48.7966,6.865421 h -148.1803 c -5.0303,0 -13.2684,-0.582563 -24.372,-1.782874 -10.6103,-1.178439 -18.6992,-2.974057 -23.9709,-5.082547 l -7.7918,-3.115368 v 8.391722 57.046453 h 16.3631 V 38.444844 c 0,-5.147588 1.4352,-9.015364 4.4616,-12.544405 3.1673,-3.356915 6.892,-4.955681 12.5826,-4.955681 h 76.5896 V 245.48475 c -0.2461,5.25352 -2.1568,9.37844 -6.3935,13.36547 -4.1802,3.93415 -8.7339,5.72825 -14.7438,5.72825 h -11.1368 v 15.90627 h 105 v -15.90627 h -10.6824 c -4.0197,0 -7.4034,-0.84352 -10.4872,-2.50352 l -0.04,-0.0229 -0.044,-0.0229 c -7.3933,-3.8246 -10.318,-8.3902 -10.5646,-16.04416 V 20.944377 h 76.5898 c 5.3752,0 8.9794,1.554071 12.21,5.014071 3.3394,3.579063 4.8364,7.384264 4.8364,12.485445 v 12.956933 h 16.3637 z m -296.3027,0.106566 -7.9906,3.550725 c -1.4775,0.657114 -7.6902,2.367717 -16.953,4.16067 -8.9346,1.72943 -19.4994,2.626193 -31.646,2.626193 h -138.4073 v 15.906265 h 12.0466 c 6.0895,0 10.7207,1.73019 14.8777,5.398071 4.1179,3.633837 5.8027,7.355544 5.8027,12.558859 V 245.94716 c -0.2462,5.25353 -2.1562,9.37351 -6.3934,13.36148 -3.8119,3.57088 -8.2015,5.27426 -14.287,5.27426 h -12.0466 v 15.90626 h 194.1279 l 29.3689,-76.3587 h -16.4196 l -1.5384,3.25326 c -5.0296,10.65179 -10.0155,19.11083 -14.8103,25.31609 l -0.051,0.0665 -0.048,0.0665 c -4.1732,5.73871 -10.6582,10.97968 -19.7621,15.53178 l -0.034,0.019 -0.034,0.019 c -8.3756,4.32367 -19.1115,6.63851 -32.3919,6.63851 h -65.6803 V 150.95115 h 72.9202 c 2.1501,0.24992 4.1314,0.72749 5.9882,1.40439 4.3207,2.13511 6.0882,5.07398 6.0882,12.00578 v 11.58982 h 16.363 v -74.99653 h -16.363 v 11.58963 c 0,4.29704 -1.1264,7.2032 -3.5031,9.7963 l -0.093,0.1008 -0.085,0.1046 c -1.8383,2.20568 -4.3484,3.41036 -9.272,3.41036 h -72.0434 V 21.865671 h 88.8602 c 5.3754,0 8.9815,1.551409 12.2106,5.011599 3.3394,3.57735 4.8364,7.388258 4.8364,12.488868 v 12.005395 l 16.3628,1.486552 z m -530.50242,2.900638 0.8766,7.002738 0.91845,7.328917 v 0.05515 c 2.07121,14.205934 3.11936,30.458921 3.11936,48.725868 V 246.6223 c 0,5.28985 -1.6389,9.0785 -5.47548,12.67506 -3.85712,3.61615 -8.10586,5.28187 -13.84057,5.28187 h -13.40617 v 15.90626 h 97.26896 v -15.90626 h -13.40998 c -5.73471,0 -9.98325,-1.66515 -13.84057,-5.28187 -3.83697,-3.59693 -5.47548,-7.38578 -5.47548,-12.67506 V 70.299785 L 960.77119,286.8486 h 12.70434 l -1.61588,-14.55398 -0.0187,-0.0665 c -2.08382,-15.48062 -3.13162,-31.89165 -3.13162,-49.23825 V 29.612827 c 0.24068,-4.975842 1.95811,-8.54007 5.78698,-11.890518 l 0.075,-0.06276 0.069,-0.06657 c 3.9001,-3.6559 8.0133,-5.281674 13.3887,-5.281674 h 13.40569 V -3.595146 h -97.26989 v 15.906454 h 13.41036 c 5.37487,0 9.48818,1.625774 13.38809,5.281674 l 0.0704,0.06657 0.0704,0.06276 c 3.85312,3.37213 5.74783,7.079763 6.24404,12.091362 V 204.82917 L 709.58998,-9.759138 Z m 951.97822,1.066232 h -13.0536 l -0.3753,5.275203 c -0.1674,2.359541 -2.6978,11.161887 -7.7745,23.707242 -0.9787,2.392824 -10.577,23.321149 -27.846,60.43475 -17.2619,37.098764 -42.4854,91.104404 -75.6462,161.968984 -3.9005,8.0781 -8.7187,13.86264 -14.4353,17.76408 -5.621,3.73901 -10.8148,5.39008 -15.9032,5.39008 h -9.3167 v 15.90627 h 98.1802 v -15.90627 h -9.3194 c -4.7927,0 -7.1721,-1.20126 -9.0797,-3.65248 -2.5457,-3.60302 -3.4174,-6.34903 -3.4174,-7.94114 0,-2.84282 0.5868,-5.92396 1.887,-9.30959 l 23.4667,-55.46044 h 107.4326 l 23.4626,56.73797 c 0.9793,2.70283 1.4744,5.49374 1.4744,8.48891 0,1.61074 -0.8112,4.11825 -3.3695,7.44416 -1.9706,2.56134 -4.2165,3.69261 -8.6776,3.69261 h -9.3161 v 15.90627 h 104.543 v -15.90627 h -9.3197 c -12.2522,0 -21.6822,-6.76841 -29.9067,-23.21007 v -0.019 z m -1147.61773,0 -0.3743,5.275203 c -0.16928,2.361062 -2.69924,11.161887 -7.77588,23.707242 -0.97912,2.393776 -10.57609,23.321149 -27.84452,60.43475 -17.26254,37.098764 -42.48638,91.104404 -75.64776,161.968984 -3.89688,8.07258 -8.71125,13.85465 -14.42314,17.75609 -5.62611,3.74453 -10.82182,5.39807 -15.91444,5.39807 h -9.31605 v 15.90627 h 98.17979 v -15.90627 h -9.31663 c -4.78717,0 -7.16896,-1.19973 -9.07451,-3.6443 -2.55089,-3.60759 -3.42501,-6.35664 -3.42501,-7.94932 0,-2.84587 0.58826,-5.92453 1.89053,-9.31264 l 23.46569,-55.44997 h 107.43005 l 23.4617,56.73815 c 0.97911,2.70227 1.47495,5.4926 1.47495,8.48833 0,1.61228 -0.80832,4.11884 -3.36605,7.44418 -1.97021,2.56077 -4.22001,3.69261 -8.68062,3.69261 h -9.31662 v 15.90626 h 104.54309 v -15.90626 h -9.32024 c -12.25245,0 -21.68225,-6.76728 -29.90736,-23.2095 v -0.019 L 513.04039,-9.961637 Z m -261.81585,6.361208 h -105.4545 v 5.67994 10.226324 h 11.13679 c 6.00954,0 10.55973,1.798091 14.7398,5.732243 l 0.0589,0.05136 0.059,0.05515 c 4.52241,4.01974 6.49245,8.093305 6.73151,13.269422 V 245.92124 c -0.24249,5.26171 -2.15489,9.38453 -6.39639,13.37669 -3.81186,3.57089 -8.2021,5.27464 -14.28638,5.27464 h -12.0442 v 15.90626 H 326.8392 l 29.37253,-76.35965 h -16.51222 l -1.50062,3.37308 c -4.71909,10.61908 -9.53992,19.03495 -14.30142,25.19779 l -0.0532,0.0647 -0.0475,0.0665 c -4.17436,5.73928 -10.65767,10.9793 -19.76262,15.53082 -8.72265,4.36209 -19.63196,6.6718 -32.91261,6.6718 H 205.89859 V 31.167849 c 0,-5.173643 1.7317,-9.133473 5.8842,-13.068196 4.49884,-3.975806 9.27175,-5.799001 15.25315,-5.799001 h 11.13278 z m 267.01726,62.740468 42.53659,104.071033 h -86.59702 z m 1134.55902,0 42.5418,104.067423 h -86.5978 z M -123.0352,311.8387 v 5.67975 12.14329 h 14.08364 c 9.813412,0 17.48487,3.30651 24.297985,10.49753 l 0.108433,0.11217 0.112169,0.10844 c 7.220318,6.83973 10.761916,14.63519 11.148005,24.4878 v 358.16597 c -0.386089,9.85316 -3.927687,17.64995 -11.148005,24.49083 l -0.05521,0.0514 -0.05509,0.0552 c -6.784974,6.78439 -14.519949,9.96272 -24.406207,9.96272 h -14.08268 v 17.82303 H 30.40779 L 28.628908,757.59377 H 15.730934 c -10.306577,0 -18.502016,-3.2215 -25.67993,-9.96976 -6.79047,-7.21461 -9.980774,-15.21187 -9.980774,-25.04772 V 343.22862 h 35.660704 c 15.43421,0 28.267895,0.21778 38.480722,0.64248 22.784798,1.22598 40.084418,9.82596 53.351364,26.30794 13.29263,16.51565 20.51522,38.39874 21.35625,66.33703 v 14.73277 c 0,6.64003 -1.17957,14.05245 -3.62584,22.22125 -6.57555,20.72959 -17.57844,35.92282 -33.250766,46.37128 -15.68222,10.45475 -36.294625,16.18508 -62.232274,16.81254 h -0.08182 -0.08182 c -8.115368,0.42717 -14.92106,0.63847 -20.374857,0.63847 -5.453039,0 -9.790789,-0.21739 -12.860321,-0.60119 l -6.385941,-0.7992 v 18.57792 h 5.679944 c 11.763275,0 24.062904,6.21781 37.188344,20.15556 4.615615,5.03671 9.020887,10.28415 13.220159,15.74308 l 0.06653,0.0894 0.07038,0.0818 c 3.571256,4.28602 19.306921,26.32602 45.565036,64.20591 26.287216,37.92269 41.993206,60.05722 48.064176,67.52954 l 0.12173,0.15216 0.13313,0.14455 c 6.12766,6.56548 13.10073,13.5355 20.9249,20.9249 l 0.11793,0.11217 0.12172,0.10458 c 8.85921,7.46033 21.33743,14.51842 37.5809,21.54189 l 0.0589,0.0266 0.0628,0.0228 c 16.64459,6.74825 34.63463,10.10784 53.81488,10.10784 h 39.82139 1.38936 270.48047 l 39.90242,-103.74391 h -18.33485 l -1.53448,3.25668 c -7.19959,15.24763 -14.35771,27.40594 -21.32278,36.41959 l -0.0514,0.0665 -0.0475,0.0665 c -6.21685,8.54768 -15.76799,16.2142 -28.95696,22.80801 l -0.0342,0.019 -0.0305,0.019 c -12.33348,6.36559 -27.98716,9.70311 -47.13965,9.70311 H 391.21588 V 591.30035 h 106.24038 c 3.29814,0.37792 6.35912,1.10751 9.23504,2.16536 7.01547,3.42634 10.11829,8.76716 10.11829,19.28639 v 14.07964 h 18.4697 V 525.02572 h -18.4697 v 14.0785 c 0,6.59572 -1.83118,11.41808 -5.61299,15.543 l -0.0931,0.097 -0.0856,0.10458 c -3.11441,3.73692 -7.53813,5.70941 -15.01502,5.70941 H 391.21364 V 407.83204 h 128.69311 c 8.18288,0 14.08364,2.51054 19.10076,7.88656 5.12685,5.49355 7.51454,11.59762 7.51454,19.37939 v 14.8777 l 18.47388,1.67883 v -88.61116 l -7.99079,3.55072 c -2.62676,1.16798 -11.39278,3.51555 -24.61351,6.0744 -12.89247,2.49497 -28.0545,3.7742 -45.43514,3.7742 H 292.63996 v 17.82304 h 14.72763 c 9.15363,0 16.4,2.68629 22.7266,8.26847 6.28817,5.5489 9.06082,11.62881 9.06082,19.64072 v 306.63075 c -0.37277,8.0661 -3.43242,14.61105 -9.84042,20.64208 -5.85549,5.48613 -12.79794,8.14657 -21.947,8.14657 h -13.33923 -1.3884 -4.29153 c -13.40884,0 -25.85149,-2.81506 -37.58091,-8.47674 l -0.0438,-0.0229 -0.0438,-0.0228 c -5.16299,-2.38332 -10.4051,-5.5974 -15.71398,-9.68085 -5.45855,-4.19852 -10.47605,-8.38735 -15.06598,-12.55639 -4.6124,-4.61656 -12.50504,-12.92327 -23.57792,-24.84707 0,0 -0.019,-0.019 -0.019,-0.0228 -10.61584,-11.84487 -34.92048,-44.72971 -71.91312,-97.63774 l -0.0305,-0.0438 -0.0305,-0.0399 c -7.0809,-9.73524 -15.25467,-19.00509 -24.491786,-27.81238 -3.65077,-3.82707 -7.05257,-6.88406 -10.41252,-9.73639 25.287166,-3.82803 47.473626,-16.6153 65.650606,-38.12791 22.34888,-26.37489 33.64029,-57.82757 33.64029,-93.46222 0,-36.07934 -11.82071,-66.09245 -35.29345,-88.68439 l -0.019,-0.0209 C 129.82579,323.28369 97.300224,311.83861 57.054143,311.83861 Z m 1299.2746,55.55249 h -14.7771 l -0.3783,5.2752 c -0.2964,4.15003 -3.972,16.53029 -11.2259,34.45051 -1.5585,3.8073 -15.0774,33.2407 -39.6179,85.98117 -24.5392,52.738 -60.3855,129.49934 -107.5263,230.238 -5.68219,11.76975 -12.79529,20.3547 -21.31069,26.17044 -8.31017,5.53597 -16.18765,8.08266 -23.96393,8.08266 h -10.85087 v 17.82303 h 134.75479 v -17.82303 h -10.8504 c -7.338,0 -11.626,-2.01682 -14.8108,-6.11416 -3.8406,-5.40644 -5.3457,-9.75692 -5.3457,-12.75247 0,-4.3716 0.9068,-9.04446 2.8423,-14.08612 l 34.0011,-80.36494 h 155.8804 l 34.0005,82.2218 c 1.486,4.10115 2.2329,8.35331 2.2329,12.87477 0,3.01629 -1.4483,7.05523 -5.2828,12.04021 -3.2468,4.22039 -7.3436,6.18091 -14.2307,6.18091 h -10.8503 v 17.82303 h 138.1159 136.2489 v -17.82303 h -13.4326 c -7.7635,0 -12.2489,-2.06665 -15.3789,-6.03256 -3.4415,-5.42471 -4.7805,-9.59336 -4.7805,-11.54133 0,-2.40233 0.8726,-4.98687 3.3242,-8.13914 l 0.04,-0.0514 89.6508,-120.97316 84.3839,121.07339 c 1.7079,3.11746 2.4588,5.95306 2.4592,8.73692 0,1.07783 -1.3919,5.29727 -5.401,10.91026 l -0.027,0.0342 -0.023,0.0342 c -2.7552,3.97999 -6.6807,5.95116 -14.0635,5.95116 h -13.4324 v 17.82303 h 164.4695 v -17.82303 h -14.0796 c -7.1771,0 -16.7579,-1.95899 -28.4135,-6.11815 -10.4014,-3.85826 -20.0749,-11.43272 -29.0488,-23.2504 L 1616.3132,566.28092 1717.8556,425.00289 c 6.8539,-8.87081 15.2722,-16.09855 25.4115,-21.77639 l 0.03,-0.019 0.034,-0.019 c 10.4329,-6.01906 21.0025,-8.93054 32.0472,-8.93016 h 14.7245 V 376.43532 H 1635.323 v 17.82303 h 13.432 c 7.2877,0 11.1152,2.01397 13.9563,6.43368 l 0.1293,0.20028 0.1445,0.1938 c 3.9207,5.09605 5.2819,8.9739 5.2819,10.7467 0,2.61326 -0.7669,4.94825 -2.7371,7.57445 l -0.097,0.12553 -73.6402,110.76586 -77.2066,-110.6352 v -0.019 c -2.1433,-3.21997 -2.9123,-5.79101 -2.9123,-7.81144 0,-1.97763 1.2774,-5.86804 4.7842,-10.94297 3.2614,-4.54506 7.4618,-6.63205 14.7293,-6.63148 h 13.4325 v -17.82303 h -163.1767 v 17.82303 h 14.0791 c 11.0452,0 21.6143,2.9111 32.0469,8.93015 l 0.1121,0.0628 0.112,0.0589 c 10.9793,5.69345 19.2561,12.65053 25.1268,20.86917 l 106.7417,153.48522 -117.4733,150.31641 c -16.8665,20.14987 -35.4705,29.60533 -57.0029,29.60533 h -3.2985 c -18.3772,0 -32.7209,-10.46596 -44.6478,-34.30539 z m -391.51899,9.04826 H 639.62995 v 5.67994 12.1431 h 13.43242 c 9.07413,-5.7e-4 16.24254,2.816 22.5931,8.79226 l 0.0589,0.0551 0.0589,0.0513 c 6.80969,6.05329 9.99296,12.54175 10.3684,20.50933 v 305.16094 c -0.37944,8.05241 -3.44041,14.58936 -9.84042,20.6124 -5.85549,5.48557 -12.79889,8.14714 -21.947,8.14714 h -14.72517 v 17.82303 h 271.86985 l 39.89974,-103.74542 h -18.42595 l -1.50043,3.37707 c -6.76196,15.21491 -13.68823,27.32834 -20.62059,36.29977 l -0.0514,0.0665 -0.0475,0.0665 c -6.21666,8.54768 -15.76438,16.21381 -28.95278,22.80801 -12.80782,6.40401 -28.69659,9.73619 -47.84907,9.73619 H 738.85033 V 423.46157 c 0,-7.99079 2.81352,-14.37407 9.15306,-20.36079 6.79504,-6.01107 14.24017,-8.84058 23.28007,-8.84058 h 13.4364 z m 381.93819,80.55153 63.9861,156.53781 H 1100.388 Z"
       id="text4696-5"
       inkscape:connector-curvature="0"
       inkscape:export-filename="C:\Users\dania\Google Drive (paula.alzq4@gmail.com)\Trabajo\PlanetaRelax\Logos\Logo_Final_Blanco.png"
       inkscape:export-xdpi="20"
       inkscape:export-ydpi="20" />
  </g>
</svg>
