<?xml version="1.0" encoding="UTF-8" standalone="no"?>
<!-- Created with Inkscape (http://www.inkscape.org/) -->

<svg
   xmlns:dc="http://purl.org/dc/elements/1.1/"
   xmlns:cc="http://creativecommons.org/ns#"
   xmlns:rdf="http://www.w3.org/1999/02/22-rdf-syntax-ns#"
   xmlns:svg="http://www.w3.org/2000/svg"
   xmlns="http://www.w3.org/2000/svg"
   xmlns:sodipodi="http://sodipodi.sourceforge.net/DTD/sodipodi-0.dtd"
   xmlns:inkscape="http://www.inkscape.org/namespaces/inkscape"
   width="198.4541mm"
   height="76.914108mm"
   viewBox="0 0 198.4541 76.914108"
   version="1.1"
   id="svg18129"
   inkscape:version="0.92.4 (5da689c313, 2019-01-14)"
   sodipodi:docname="logo_contornos.svg">
  <defs
     id="defs18123" />
  <sodipodi:namedview
     id="base"
     pagecolor="#ffffff"
     bordercolor="#666666"
     borderopacity="1.0"
     inkscape:pageopacity="0.0"
     inkscape:pageshadow="2"
     inkscape:zoom="0.35"
     inkscape:cx="-173.53712"
     inkscape:cy="173.91997"
     inkscape:document-units="mm"
     inkscape:current-layer="layer1"
     showgrid="false"
     inkscape:window-width="1366"
     inkscape:window-height="705"
     inkscape:window-x="-8"
     inkscape:window-y="-8"
     inkscape:window-maximized="1" />
  <metadata
     id="metadata18126">
    <rdf:RDF>
      <cc:Work
         rdf:about="">
        <dc:format>image/svg+xml</dc:format>
        <dc:type
           rdf:resource="http://purl.org/dc/dcmitype/StillImage" />
        <dc:title></dc:title>
      </cc:Work>
    </rdf:RDF>
  </metadata>
  <g
     inkscape:label="Capa 1"
     inkscape:groupmode="layer"
     id="layer1"
     transform="translate(-151.74836,-117.93555)">
    <path
       style="color:#000000;font-style:normal;font-variant:normal;font-weight:normal;font-stretch:normal;font-size:medium;line-height:normal;font-family:sans-serif;font-variant-ligatures:normal;font-variant-position:normal;font-variant-caps:normal;font-variant-numeric:normal;font-variant-alternates:normal;font-feature-settings:normal;text-indent:0;text-align:start;text-decoration:none;text-decoration-line:none;text-decoration-style:solid;text-decoration-color:#000000;letter-spacing:normal;word-spacing:normal;text-transform:none;writing-mode:lr-tb;direction:ltr;text-orientation:mixed;dominant-baseline:auto;baseline-shift:baseline;text-anchor:start;white-space:normal;shape-padding:0;clip-rule:nonzero;display:inline;overflow:visible;visibility:visible;opacity:1;isolation:auto;mix-blend-mode:normal;color-interpolation:sRGB;color-interpolation-filters:linearRGB;solid-color:#000000;solid-opacity:1;vector-effect:none;fill:#ff0000;fill-opacity:1;fill-rule:nonzero;stroke:none;stroke-width:0.62399906;stroke-linecap:butt;stroke-linejoin:miter;stroke-miterlimit:4;stroke-dasharray:none;stroke-dashoffset:0;stroke-opacity:1;color-rendering:auto;image-rendering:auto;shape-rendering:auto;text-rendering:auto;enable-background:accumulate"
       d="m 160.26367,117.93555 -0.53125,0.30664 c 1.197,3.43588 1.66105,10.34823 -1.92383,24.3789 -0.97955,3.8335 -1.45399,7.18864 -1.66601,10.24805 l 0.58984,0.16211 c 0.58322,-1.15649 1.17729,-2.31586 1.9043,-3.54102 2.85575,-4.81336 4.82063,-8.76725 6.16016,-12.02929 l 0.0215,-0.0527 0.002,-0.0547 c 0.26191,-6.87977 0.0486,-14.08569 -4.55664,-19.41797 z m 28.74219,0 c -4.60536,5.33228 -4.82056,12.5382 -4.55859,19.41797 l 0.002,0.0547 0.0215,0.0527 c 1.33945,3.26204 3.30433,7.21593 6.16016,12.02929 0.72693,1.22513 1.32105,2.38448 1.9043,3.54102 l 0.58984,-0.16211 c -0.212,-3.05939 -0.68459,-6.41453 -1.66406,-10.24805 -3.58489,-14.03067 -3.12286,-20.94303 -1.92578,-24.3789 z m -0.44531,1.8789 c -0.86391,3.97971 -0.83693,10.70337 2.29492,22.96094 0.80831,3.16362 1.21658,5.93782 1.46875,8.54492 -0.37065,-0.70848 -0.71258,-1.4007 -1.15625,-2.14843 -2.83044,-4.77058 -4.77274,-8.68123 -6.09766,-11.9004 -0.23444,-6.2266 0.11051,-12.50874 3.49024,-17.45703 z m -27.85157,0.002 c 3.3782,4.94797 3.72265,11.22941 3.48829,17.45507 -1.32501,3.21918 -3.2673,7.12982 -6.09766,11.9004 -0.44369,0.74771 -0.78549,1.43995 -1.15625,2.14843 0.25226,-2.60709 0.66036,-5.38129 1.46875,-8.54492 3.1313,-12.25543 3.16026,-18.97896 2.29687,-22.95898 z m 21.54883,4.95117 -0.56445,0.0293 h -0.002 c 0,0 0,0.002 0,0.002 h -0.002 -0.0156 l -0.23047,0.0137 -0.0527,0.21094 c -3.26506,5.55853 -2.59846,11.62565 -0.97851,17.44726 1.70462,6.12569 4.43558,12.01 4.76367,16.78516 0.25041,3.64472 -1.18554,6.4648 -2.85937,9.01172 -1.6447,2.50242 -3.49958,4.72778 -4.16993,7.19922 l 0.084,-0.0176 c -0.0514,0.0127 -0.0711,0.0687 -0.11719,0.0898 -0.005,0.0191 -0.0225,0.0356 -0.0273,0.0547 l 0.0117,-0.043 c -0.36196,0.17724 -0.58399,0.56225 -0.58399,1.0293 0,0.40688 0.14552,0.77903 0.44141,1 l -0.006,-0.004 -0.0566,-0.0449 c 0.0513,1.25178 0.45928,2.57326 1.40039,4.01172 2.72587,4.16679 6.33871,4.81325 9.2207,4.38672 2.86021,-0.42334 4.98133,-1.83626 5.0625,-1.89063 l 0.0293,-0.0195 0.0234,-0.0254 c 0.0551,-0.0585 0.6918,-0.7455 1.46484,-2.16797 0.77304,-1.42247 1.65364,-3.55071 2.11133,-6.40039 0.91951,-5.72506 0.10888,-14.33492 -6.74414,-25.88476 -8.68046,-14.63004 -9.19721,-21.39145 -8.47071,-24.32422 z m -14.52148,0.002 -0.54688,0.0859 0.084,0.33203 c 0.73471,2.92032 0.23423,9.68765 -8.46875,24.35547 -6.85298,11.54985 -7.66562,20.15774 -6.7461,25.88281 0.91537,5.69933 3.50221,8.48951 3.57618,8.56836 l 0.0215,0.0234 0.0234,0.0176 c 0.0285,0.0206 0.0232,0.0145 0.043,0.0273 0.0198,0.0128 0.0471,0.031 0.082,0.0527 0.0698,0.0435 0.16991,0.10496 0.29687,0.17774 0.25393,0.14555 0.6178,0.33962 1.06836,0.54687 0.90113,0.41452 2.15201,0.87823 3.58203,1.08985 2.88202,0.42669 6.49289,-0.21806 9.21875,-4.38477 0.94068,-1.43779 1.35064,-2.76048 1.40235,-4.01172 l -0.0547,0.043 -0.006,0.006 c 0.29535,-0.22076 0.43945,-0.59303 0.43945,-1 0,-0.46701 -0.22019,-0.85186 -0.58203,-1.0293 l 0.0117,0.043 c -0.005,-0.0188 -0.0205,-0.0359 -0.0254,-0.0547 -0.0474,-0.0219 -0.0679,-0.0788 -0.12109,-0.0918 l 0.0859,0.0195 c -0.66996,-2.47202 -2.52683,-4.69627 -4.17187,-7.19922 -1.67385,-2.54683 -3.10976,-5.36683 -2.85938,-9.01172 0.32808,-4.77501 3.06108,-10.66139 4.76563,-16.78711 1.62697,-5.84675 2.30193,-11.94116 -1.01172,-17.51953 z m -0.16211,0.0293 c 0,0 0,0.30669 0,0.31055 h -0.0625 -0.2461 -0.002 c 0,-0.002 -1.1e-4,-0.005 0,-0.008 0,0 0.009,-2e-5 0.01,0 z m 14.42773,0.28515 c 0,0 -3.9e-4,0.003 0,0.0117 1.2e-4,0.003 4e-5,0.009 0,0.0156 h 0.002 c 0,0 -0.002,0.007 -0.002,0.0117 -0.001,0.014 -0.004,0.0392 -0.004,0.0391 -1.1e-4,7.8e-4 9e-5,10e-4 0,0.002 -6.9e-4,0.005 -0.002,0.0137 -0.002,0.0137 0,0 -0.002,1e-5 -0.002,0 -0.001,0.003 -0.002,0.007 -0.004,0.0117 l -0.27539,0.22657 c -0.002,5e-4 -0.007,0.002 -0.008,0.002 l -0.0137,-0.0215 V 125.125 l 0.0566,-0.002 c -0.0177,-0.004 -0.0559,-0.0135 -0.0566,-0.0137 v -0.0117 z m -13.98047,1.89258 c 2.17772,4.90542 1.67468,10.14518 0.23243,15.32813 -1.68573,6.05806 -4.44346,11.93679 -4.78516,16.91015 -0.26312,3.83038 1.25862,6.80931 2.95898,9.39649 1.70004,2.58662 3.56314,4.82103 4.14844,7.13867 l 0.0625,0.25 0.24805,0.0547 c 0.0422,0.0103 0.24219,0.21232 0.24219,0.52734 0,0.23649 -0.11834,0.44539 -0.19141,0.5 l -0.004,0.002 -0.1582,0.12696 -0.008,0.19922 v 0.002 c -0.0292,1.15692 -0.40197,2.39033 -1.31836,3.79101 -2.60612,3.98367 -5.88105,4.51274 -8.60547,4.10938 -1.35105,-0.19993 -2.5517,-0.64238 -3.41406,-1.03906 -0.43118,-0.19835 -0.77772,-0.38596 -1.01758,-0.52344 -0.11993,-0.0687 -0.2139,-0.1245 -0.27734,-0.16406 -0.0255,-0.0159 -0.043,-0.027 -0.0586,-0.0371 0.003,0.004 -2.51368,-2.69986 -3.40039,-8.22071 -0.89495,-5.5721 -0.12867,-14.01519 6.66602,-25.46679 7.3972,-12.46709 8.86079,-19.13198 8.67968,-22.88477 z m 13.22071,0.006 c -0.1787,3.75447 1.2895,10.41826 8.68164,22.87696 6.79472,11.45159 7.56096,19.89469 6.66601,25.46679 -0.44553,2.77396 -1.30159,4.83533 -2.04492,6.20313 -0.73397,1.35058 -1.36626,2.02713 -1.35156,2.01172 -0.0395,0.0258 -2.10406,1.37668 -4.77148,1.77148 -2.72439,0.40321 -5.99936,-0.1276 -8.60547,-4.11133 -0.9164,-1.40069 -1.28923,-2.63196 -1.31836,-3.78906 v -0.19922 l -0.16602,-0.13086 -0.004,-0.002 c -0.0725,-0.0542 -0.18945,-0.26367 -0.18945,-0.5 0,-0.31495 0.19974,-0.51504 0.24219,-0.52539 h -0.006 l 0.25195,-0.0566 0.0645,-0.25 c 0.58534,-2.31778 2.44646,-4.55012 4.14648,-7.13672 1.70035,-2.58726 3.22409,-5.56822 2.96094,-9.39844 -0.34171,-4.97346 -3.09936,-10.85208 -4.78516,-16.91016 -1.44154,-5.18046 -1.94532,-10.41711 0.22852,-15.32031 z m -6.51563,21.33985 -0.0957,0.002 c -2.6685,0.0199 -5.31213,0.50384 -7.81445,1.43164 l -0.13868,0.0508 -0.0488,0.14063 c -1.15046,3.38451 -2.17318,6.55374 -2.36329,9.32031 -0.33521,4.87863 2.39878,8.26806 4.64844,11.55078 0.99544,1.45257 1.89425,2.87895 2.34766,4.41406 l 0.0312,0.10938 0.0957,0.0625 c 0.29725,0.19708 0.51753,0.64233 0.51758,1.1582 0,0.36726 -0.11492,0.71117 -0.29687,0.94922 l -0.0566,0.0762 -0.006,0.0937 c -0.0824,1.2409 -0.51292,2.55566 -1.42969,3.95703 -2.7583,4.21633 -6.46762,4.8955 -9.39063,4.46289 -1.45854,-0.21602 -2.71681,-0.69185 -3.63867,-1.11914 l -0.37695,0.47656 c 0.98385,1.24822 2.0894,2.39594 3.31054,3.41602 l 0.0703,0.0586 0.0879,0.0117 c 0.10596,0.0144 0.20836,0.0289 0.30078,0.0352 l -0.0566,-0.008 c 0.0783,0.0199 0.14782,0.0195 0.16992,0.0195 h 0.0254 l -0.0176,-0.002 c 0.008,6.6e-4 0.0177,10e-4 0.0254,0.002 0.22758,0.019 0.4755,0.0342 0.75391,0.0391 0.43811,0.0103 0.9323,-0.0105 1.49219,-0.0606 h 0.002 c 0.56267,-0.0512 1.18863,-0.13819 1.88281,-0.27343 h 0.002 c 0.69441,-0.13577 1.45586,-0.32008 2.28711,-0.56641 0.83094,-0.24594 1.73097,-0.55328 2.70312,-0.93555 0.52449,-0.20616 1.03921,-0.37152 1.54297,-0.5 0.50394,-0.12867 0.99712,-0.22207 1.48242,-0.2832 0.45854,-0.0576 1.40823,-0.0932 1.42383,-0.0937 l 0.85742,0.004 c 0,0 0.97296,0.0358 1.43555,0.0937 0.48519,0.061 0.97835,0.15452 1.48242,0.2832 0.50373,0.12856 1.01846,0.29388 1.54297,0.5 0.9721,0.38221 1.87212,0.68969 2.70312,0.93555 0.83107,0.24595 1.59251,0.43077 2.28711,0.5664 0.69445,0.1358 1.32212,0.22234 1.88477,0.27344 0.56256,0.0512 1.05975,0.0672 1.49414,0.0605 0.28335,-2e-4 0.53134,-0.0202 0.7539,-0.0391 0.008,-6.3e-4 0.018,-0.001 0.0254,-0.002 l -0.0176,0.002 h 0.0254 c 0.11688,0 0.10667,-0.01 0.0937,-0.01 h 0.0215 l 0.0234,-0.004 c 0.0707,-0.01 0.16428,-0.0222 0.26172,-0.0312 l 0.0977,-0.01 0.0742,-0.0625 c 1.22108,-1.02009 2.32663,-2.1678 3.31055,-3.41602 l -0.375,-0.47656 c -0.92178,0.42745 -2.18207,0.90317 -3.64062,1.11914 -2.923,0.43274 -6.63224,-0.24675 -9.39063,-4.46289 -0.91676,-1.40139 -1.34543,-2.71612 -1.42773,-3.95703 l -0.006,-0.0937 -0.0586,-0.0742 c -0.18185,-0.23773 -0.29492,-0.58434 -0.29492,-0.95117 0,-0.51579 0.22048,-0.96125 0.51758,-1.15821 l 0.0937,-0.0625 0.0332,-0.10937 c 0.45351,-1.53507 1.35222,-2.96154 2.34766,-4.41406 2.24964,-3.2827 4.98355,-6.67215 4.64844,-11.55079 -0.19009,-2.76657 -1.21289,-5.93569 -2.36329,-9.32031 l -0.0488,-0.14062 -0.13868,-0.0508 c -2.46625,-0.9143 -5.0719,-1.38923 -7.70117,-1.42188 z m -0.13086,0.6289 h 0.043 c 2.54617,0.0194 5.06648,0.48415 7.45899,1.35352 1.12556,3.31788 2.10432,6.40629 2.2832,9.00976 0.31787,4.6276 -2.272,7.84334 -4.54102,11.1543 -1.00378,1.4647 -1.94472,2.94365 -2.43164,4.5918 l 0.12696,-0.17188 c -0.52171,0.34586 -0.79493,0.99074 -0.79493,1.67774 0,0.49194 0.1449,0.96543 0.42383,1.33007 l -0.0644,-0.16992 c 0.0899,1.35573 0.56322,2.78104 1.5293,4.25782 2.88365,4.40761 6.9063,5.19687 10.0039,4.73828 1.05706,-0.15653 1.81631,-0.49833 2.61914,-0.80469 -0.74223,0.84876 -1.48679,1.69952 -2.34961,2.42578 -0.0633,0.008 -0.13501,0.0154 -0.17773,0.0215 -0.0264,0.003 -0.0904,0.006 -0.0508,0.006 h -0.0254 -0.002 -0.0195 l -0.0137,0.002 c -0.22603,0.0193 -0.46486,0.0371 -0.73047,0.0371 h -0.004 -0.002 c -0.41171,0.006 -0.88646,-0.007 -1.42773,-0.0566 -0.54106,-0.0491 -1.14632,-0.13383 -1.82031,-0.26563 -0.6744,-0.13169 -1.4175,-0.31018 -2.23047,-0.55078 -0.81302,-0.24054 -1.6984,-0.54214 -2.6543,-0.91797 -0.54759,-0.2152 -1.08547,-0.39019 -1.61523,-0.52539 -0.52887,-0.13501 -1.04935,-0.23264 -1.56055,-0.29687 -0.53369,-0.0669 -1.49023,-0.0977 -1.49024,-0.0977 h -0.006 l -0.87696,-0.004 h -0.006 c 0,0 -0.95806,0.0306 -1.49218,0.0977 -0.5111,0.0644 -1.02978,0.16185 -1.5586,0.29687 -0.52988,0.13515 -1.06766,0.31016 -1.61523,0.52539 -0.95589,0.37588 -1.84122,0.67536 -2.6543,0.91602 v 0.002 c -0.8128,0.24087 -1.55587,0.41889 -2.23047,0.55078 -0.67419,0.13136 -1.27946,0.21447 -1.82031,0.26368 -0.54318,0.0485 -1.01819,0.0682 -1.42578,0.0586 h -0.002 c -0.27248,-0.005 -0.51486,-0.0181 -0.73632,-0.0371 l -0.0137,-0.002 h -0.0176 -0.004 -0.0254 c -0.0221,0 -0.0152,1.2e-4 -0.0156,0 l -0.0273,-0.008 -0.0293,-0.002 c -0.0296,-0.002 -0.0985,-0.012 -0.15625,-0.0195 -0.86199,-0.72563 -1.60608,-1.57397 -2.34765,-2.42187 0.80236,0.30601 1.56106,0.64631 2.61719,0.80273 3.09761,0.45845 7.12229,-0.33047 10.00585,-4.73828 0.96607,-1.47671 1.43929,-2.90203 1.5293,-4.25781 l -0.0644,0.16796 c 0.27872,-0.36464 0.42383,-0.83616 0.42383,-1.32812 -7e-5,-0.68693 -0.27514,-1.3318 -0.79688,-1.67773 l 0.12696,0.17187 c -0.48683,-1.64823 -1.42788,-3.12708 -2.43165,-4.5918 -2.26901,-3.31096 -4.85702,-6.52668 -4.53906,-11.15429 0.1789,-2.60349 1.15759,-5.692 2.28321,-9.00977 2.38111,-0.86536 4.88993,-1.32606 7.42382,-1.34961 z M 174.19531,186.5 c 0,0 -0.89685,0.0279 -1.40039,0.0937 -0.47758,0.06 -0.96279,0.15071 -1.45898,0.27734 -0.49704,0.12688 -1.0036,0.29057 -1.52149,0.49414 -0.97644,0.38409 -1.88252,0.69382 -2.71875,0.94141 -0.83632,0.24741 -1.60477,0.43193 -2.30468,0.56836 -0.70005,0.13669 -1.3337,0.22528 -1.90235,0.27734 -0.56815,0.0521 -1.06998,0.0678 -1.51172,0.0605 h -0.004 -1.00586 l 0.75781,0.5625 c 3.82086,2.83032 8.42704,4.40171 13.19727,4.49219 v 0.0293 l 0.3125,-0.002 c 4.88131,-0.0246 9.60188,-1.62573 13.50585,-4.51758 l 0.75977,-0.5625 h -1.00781 -0.004 c -0.43855,0.01 -0.94159,-0.01 -1.51172,-0.0605 -0.56872,-0.0521 -1.2023,-0.14065 -1.90234,-0.27735 -0.7,-0.13669 -1.46636,-0.32116 -2.30273,-0.56836 -0.83605,-0.24739 -1.74217,-0.55745 -2.71876,-0.9414 -0.51792,-0.20362 -1.02467,-0.36684 -1.52148,-0.49414 -0.49679,-0.12675 -0.98475,-0.21929 -1.46289,-0.2793 -0.50048,-0.0629 -1.39648,-0.0918 -1.39648,-0.0918 h -0.006 l -0.86524,-0.002 z m 0.01,0.625 h 0.0117 l 0.84375,0.002 -0.0117,-0.002 c 0,0 0.91497,0.034 1.34375,0.0879 0.45236,0.0568 0.91291,0.14328 1.38476,0.26367 0.47148,0.12082 0.9527,0.27627 1.44727,0.47071 0.99251,0.39021 1.9152,0.70617 2.76953,0.95898 0.85433,0.2525 1.64107,0.44334 2.36133,0.58398 0.7204,0.14067 1.37489,0.23109 1.96484,0.28516 0.2274,0.0203 0.40249,0.0126 0.61133,0.0234 -3.62742,2.44813 -7.87269,3.8445 -12.2793,3.87109 h -0.0176 c -4.41433,-0.023 -8.66538,-1.42087 -12.29883,-3.87304 0.20899,-0.0104 0.38322,-0.003 0.61133,-0.0234 0.58997,-0.054 1.24252,-0.1445 1.96289,-0.28516 0.72034,-0.14041 1.50697,-0.33124 2.36132,-0.58398 h 0.002 c 0.85413,-0.25289 1.7749,-0.56852 2.76758,-0.95899 0.49461,-0.19442 0.97797,-0.34846 1.44921,-0.46875 0.47187,-0.12042 0.93235,-0.20689 1.38477,-0.26367 h 0.002 c 0.42213,-0.0552 1.31246,-0.0873 1.32813,-0.0879 z"
       id="path9642"
       inkscape:connector-curvature="0" />
    <path
       style="color:#000000;font-style:normal;font-variant:normal;font-weight:normal;font-stretch:normal;font-size:238.98574829px;line-height:1.25;font-family:sans-serif;font-variant-ligatures:normal;font-variant-position:normal;font-variant-caps:normal;font-variant-numeric:normal;font-variant-alternates:normal;font-feature-settings:normal;text-indent:0;text-align:start;text-decoration:none;text-decoration-line:none;text-decoration-style:solid;text-decoration-color:#000000;letter-spacing:0px;word-spacing:0px;text-transform:none;writing-mode:lr-tb;direction:ltr;text-orientation:mixed;dominant-baseline:auto;baseline-shift:baseline;text-anchor:start;white-space:normal;shape-padding:0;clip-rule:nonzero;display:inline;overflow:visible;visibility:visible;opacity:1;isolation:auto;mix-blend-mode:normal;color-interpolation:sRGB;color-interpolation-filters:linearRGB;solid-color:#000000;solid-opacity:1;vector-effect:none;fill:#ff0000;fill-opacity:1;fill-rule:nonzero;stroke:none;stroke-width:0.62399906;stroke-linecap:butt;stroke-linejoin:miter;stroke-miterlimit:4;stroke-dasharray:none;stroke-dashoffset:0;stroke-opacity:1;color-rendering:auto;image-rendering:auto;shape-rendering:auto;text-rendering:auto;enable-background:accumulate"
       d="m 205.03516,131.69336 0.0332,0.3418 0.0625,0.61523 0.0469,0.46484 0.15039,1.50391 h 1.57618 c 0.31253,0 0.34819,0.015 0.56836,0.22266 l 0.006,0.004 0.006,0.006 0.004,0.006 0.0117,0.01 c 0.1991,0.17697 0.23667,0.24819 0.27734,0.54687 v 18.75782 c -0.0131,0.31679 -0.0498,0.40307 -0.29882,0.65234 -0.22018,0.21996 -0.24077,0.23242 -0.57422,0.23242 h -1.73438 v 2.92578 h 10.00391 v -2.92578 h -1.73438 c -0.30887,0 -0.38096,-0.0346 -0.60351,-0.23828 -0.20651,-0.22616 -0.25683,-0.33592 -0.26953,-0.64648 v -7.59571 c 1.06149,0.41935 2.19732,0.70508 3.47851,0.70508 0.6732,0 1.36876,-0.15136 2.10938,-0.40625 2.14155,-0.72298 3.78564,-2.10268 4.68164,-4.02539 v -0.002 c 0.48836,-1.0325 0.73437,-2.1566 0.73437,-3.32618 0,-2.29926 -0.74966,-4.30276 -2.27148,-5.71679 -1.51736,-1.43298 -3.59518,-2.11133 -5.99805,-2.11133 z m 0.68945,0.62305 9.57617,0.002 c 2.28623,0 4.18771,0.63569 5.57031,1.94141 h 0.002 v 0.002 c 1.3822,1.28431 2.07226,3.09463 2.07226,5.25976 0,1.08363 -0.22533,2.11493 -0.67383,3.0625 -0.82129,1.7634 -2.30904,3.02155 -4.3164,3.69922 h -0.002 v 0.002 c -0.69976,0.24097 -1.32907,0.37304 -1.9082,0.37304 -1.36832,0 -2.59001,-0.24883 -3.66015,-0.74023 l -0.44336,-0.20117 v 8.47461 l 0.002,0.006 c 0.0169,0.41343 0.15797,0.75368 0.43945,1.05859 l 0.01,0.01 0.01,0.008 c 0.29846,0.275 0.63086,0.40625 1.03711,0.40625 h 1.10938 v 1.67773 h -8.75391 v -1.67773 h 1.10938 c 0.41463,0 0.73706,-0.13383 1.01562,-0.41211 v -0.002 c 0.31407,-0.31402 0.46341,-0.65607 0.48047,-1.06835 l 0.002,-0.006 v -18.83594 l -0.004,-0.0215 c -0.0526,-0.39035 -0.21109,-0.69046 -0.48242,-0.93164 l 0.0234,0.0234 -0.0215,-0.0254 -0.0176,-0.0137 c -0.28126,-0.26532 -0.60018,-0.39258 -0.99609,-0.39258 h -1.01172 l -0.0937,-0.94141 -0.0469,-0.46484 z m 101.64648,1.52343 -0.4375,0.19532 -0.78711,0.34765 -0.55664,0.25 -0.006,0.002 c -0.0195,0.006 -0.039,0.0111 -0.0664,0.0195 -0.0598,0.0184 -0.14749,0.0437 -0.24219,0.0684 -0.19726,0.0495 -0.47,0.1118 -0.79883,0.17578 -0.59462,0.11521 -1.32954,0.17969 -2.1914,0.17968 h -11.18164 v 2.92774 h 1.76953 c 0.30711,0 0.34307,0.0181 0.53125,0.18359 0.10384,0.0918 0.12792,0.12679 0.1289,0.12891 9.9e-4,0.002 0.01,0.0294 0.01,0.1543 v 16.02539 c -0.0128,0.23346 0.007,0.20311 -0.20313,0.40039 -0.16277,0.15248 -0.15468,0.1582 -0.46679,0.1582 h -1.76953 v 2.92578 h 15.92968 l 2.85742,-7.42969 h -3.04101 l -0.35156,0.74024 -0.002,0.004 c -0.35195,0.74485 -0.69535,1.32037 -0.99414,1.70898 l -0.0137,0.0195 -0.006,0.006 -0.0156,0.0195 c -0.20644,0.28375 -0.56955,0.59726 -1.15625,0.89063 l -0.0352,0.0176 c -0.46541,0.23633 -1.11409,0.39258 -1.99219,0.39258 h -4.02148 v -6.01367 h 4.47461 c 0.0435,0.007 0.0754,0.0168 0.11133,0.0254 0.006,0.0257 0.006,0.001 0.006,0.10352 v 1.73437 h 2.95898 v -7.32812 h -2.95898 v 1.73437 c 0,0.10211 -0.009,0.13086 -0.004,0.11524 0.003,-0.008 -0.0127,0.0107 -0.0156,0.0137 -0.0215,0.001 -9e-5,-0.002 -0.0781,-0.002 h -4.49609 v -6.01172 h 5.74804 c 0.13605,0 0.1827,0.0106 0.18555,0.0117 0.003,0.001 0.0158,0.007 0.0879,0.084 0.14969,0.16038 0.12695,0.0958 0.12695,0.33594 v 1.68945 l 2.95899,0.26953 z m 0.89649,0.043 v 1.91211 5.11914 h 2.95898 v -1.83594 c 0,-0.23201 0.004,-0.21855 0.11719,-0.35351 0.0401,-0.0409 0.057,-0.0562 0.0684,-0.0606 0.0132,-0.005 0.0708,-0.0195 0.21289,-0.0195 h 4.83594 v 15.81641 c -0.0128,0.23401 0.007,0.20483 -0.20313,0.40234 -0.19678,0.1849 -0.20245,0.18945 -0.5,0.18945 h -1.70117 v 2.92579 h 9.5625 v -2.92579 h -1.66602 c -0.17976,0 -0.25248,-0.0231 -0.35937,-0.0801 l -0.0176,-0.01 -0.01,-0.006 c -0.19322,-0.10021 -0.24164,-0.15688 -0.26563,-0.19336 v -0.002 c -0.0265,-0.0402 -0.0465,-0.0685 -0.0527,-0.25195 v -15.86719 h 4.83593 c 0.13616,0 0.18097,0.0126 0.1836,0.0137 0.003,10e-4 0.0174,0.006 0.0898,0.084 0.1502,0.16091 0.125,0.0949 0.125,0.33594 v 1.83594 h 2.96094 v -7.0293 l -0.42774,0.17188 -0.76562,0.30664 -0.58008,0.23047 c -0.64549,0.25841 -1.7863,0.44922 -3.3125,0.44922 h -11.03906 c -0.3035,0 -0.90909,-0.042 -1.71875,-0.12696 h -0.002 c -0.7395,-0.0826 -1.29649,-0.21815 -1.55664,-0.32226 z m -42.2832,0.54688 0.0488,0.38281 0.0859,0.68945 0.0644,0.52149 0.0625,0.49218 v 0.0137 l 0.01,0.0625 c 0.14647,1.00542 0.22266,2.17528 0.22266,3.50195 v 14.49219 c 0,0.12813 -0.0105,0.16575 -0.0156,0.17773 -0.005,0.012 -0.025,0.0445 -0.11719,0.13086 -0.17347,0.16258 -0.15206,0.1582 -0.43554,0.1582 h -1.55664 -0.2754 c -0.30475,0 -0.47031,-0.0522 -0.69921,-0.22656 -0.21719,-0.16556 -0.47708,-0.4818 -0.74219,-1.00781 -5.8e-4,-0.001 -10e-4,-8e-4 -0.002,-0.002 l -8.69141,-19.21485 h -2.3457 l -0.0566,0.8086 -0.0234,0.33789 c -6e-4,0.002 -0.001,0.006 -0.002,0.008 -0.007,0.0273 -0.0133,0.0587 -0.0234,0.10156 -0.0203,0.0857 -0.052,0.21022 -0.0937,0.3418 -0.0876,0.2765 -0.22289,0.6572 -0.4043,1.10547 -0.005,0.0112 -0.22007,0.49381 -0.56445,1.24219 -0.34788,0.75585 -0.84743,1.83721 -1.49024,3.21874 -1.28482,2.76129 -3.16432,6.78355 -5.63281,12.0586 -0.23803,0.49122 -0.49508,0.7811 -0.77734,0.97461 -0.31045,0.20523 -0.50157,0.25195 -0.69727,0.25195 h -0.5957 l 1.73047,-4.50195 h -3.06446 l -0.30273,0.67969 -0.0391,0.0879 c -0.3309,0.7446 -0.66376,1.31723 -0.95703,1.69726 l -0.0117,0.0137 -0.004,0.008 -0.002,0.004 -0.006,0.006 c -0.20645,0.28378 -0.56951,0.59735 -1.15625,0.89063 -0.49967,0.24985 -1.17419,0.40429 -2.0625,0.40429 h -3.98828 v -15.80468 c 0,-0.11469 0.007,-0.14693 0.0176,-0.16993 0.0101,-0.0223 0.0481,-0.0691 0.14258,-0.16015 C 231.73972,138.02546 231.79661,138 232.07617,138 h 1.70117 v -2.92578 h -0.87109 -8.72656 V 136.36914 138 h 1.70117 c 0.29147,0 0.30419,0.0126 0.49023,0.1875 l 0.0684,0.0977 h 0.0371 c 0.0397,0.0424 0.0968,0.0965 0.10742,0.11718 0.0176,0.0343 0.0279,0.0679 0.0332,0.17774 v 15.90625 c -0.011,0.23243 0.008,0.2018 -0.20313,0.40039 -0.16202,0.15159 -0.15513,0.15625 -0.46679,0.15625 h -1.76954 v 2.92578 h 15.92969 l 0.16016,-0.41602 v 0.41602 h 9.05469 v -2.92578 h -1.56446 c -0.008,0 -0.01,-4e-5 -0.0176,0 -0.009,-0.0182 -0.0275,-0.0428 -0.0332,-0.0566 0.006,-0.0839 0.0199,-0.17661 0.0723,-0.31445 3.1e-4,-8.2e-4 -3.1e-4,-0.001 0,-0.002 l 1.51367,-3.57617 h 6.8418 l 1.51562,3.66406 c 0.029,0.0821 0.0374,0.16499 0.043,0.25586 -0.004,0.007 -0.014,0.02 -0.0195,0.0293 h -1.56055 v 2.92578 h 9.2168 0.3125 7.38476 v -2.92578 h -1.86914 c -0.28357,0 -0.26205,0.004 -0.43554,-0.1582 -0.0922,-0.0864 -0.11394,-0.11881 -0.11914,-0.13086 -0.005,-0.0121 -0.0137,-0.0498 -0.0137,-0.17774 V 143.4668 l 15.79688,14.97656 h 2.26562 l -0.23437,-2.10352 c -7.4e-4,-0.006 -0.001,-0.0121 -0.002,-0.0176 -0.14546,-1.09741 -0.22071,-2.26469 -0.22071,-3.50391 v -14.36328 c 0.007,-0.11452 0.0152,-0.1453 0.0195,-0.1543 0.004,-0.007 0.0411,-0.0457 0.0918,-0.0937 l 0.004,-0.004 c 0.008,-0.007 0.004,-0.005 0.0137,-0.0137 0.003,-0.003 0.002,-6.3e-4 0.006,-0.004 v -0.002 l 0.008,-0.004 0.0273,-0.0273 c 0.18269,-0.17112 0.14871,-0.1582 0.40235,-0.1582 h 1.86914 v -2.92578 h -8.98828 v 2.92578 h 1.87109 c 0.24979,0 0.22189,-0.009 0.39844,0.15625 0.002,0.002 0.002,2.4e-4 0.004,0.002 l 0.0215,0.0234 0.0156,0.01 c 0.16054,0.13961 0.143,0.10517 0.16407,0.31054 v 10.95118 l -15.71924,-14.8105 z m 70.1289,0.17187 -0.0195,0.29102 -0.0605,0.85742 c -4.5e-4,0.002 -0.002,0.004 -0.002,0.006 -0.007,0.0278 -0.0131,0.0603 -0.0234,0.10352 -0.0207,0.0863 -0.0525,0.21173 -0.0937,0.34374 -0.0875,0.27639 -0.22299,0.65422 -0.40429,1.10157 0.008,-0.0189 -0.0131,0.0319 -0.0391,0.0898 -0.0267,0.0595 -0.0643,0.14581 -0.11328,0.25391 -0.0979,0.21619 -0.23847,0.52329 -0.41211,0.90039 -0.34815,0.75605 -0.84938,1.83532 -1.49219,3.21679 -1.28477,2.76124 -3.16238,6.7835 -5.63085,12.0586 -0.23847,0.49155 -0.49508,0.7831 -0.77735,0.97656 -0.30992,0.20511 -0.50172,0.25195 -0.69726,0.25195 h -1.56446 v 2.92579 h 9.05469 v -2.92579 h -1.56445 c -0.008,0 -0.01,-3e-5 -0.0176,0 -0.009,-0.0182 -0.0274,-0.0427 -0.0332,-0.0566 0.006,-0.0834 0.0184,-0.17551 0.0684,-0.30664 v -0.002 c 9.8e-4,-0.003 9.4e-4,-0.003 0.002,-0.006 l 1.51367,-3.57617 h 6.84375 l 1.51563,3.66406 c 0.0288,0.0813 0.0375,0.16201 0.043,0.25195 -0.004,0.008 -0.0136,0.0214 -0.0195,0.0312 h -1.56054 v 2.92579 h 9.52929 v -2.92579 h -1.56445 c -0.30451,0 -0.47038,-0.0542 -0.69922,-0.22851 -0.21707,-0.16562 -0.4771,-0.48186 -0.74219,-1.00781 -5.7e-4,-0.001 -0.001,-8.1e-4 -0.002,-0.002 l -8.69336,-19.21289 h -0.56055 z m -30.5625,0.0469 0.11524,0.25976 c -0.0321,-0.0355 -0.18941,-0.20902 -0.18946,-0.20898 -9e-5,9e-5 0.0412,-0.0314 0.041,-0.0312 -1.9e-4,1.2e-4 0.0136,-0.01 0.0176,-0.0117 0.0158,-0.009 0.015,-0.008 0.0156,-0.008 z m -93.60742,0.0215 v 0.3125 l -0.002,9.09766 0.625,0.13672 c 1.51652,0.33225 2.85664,0.16915 4.11914,-0.48242 l 0.008,-0.004 0.0273,-0.0156 c 1.06469,-0.55093 1.76869,-1.40964 2.17188,-2.69531 v -0.002 -0.002 c 0.11845,-0.39637 0.17383,-0.75718 0.17383,-1.08789 v -0.72461 -0.006 c -0.0425,-1.46981 -0.42108,-2.55404 -1.0918,-3.33985 l 0.0117,0.0137 0.0254,0.0332 -0.0664,-0.16602 h -0.125 c -0.64384,-0.69267 -1.4666,-1.06836 -2.65429,-1.06836 z m 94.80469,0.12891 -0.004,5.63086 -1.71289,-0.15625 v -1.11914 c 0,-0.21713 -0.1096,-0.38108 -0.21094,-0.54883 v -0.12305 l -0.0801,-0.0859 -0.004,-0.004 c -0.0835,-0.0893 -0.17304,-0.18126 -0.3086,-0.23633 -0.13555,-0.0551 -0.26306,-0.0586 -0.41992,-0.0586 h -6.37304 v 7.26172 h 5.12109 c 0.1398,0 0.17385,0.0162 0.30273,-0.0195 0.0612,-0.017 0.15652,-0.0927 0.19141,-0.13867 l 0.002,-0.002 0.008,-0.006 c 0.0291,-0.0447 0.0152,-0.0226 0.002,-0.006 l 0.0156,-0.0137 0.006,-0.006 c 0.0485,-0.0537 0.11547,-0.12631 0.1543,-0.23633 0.0388,-0.11002 0.0391,-0.20396 0.0391,-0.32422 v -1.11133 h 1.71289 v 6.08008 h -1.71289 v -1.10937 c 0,-0.24107 -0.0204,-0.34282 -0.0781,-0.45703 -0.0841,-0.17117 -0.1595,-0.16916 -0.20313,-0.19336 l -0.0254,-0.0137 -0.0254,-0.01 c -0.10586,-0.0362 -0.21282,-0.0577 -0.32422,-0.0742 l -0.0234,-0.004 h -5.16016 v 7.25977 h 4.64648 c 0.95951,0 1.717,-0.16599 2.29688,-0.46484 l 0.0332,-0.0117 0.0566,-0.0566 -0.0801,0.0586 c 0.65259,-0.32631 1.10074,-0.69432 1.38282,-1.08203 l 0.0137,-0.0176 c 0.34204,-0.4425 0.70675,-1.05733 1.07617,-1.83984 l 0.0293,-0.0645 0.15234,-0.32031 h 1.74024 l -2.37891,6.18164 h -14.87695 v -1.67773 h 1.14453 c 0.38578,0 0.67292,-0.11858 0.89453,-0.32617 0.26128,-0.24576 0.382,-0.52152 0.39844,-0.82227 v -0.008 -16.05078 c 0,-0.14197 -0.003,-0.27746 -0.0684,-0.41797 -0.0653,-0.14051 -0.16175,-0.23013 -0.2793,-0.33399 h -0.002 c -0.25313,-0.22259 -0.5547,-0.33984 -0.94336,-0.33984 h -1.14453 v -1.67774 h 10.55664 c 0.89277,0 1.66463,-0.0663 2.31054,-0.1914 0.34061,-0.0663 0.62459,-0.13098 0.83399,-0.1836 h 0.002 c 0.10917,-0.0284 0.20706,-0.0589 0.26953,-0.0781 0.0273,-0.008 0.045,-0.0133 0.0527,-0.0156 -0.003,7.9e-4 -0.008,0.002 -0.0195,0.004 -0.006,0.001 -0.0295,0.002 -0.0293,0.002 9e-5,0 -0.0294,0.002 -0.0293,0.002 7e-5,0 -0.0625,-0.01 -0.0625,-0.01 0,0 0.0624,-0.26381 0.0684,-0.28906 l 0.12305,0.27539 c 0.006,-0.003 0.0112,-0.004 0.0293,-0.0137 l 0.56641,-0.25196 z m -0.77539,18.61914 v 0.002 l -0.0332,0.0352 0.0312,-0.0293 0.008,-0.0117 z m 2.91796,-18.61328 0.91797,0.36719 c 0.36204,0.14488 0.94455,0.2765 1.72266,0.36328 h 0.002 c 0.82099,0.0861 1.42632,0.13086 1.78516,0.13086 h 11.03906 c 1.57631,0 2.76655,-0.18332 3.54297,-0.49414 l 0.58008,-0.23243 0.33984,-0.13476 -0.002,5.48242 h -1.71094 v -1.21094 c 0,-0.30081 -0.10356,-0.55672 -0.29492,-0.76172 -0.0838,-0.0896 -0.1729,-0.18112 -0.30859,-0.23633 -0.1357,-0.0552 -0.26317,-0.0586 -0.41993,-0.0586 H 320.625 v 16.50586 0.006 c 0.008,0.24764 0.064,0.43718 0.1543,0.57422 0.0937,0.14256 0.25043,0.27682 0.5,0.40625 l -0.0215,-0.0117 0.008,0.008 0.0234,0.0117 c 0.18679,0.10081 0.40695,0.1582 0.66406,0.1582 h 1.04297 v 1.67774 h -8.3164 v -1.67774 h 1.07812 c 0.37517,0 0.673,-0.12197 0.92774,-0.36132 0.26123,-0.24595 0.382,-0.52108 0.39843,-0.82227 v -0.008 -16.46485 H 311.625 c -0.16907,0 -0.30104,0.007 -0.43555,0.0586 -0.1345,0.0515 -0.23292,0.14318 -0.31054,0.22461 l -0.006,0.006 -0.008,0.008 c -0.16419,0.19656 -0.26171,0.44969 -0.26171,0.75976 v 1.2129 h -1.7129 v -4.4961 z m -42.1914,0.3125 1.43555,0.12304 16.61132,15.65039 v -12.43945 l -0.002,-0.0156 c -0.0296,-0.2824 -0.15523,-0.53085 -0.37891,-0.72657 l -0.0879,-0.0762 h -0.0234 l 0.0898,0.0606 c -0.23157,-0.2149 -0.50236,-0.32227 -0.82422,-0.32227 h -1.24609 v -1.67968 h 7.74023 v 1.67968 h -1.24609 c -0.32189,0 -0.59528,0.10806 -0.82813,0.32618 l -0.002,0.002 -0.006,0.004 -0.0156,0.0117 c -0.1064,0.094 -0.19896,0.18366 -0.26172,0.3125 -0.0628,0.12885 -0.0741,0.25505 -0.082,0.39063 v 0.01 14.39063 c 0,1.27072 0.0757,2.47164 0.22656,3.60352 l 0.0371,0.26953 h -0.006 l 0.125,1.12695 h -1.32031 l -16.66993,-15.80469 v 12.5625 c 0,0.15068 0.006,0.28631 0.0664,0.42578 0.0602,0.13947 0.15496,0.236 0.26367,0.33789 0.22743,0.21318 0.50878,0.32618 0.86328,0.32618 h 1.24414 v 1.67773 h -7.07226 -0.3125 -8.2793 v -1.67773 h 0.93945 c 0.0521,0 0.0814,0.002 0.10157,0.004 0.0202,0.001 0.005,0.0256 0.13672,-0.006 0.0659,-0.0157 0.16826,-0.0956 0.19921,-0.14648 0.0248,-0.0407 0.0233,-0.0437 0.0234,-0.0469 0.0575,-0.0777 0.10103,-0.14791 0.12695,-0.20117 0.0121,-0.0248 0.0209,-0.0445 0.0274,-0.0606 10e-4,-0.003 0.003,-0.008 0.004,-0.01 l 0.0312,-0.0508 -0.002,-0.0898 c -0.002,-0.18039 -0.0315,-0.35266 -0.0918,-0.51953 l -0.002,-0.008 -1.67969,-4.06055 h -7.67382 l -1.68164,3.97266 -0.002,0.004 c -0.0652,0.17104 -0.0836,0.31574 -0.0977,0.45703 -0.006,0.0151 -0.0117,0.0331 -0.0117,0.0332 -1.4e-4,4.7e-4 -0.008,0.0385 -0.01,0.0488 h 0.006 c -4.5e-4,0.01 -0.008,0.0234 -0.008,0.0332 l 0.58008,0.043 c 0.011,0.004 0.0238,0.015 0.0371,0.0215 -0.003,0.0127 -0.006,0.0276 -0.006,0.0274 6e-5,-2.4e-4 -0.0196,0.0509 -0.0195,0.0508 4e-5,-8e-5 -0.0182,0.0219 -0.0352,0.0449 L 247.5,155.31055 c -0.0298,0.009 -0.0821,0.0234 -0.082,0.0234 5e-5,0 -0.10748,-0.008 -0.10742,-0.008 5e-5,2e-5 -0.0762,-0.0313 -0.0762,-0.0312 1.1e-4,7e-5 -0.0763,-0.0587 -0.0762,-0.0586 1.3e-4,1.3e-4 -0.0294,-0.0373 -0.0293,-0.0371 2.7e-4,4.1e-4 -0.018,-0.0299 -0.0215,-0.0371 0.004,0.0123 0.008,0.0241 0.0176,0.0488 0.0268,0.0661 0.0765,0.16585 0.15039,0.27344 l -0.002,0.002 c 6.1e-4,0.001 0.003,0.006 0.004,0.008 l 0.0156,0.0195 c 0.009,0.0162 0.009,0.0253 0.0332,0.0508 0.0442,0.0466 0.11723,0.0827 0.16211,0.0937 0.0898,0.0221 0.10491,0.0105 0.13672,0.01 0.0318,-6.8e-4 0.0708,-0.002 0.13281,-0.002 h 0.93946 v 1.67968 h -7.80665 v -1.4707 l -0.60351,-0.11133 -0.60742,1.58203 h -14.87696 v -1.67968 h 1.14454 c 0.38488,0 0.67275,-0.11672 0.89453,-0.32422 v -0.002 l 0.01,-0.008 0.01,-0.0117 c 0,0 -0.007,-0.005 -0.008,-0.006 0.24484,-0.23982 0.37276,-0.50435 0.38671,-0.79883 v -0.008 -15.95117 -0.006 c -0.007,-0.14362 -0.0271,-0.2924 -0.0996,-0.43359 -0.0725,-0.14119 -0.17909,-0.25309 -0.31835,-0.37696 l -0.006,-0.006 0.0156,0.0234 -0.0234,-0.0215 c -0.0526,-0.0495 -0.13479,-0.0349 -0.1914,-0.0742 -0.21776,-0.15113 -0.4386,-0.28516 -0.73633,-0.28516 h -1.07617 v -1.00781 -0.66992 h 8.10156 0.24609 v 1.67773 h -1.07617 c -0.3712,0 -0.68207,0.11778 -0.96094,0.36133 l -0.004,0.004 -0.006,0.004 c -0.12182,0.11623 -0.21969,0.22284 -0.2832,0.36329 -0.0635,0.14044 -0.0723,0.28211 -0.0723,0.42578 v 16.42968 h 4.61133 c 0.96077,0 1.73416,-0.16686 2.34179,-0.4707 0.6527,-0.32624 1.10077,-0.69435 1.38282,-1.08203 l 0.0156,-0.0195 0.0176,-0.0274 -0.0215,0.0293 c 0.31987,-0.41451 0.65062,-1.00846 0.97851,-1.72851 l 0.0156,-0.01 0.0371,-0.0801 v -0.004 l 0.17968,-0.40039 h 1.75 l -1.73242,4.5039 h 1.50586 c 0.31858,0 0.66303,-0.10448 1.04688,-0.35937 l 0.002,-0.002 h 0.002 c 0.38183,-0.26176 0.71397,-0.65466 0.98828,-1.22265 v -0.002 -0.002 c 2.46859,-5.27525 4.34762,-9.29847 5.63282,-12.06055 0.64307,-1.38212 1.14378,-2.46173 1.49218,-3.21875 0.34825,-0.75676 0.55451,-1.21695 0.57422,-1.26171 l 0.002,-0.004 0.002,-0.006 c 0.18691,-0.46187 0.32628,-0.85273 0.41992,-1.14844 0.0491,-0.15452 0.0835,-0.2941 0.10547,-0.38672 0.009,-0.0385 0.0139,-0.0625 0.0176,-0.0781 -0.002,0.004 -0.004,0.009 -0.008,0.0176 -0.004,0.009 -0.0216,0.0412 -0.0215,0.041 6e-5,-9e-5 -0.0332,0.043 -0.0332,0.043 5e-5,-6e-5 -0.0879,0.0684 -0.0879,0.0684 0,0 -0.12583,-0.24626 -0.13672,-0.26758 l 0.30469,0.0195 0.0273,-0.39258 0.0176,-0.22851 h 1.36133 l 8.5332,18.86523 0.004,0.006 c 0.29377,0.58384 0.59897,0.97892 0.92383,1.22657 0.31776,0.242 0.67397,0.35351 1.07617,0.35351 h 0.2754 0.31054 1.2461 c 0.35453,0 0.63398,-0.11311 0.86132,-0.32617 0.10882,-0.10188 0.20545,-0.19834 0.26563,-0.33789 0.0602,-0.13956 0.0645,-0.27512 0.0645,-0.42578 v -14.49219 c 0,-1.35137 -0.0764,-2.55035 -0.22851,-3.59375 v -0.002 l -0.004,-0.0156 v -0.006 l -0.0664,-0.53125 -0.0645,-0.52148 z m 0.0723,20.23242 -0.21289,0.084 h 0.12305 z m 21.16797,-17.65234 0.13672,-0.0762 -0.084,0.0215 z m 49.95703,-2.47266 h 0.15821 l 8.53515,18.86523 0.002,0.006 c 0.29378,0.58388 0.59933,0.97703 0.92382,1.22461 0.31785,0.24205 0.67612,0.35547 1.07813,0.35547 h 0.93945 v 1.67774 h -8.28125 v -1.67774 h 0.94141 c 0.052,0 0.0795,0.002 0.0996,0.004 0.0201,0.001 0.006,0.024 0.13867,-0.008 0.0663,-0.0159 0.16856,-0.0956 0.19922,-0.14649 0.0155,-0.0257 0.0106,-0.0211 0.0137,-0.0293 -1.8e-4,2.5e-4 0.004,-0.007 0.008,-0.0137 0.0579,-0.0781 0.10245,-0.14958 0.12891,-0.20312 0.0133,-0.0269 0.0223,-0.049 0.0293,-0.0664 0.0337,-0.0674 0.009,-0.0216 0.002,-0.004 l 0.0312,-0.0644 -0.002,-0.0762 c -0.002,-0.1801 -0.0314,-0.35295 -0.0918,-0.51953 l -0.002,-0.006 -1.67969,-4.0625 h -7.67383 l -1.68164,3.9707 v 0.004 c -0.0677,0.17456 -0.0863,0.3211 -0.0996,0.46289 -0.005,0.0134 -0.01,0.0272 -0.01,0.0273 -1.5e-4,4.7e-4 -0.0103,0.0382 -0.0117,0.0488 h 0.006 c -4.8e-4,0.0104 -0.008,0.025 -0.008,0.0352 l 0.58985,0.0488 c 0.009,0.003 0.0177,0.0109 0.0273,0.0156 -0.003,0.0143 -0.008,0.0335 -0.008,0.0332 7e-5,-2.3e-4 -0.0196,0.0509 -0.0195,0.0508 5e-5,-9e-5 -0.0217,0.0274 -0.041,0.0527 l -0.11914,0.0918 c -0.0245,0.007 -0.0879,0.0234 -0.0879,0.0234 5e-5,0 -0.10357,-0.008 -0.10352,-0.008 6e-5,1e-5 -0.0743,-0.0293 -0.0742,-0.0293 1.1e-4,7e-5 -0.0783,-0.0587 -0.0781,-0.0586 1.3e-4,1.4e-4 -0.0294,-0.0393 -0.0293,-0.0391 2.9e-4,4.1e-4 -0.0178,-0.0296 -0.0215,-0.0371 -0.003,-0.007 -0.007,-0.009 -0.008,-0.0117 0.003,0.008 0.011,0.0298 0.0234,0.0605 0.0266,0.0658 0.0768,0.16412 0.1504,0.27148 l -0.002,0.002 0.002,0.004 c 10e-4,0.003 0.009,0.0111 0.0117,0.0156 0.008,0.0163 0.0106,0.0283 0.0391,0.0586 0.0438,0.0466 0.11697,0.0825 0.16211,0.0937 0.0903,0.0224 0.10491,0.0124 0.13671,0.0117 0.0318,-6.8e-4 0.0707,-0.002 0.13282,-0.002 h 0.9414 v 1.67774 h -7.80664 v -1.67774 h 0.93946 c 0.31849,0 0.66327,-0.10435 1.04687,-0.35937 l 0.002,-0.002 0.002,-0.002 c 0.38198,-0.2618 0.71363,-0.65464 0.98828,-1.22265 v -0.002 c 2.46857,-5.27531 4.34767,-9.29852 5.63281,-12.06054 0.6431,-1.3821 1.14358,-2.46365 1.49219,-3.22071 0.17421,-0.37833 0.3156,-0.68688 0.41406,-0.90429 0.0492,-0.10871 0.0862,-0.19347 0.11328,-0.25391 0.0271,-0.0604 0.0342,-0.0739 0.0488,-0.10937 v -0.002 h 0.002 c 0.18722,-0.46193 0.32639,-0.85469 0.41993,-1.15039 0.0478,-0.15311 0.0815,-0.29277 0.10351,-0.38476 0.011,-0.046 0.0208,-0.0816 0.0234,-0.0918 -7.1e-4,0.002 -0.003,0.005 -0.006,0.0137 -0.002,0.004 -0.002,0.0113 -0.006,0.0195 -0.004,0.008 -0.0216,0.0373 -0.0215,0.0371 6e-5,-9e-5 -0.0274,0.0391 -0.0274,0.0391 6e-5,-6e-5 -0.0743,0.0625 -0.0742,0.0625 0,0 -0.14531,-0.23977 -0.15625,-0.25781 l 0.30469,0.0215 v -0.002 l 0.0449,-0.61914 z m -125.33007,0.0684 h 2.59961 c 1.14104,0 1.74928,0.28437 2.30468,0.94141 l -0.008,-0.0176 0.0215,0.0293 c 0.002,0.002 0.004,0.002 0.006,0.004 l 0.01,0.0137 0.084,0.0996 h -0.0293 c 0.52271,0.65395 0.85057,1.53478 0.88867,2.85156 v 0.71289 c 0,0.26096 -0.0446,0.56259 -0.14844,0.91016 -0.36706,1.16744 -0.9255,1.83801 -1.86133,2.32227 l -0.006,0.004 -0.0273,0.0156 c -1.1437,0.59026 -2.29825,0.7351 -3.70117,0.42773 l -0.13281,-0.0293 z m 38.94726,0.51172 0.29102,0.0195 c -0.0341,0.0129 -0.27347,0.10149 -0.27344,0.10156 3e-5,8e-5 -0.0117,-0.045 -0.0117,-0.0449 5e-5,2.3e-4 -0.005,-0.0343 -0.006,-0.043 -0.002,-0.0347 -1e-4,-0.0317 0,-0.0332 z m 84.51563,0 0.29101,0.0195 c -0.0334,0.0147 -0.26565,0.11907 -0.26562,0.11914 3e-5,7e-5 -0.0176,-0.0528 -0.0176,-0.0527 5e-5,2.2e-4 -0.007,-0.0372 -0.008,-0.0469 -0.003,-0.0389 -1.4e-4,-0.037 0,-0.0391 z m -83.23633,5.45703 -0.29297,0.6914 -2.61328,6.17188 h 5.71094 z m 84.51562,0 -0.29297,0.6914 -2.61328,6.17188 h 5.71094 z m -84.52734,1.625 1.88672,4.61523 h -3.83985 z m 84.51563,0 1.88671,4.61523 h -3.83984 z m -32.98829,11.06055 -0.0137,0.008 c -0.003,0.001 -0.009,5.7e-4 -0.0117,0.002 z m -46.7207,1.24218 c -0.007,0.0132 -0.0205,0.0337 -0.0234,0.041 -0.004,0.011 -0.0104,0.009 0.0176,-0.0371 8.5e-4,-10e-4 0.005,-0.002 0.006,-0.004 z m 84.51367,0.0117 c -0.006,0.0125 -0.0206,0.0319 -0.0234,0.0391 -0.004,0.0112 -0.008,0.009 0.0195,-0.0371 5.1e-4,-8.5e-4 0.003,-0.001 0.004,-0.002 z m -122.68554,3.36524 -14.28711,0.008 v 0.31055 0.55859 0.42383 1.77539 h 1.91992 c 0.54987,0 0.79314,0.10403 1.17773,0.50976 l 0.0586,0.0625 c 0.39188,0.37703 0.52688,0.65777 0.54882,1.20118 v 26.61914 c -0.0224,0.5505 -0.15279,0.83252 -0.55664,1.21679 l -0.0137,0.0176 c 0,0 -0.002,0.002 -0.002,0.002 -1.2e-4,9e-5 -0.002,0.002 -0.002,0.002 l -0.006,0.006 c 3.2e-4,-3.9e-4 0.002,3.5e-4 0.002,0 -8.4e-4,9.7e-4 -0.001,9.2e-4 -0.002,0.002 l -0.004,0.004 c -0.37666,0.37635 -0.6392,0.48632 -1.20117,0.48632 h -1.91992 v 3.06836 h 13.26171 l -0.30664,-3.06836 h -1.74804 c -0.58446,0 -0.90048,-0.13028 -1.29297,-0.49218 -0.3689,-0.39929 -0.49219,-0.70229 -0.49219,-1.2461 v -11.65039 h 0.29297 c 0.57027,0 1.25474,0.29122 2.13477,1.22461 0.32107,0.35102 0.62706,0.7157 0.91992,1.0957 0.003,0.004 0.007,0.008 0.01,0.0117 l 0.0195,0.0254 0.0176,0.0195 c 0.058,0.07 0.45224,0.59912 1.01758,1.39453 0.56772,0.7988 1.34952,1.91335 2.32617,3.32226 1.95714,2.82341 3.09455,4.43513 3.61328,5.07422 l 0.004,0.006 c 2.3e-4,2.8e-4 0.002,0.002 0.002,0.002 l 0.0254,0.0332 0.041,0.041 0.002,0.002 c 0.46938,0.50246 0.99773,1.03049 1.58789,1.58789 l 0.006,0.006 0.0215,0.0176 0.10742,0.0957 h 0.0488 c 0.7473,0.60592 1.68298,1.14446 2.88476,1.66406 l -0.0215,-0.01 0.043,0.0254 0.0195,0.008 c 1.34575,0.5437 2.79634,0.8125 4.32226,0.8125 h 2.9668 0.10352 20.74609 l 3.64258,-9.47071 h -3.18555 l -0.34961,0.74219 c -0.5173,1.09551 -1.02693,1.95312 -1.49023,2.55274 l -0.004,0.006 -0.0156,0.0195 -0.006,0.01 c -0.35386,0.48501 -0.94536,0.96695 -1.8125,1.40625 h 0.0234 l -0.0684,0.0332 c -0.001,7.6e-4 -0.004,0.001 -0.006,0.002 l -0.0156,0.008 0.008,-0.008 c -0.76031,0.38918 -1.77619,0.62304 -3.09375,0.62304 h -6.26172 v -9.63476 h 6.97266 c 0.15215,0.0208 0.28595,0.0524 0.41211,0.0957 0.10274,0.0545 0.12317,0.0727 0.15234,0.12696 0.0272,0.0511 0.0762,0.19983 0.0762,0.5039 v 1.91992 h 3.11914 v -9.32617 h -3.11914 v 1.91992 c 0,0.34693 -0.0242,0.38999 -0.1875,0.56836 l -0.0117,0.0117 -0.0274,0.0293 -0.002,0.004 c -0.0524,0.0629 -0.0504,0.0615 -0.0898,0.0762 -0.0394,0.0147 -0.14624,0.0351 -0.35938,0.0351 h -6.93555 v -9.63476 h 8.71485 c 0.45074,0 0.53528,0.0428 0.78515,0.31054 0.26535,0.28437 0.32618,0.43314 0.32618,0.84961 v 1.9043 l 3.11718,0.2832 v -8.89453 l -1.82421,0.8125 c -8.4e-4,3.1e-4 -0.003,-4.1e-4 -0.004,0 -0.004,0.001 -0.006,0.002 -0.0117,0.004 -0.0222,0.008 -0.0573,0.0198 -0.10156,0.0332 -0.0885,0.0269 -0.21369,0.0615 -0.35742,0.0977 -0.29033,0.0734 -0.68727,0.1634 -1.16602,0.25586 -0.88968,0.17219 -1.96691,0.26562 -3.21875,0.26562 h -15.3457 v 3.06836 h 1.96875 c 0.52114,0 0.77903,0.10168 1.11523,0.39844 0.3435,0.30312 0.38086,0.39074 0.38086,0.81055 v 22.80468 c -0.0202,0.41572 -0.10213,0.60335 -0.45898,0.93946 -0.29748,0.27842 -0.51435,0.37109 -1.03711,0.37109 h -0.99414 -0.10352 -0.32031 c -0.8734,0 -1.65248,-0.18026 -2.4082,-0.54297 l 0.004,0.004 -0.01,-0.006 h -0.004 l -0.0645,-0.0293 h 0.0137 c -0.30941,-0.14551 -0.63572,-0.34147 -0.97656,-0.60351 -0.38141,-0.29353 -0.72883,-0.5832 -1.04688,-0.8711 -0.32485,-0.32562 -0.90546,-0.93528 -1.71484,-1.80664 l -0.004,-0.006 c -0.69512,-0.77625 -2.53889,-3.25589 -5.28125,-7.17773 l -0.006,-0.008 -0.0137,-0.0176 0.0117,0.0117 -0.0117,-0.0195 -0.008,-0.01 c -0.47741,-0.65509 -1.04479,-1.26682 -1.64063,-1.86328 1.46591,-0.51934 2.80311,-1.39096 3.90039,-2.68946 l 0.006,-0.008 c 1.78812,-2.11401 2.70508,-4.68182 2.70508,-7.51758 0,-2.83519 -0.96208,-5.29547 -2.82617,-7.13671 l 0.0273,-0.17969 h -0.23828 c -1.92979,-1.821 -4.54395,-2.73242 -7.64062,-2.73242 z m 0,0.62304 c 3.04204,0 5.54038,0.87247 7.34765,2.64258 6.5e-4,6.3e-4 0.001,0.001 0.002,0.002 0.002,0.002 0.008,0.007 0.0137,0.0117 4e-4,3.7e-4 -3.9e-4,0.002 0,0.002 l 0.004,0.002 v 0.002 c 1.78324,1.72675 2.6875,4.03367 2.6875,6.76367 0,2.70536 -0.86457,5.1148 -2.56445,7.1211 l -0.002,0.002 c -1.13593,1.34423 -2.49512,2.24307 -4.01758,2.68945 l -0.4668,0.13672 0.31836,0.36719 c 0.0402,0.0465 0.0412,0.0476 0.0156,0.0156 l 0.0137,0.0156 0.0156,0.0137 c 0.68423,0.65345 1.29147,1.34141 1.82032,2.06446 l 0.006,0.008 c 5.2e-4,7.2e-4 0.001,0.001 0.002,0.002 l 0.0215,0.0391 0.0195,0.0215 0.006,0.008 c 2.73238,3.90658 4.54954,6.36551 5.3125,7.2168 l 0.002,0.002 0.002,0.002 c 0.8153,0.87782 1.39607,1.48902 1.73437,1.82813 l 0.006,0.006 0.006,0.004 c 0.33403,0.30294 0.69744,0.60756 1.09571,0.91407 v 0.002 c 0.35968,0.27653 0.71183,0.48489 1.05664,0.65039 l 0.0996,0.0801 h 0.11523 c 0.80212,0.36503 1.64026,0.57422 2.55469,0.57422 h 0.32031 0.10352 0.99414 c 0.62252,0 1.0809,-0.17923 1.46484,-0.53906 v -0.002 c 0.42931,-0.40435 0.63066,-0.83506 0.65625,-1.36133 v -0.008 -22.82812 c 0,-0.51606 -0.17987,-0.9158 -0.5918,-1.2793 -0.4223,-0.37276 -0.90529,-0.55274 -1.52929,-0.55274 h -1.34375 v -1.82226 h 14.7207 c 1.28266,0 2.39735,-0.0953 3.33789,-0.27734 0.48873,-0.0944 0.894,-0.18454 1.19922,-0.26172 0.15405,-0.0388 0.28796,-0.0755 0.38672,-0.10547 0.0494,-0.015 0.089,-0.0281 0.12109,-0.0391 0.016,-0.005 0.0308,-0.0102 0.0449,-0.0156 0.007,-0.003 0.0135,-0.005 0.0234,-0.01 0.005,-0.002 0.009,-0.006 0.0176,-0.01 0.006,-0.003 0.0198,-0.0117 0.0293,-0.0176 l -0.0176,0.0137 0.91797,-0.4082 v 7.25 l -1.86914,-0.16992 v -1.33399 c 0,-0.51433 -0.15927,-0.91651 -0.49414,-1.27539 -0.31781,-0.3405 -0.70235,-0.50781 -1.24219,-0.50781 h -9.33985 v 10.88281 h 7.56055 c 0.24557,0 0.41939,-0.015 0.57813,-0.0742 0.15873,-0.0592 0.2747,-0.17183 0.34961,-0.26171 l 0.006,-0.006 0.0117,-0.0137 0.006,-0.004 c 0.2267,-0.24765 0.35157,-0.56254 0.35157,-0.99024 v -1.29492 h 1.86914 v 8.07617 h -1.86914 v -1.29492 c 0,-0.36867 -0.0535,-0.61681 -0.15235,-0.80078 -0.0863,-0.16038 -0.24024,-0.29537 -0.43164,-0.39453 l -0.0176,-0.01 -0.0195,-0.008 c -0.18243,-0.0649 -0.37577,-0.10995 -0.58203,-0.13672 l -0.0195,-0.002 h -7.64063 v 10.88281 h 6.88672 c 1.39599,0 2.5184,-0.24294 3.39258,-0.69336 l -0.14258,0.0352 h 0.12696 l 0.10156,-0.0937 -0.0742,0.0508 c 0.95684,-0.47839 1.63433,-1.02634 2.06836,-1.62305 l 0.002,-0.002 0.008,-0.0137 0.002,-0.002 v -0.002 c 0.50322,-0.65151 1.02982,-1.54208 1.56055,-2.66601 l 0.18164,-0.38282 h 1.88086 l -3.16211,8.22071 h -20.31836 -0.10352 -2.9668 c -1.44815,0 -2.81229,-0.25502 -4.07617,-0.76368 l -0.0156,-0.01 -0.0234,-0.01 c -1.2235,-0.52899 -2.17188,-1.06204 -2.86133,-1.64257 l -0.0195,-0.0176 -0.0156,-0.0137 -0.006,-0.004 c -7.3e-4,-6.9e-4 -0.001,-0.001 -0.002,-0.002 l -0.008,-0.008 c -0.57535,-0.54425 -1.09302,-1.06057 -1.54687,-1.54687 l -0.004,-0.006 -0.006,-0.004 -0.008,-0.008 -0.008,-0.0117 -0.004,-0.004 c -0.47313,-0.5823 -1.63288,-2.21894 -3.5918,-5.04493 -0.97763,-1.41032 -1.75822,-2.52624 -2.32812,-3.32812 -0.57024,-0.8023 -0.92874,-1.28861 -1.05274,-1.4375 l -0.002,-0.002 -0.006,-0.008 -0.004,-0.006 -0.002,-0.002 -0.004,-0.002 c -0.30771,-0.40003 -0.62906,-0.78532 -0.96679,-1.1543 l -0.002,-0.002 h -0.002 c -0.94777,-1.00525 -1.8008,-1.42188 -2.58789,-1.42188 h -0.91797 v 12.27539 c 0,0.66253 0.21088,1.19503 0.66406,1.68164 l 0.008,0.01 0.01,0.008 c 0.48291,0.44892 1.02837,0.66406 1.72852,0.66406 h 1.18359 l 0.18164,1.82032 h -11.94922 v -1.82032 h 1.29688 c 0.66138,0 1.16702,-0.21692 1.61914,-0.66015 l -0.0195,0.0176 0.0254,-0.0137 0.004,-0.002 0.008,-0.01 c 0.002,-0.002 0.004,-3.7e-4 0.006,-0.002 l 0.0176,-0.0156 0.008,-0.01 c 2.2e-4,-1.8e-4 0.002,-0.002 0.002,-0.002 l 0.002,-0.002 c 2e-5,-2e-5 0.003,-0.004 0.006,-0.008 l 0.006,-0.008 c -2.8e-4,3.4e-4 -0.002,-3.7e-4 -0.002,0 l -0.0215,0.0195 c 0.4837,-0.4619 0.72111,-0.97869 0.74805,-1.64062 l 0.002,-0.006 v -26.65625 l -0.002,-0.006 c -0.0269,-0.66611 -0.26226,-1.18824 -0.75195,-1.65235 l -0.0899,-0.084 h -0.01 l -0.0332,-0.0293 h -0.11915 c -0.40972,-0.35516 -0.83491,-0.60742 -1.40429,-0.60742 h -1.29688 v -1.15234 -0.42383 -0.24609 z m -5.49024,2.83985 v 0.3125 13.48632 l 1,0.125 c 0.21646,0.0277 0.53059,0.043 0.92969,0.043 0.40224,0 0.9045,-0.0217 1.50391,-0.0508 h 0.006 0.0117 0.004 c 1.89791,-0.0461 3.3825,-0.46459 4.50195,-1.21093 1.11633,-0.74419 1.90102,-1.82021 2.37696,-3.31641 l 0.002,-0.002 v -0.004 c 0.17615,-0.58925 0.25976,-1.11693 0.25976,-1.58203 v -1.08985 -0.004 c -0.0546,-1.78959 -0.5262,-3.16303 -1.26757,-4.28321 h 0.13867 l -0.4082,-0.50781 c -0.94493,-1.17398 -2.15698,-1.77899 -3.79297,-1.86719 h -0.002 c -0.75662,-0.0344 -1.70814,-0.0488 -2.85351,-0.0488 z m 0.625,0.62304 h 1.78516 c 1.13926,0 2.08162,0.0152 2.82226,0.0488 1.50635,0.0812 2.48758,0.57786 3.33985,1.63672 0.85108,1.05736 1.33918,2.47278 1.39843,4.41602 v 1.07617 c 0,0.3903 -0.0702,0.86179 -0.23242,1.4043 -0.44304,1.38897 -1.12822,2.31467 -2.12695,2.98046 -0.99699,0.6647 -2.35758,1.06334 -4.17188,1.10743 h -0.0156 -0.0215 c -0.59621,0.0289 -1.09122,0.0488 -1.47265,0.0488 -0.38358,0 -0.68581,-0.0162 -0.84961,-0.0371 l -0.45508,-0.0566 z m 88.23438,0.0449 -1.91211,0.0176 -0.0215,0.28711 -0.0664,0.91993 v 0.002 c -2e-4,-0.003 -5.6e-4,-0.002 -0.006,0.0234 -0.007,0.0366 -0.0195,0.0895 -0.0352,0.15429 -0.0312,0.12967 -0.0786,0.30689 -0.14258,0.50782 -0.12961,0.40783 -0.32712,0.9544 -0.58984,1.60351 -0.004,0.0102 -0.0947,0.21557 -0.23438,0.52344 -0.13965,0.30787 -0.33512,0.74101 -0.58203,1.27734 -0.49396,1.07299 -1.20344,2.60276 -2.11719,4.56641 -1.8269,3.92626 -4.49599,9.6422 -8.00585,17.14258 -0.37106,0.7666 -0.80072,1.26825 -1.29102,1.60351 -0.50923,0.33794 -0.90622,0.45313 -1.29687,0.45313 h -1.64258 l 2.46093,-6.40039 h -3.20507 l -0.3418,0.76953 c -0.48362,1.08818 -0.97397,1.93561 -1.42969,2.52539 l -0.004,0.004 -0.002,0.002 -0.01,0.0117 -0.01,0.0137 c -0.35907,0.49342 -0.951,0.98631 -1.8418,1.43164 -0.80431,0.40225 -1.85011,0.63476 -3.17578,0.63476 h -6.21289 v -23.00976 c 0,-0.40529 0.0588,-0.54549 0.40039,-0.8711 0.37323,-0.32664 0.64849,-0.43359 1.14453,-0.43359 h 1.8711 v -3.06836 h -0.86914 l -11.67578,-0.002 v 0.31055 0.98242 1.77539 h 1.87109 c 0.50502,-9e-5 0.73936,0.0967 1.08008,0.41601 l 0.0332,0.0293 c 0.38611,0.34304 0.46086,0.51441 0.48047,0.91406 v 22.65821 c -0.0202,0.41446 -0.10227,0.60169 -0.45898,0.9375 l 0.21289,-0.084 c 0,0 0,0.31055 0,0.31055 -5e-5,6e-5 -0.22063,-0.22078 -0.22071,-0.2207 l 0.008,-0.006 c -0.29789,0.27857 -0.51604,0.37109 -1.03907,0.37109 h -1.96679 v 3.06836 h 21.7207 l 1.14453,-2.97656 v 2.97461 h 11.7793 v -3.06836 h -1.67969 c -0.20368,0 -0.29852,-0.0194 -0.32422,-0.0293 -0.0245,-0.009 -0.027,-0.0133 -0.0781,-0.0781 -0.0995,-0.14344 -0.16061,-0.26511 -0.19336,-0.34766 -0.0165,-0.0417 -0.0281,-0.0723 -0.0332,-0.0918 -9e-5,-3.7e-4 10e-5,-0.002 0,-0.002 0.002,-0.20167 0.0435,-0.43335 0.15235,-0.71875 2.8e-4,-7.4e-4 -2.9e-4,-0.001 0,-0.002 l 2.29687,-5.43165 h 10.45313 l 2.29687,5.55469 c 0.0765,0.21216 0.11328,0.41946 0.11328,0.66016 0,-0.0705 0.003,-0.0107 -0.0254,0.0566 -0.0281,0.0673 -0.0832,0.17346 -0.1875,0.30859 -0.0724,0.0941 -0.0779,0.0954 -0.0879,0.0996 -0.01,0.004 -0.0884,0.0215 -0.28125,0.0215 h -1.67969 v 3.06836 h 11.15821 11.02148 v -3.06836 h -1.87109 c -0.2109,0 -0.32334,-0.0205 -0.36524,-0.0352 -0.0346,-0.0121 -0.0416,-0.0226 -0.0664,-0.0527 -0.079,-0.13425 -0.13493,-0.26701 -0.16797,-0.35743 -0.002,-0.004 -0.002,-0.008 -0.004,-0.0117 0.011,-0.0177 0.007,-0.0179 0.0352,-0.0547 l 0.0664,-0.084 5.91015,-7.97461 5.55078,7.9629 c 0.0414,0.0791 0.0439,0.11223 0.0488,0.14843 -0.0388,0.0814 -0.10462,0.20043 -0.19726,0.33594 l -0.0352,0.0527 h 0.002 c -0.0571,0.0824 -0.0297,0.0505 -0.0254,0.0488 0.004,-0.002 -0.0905,0.0176 -0.30664,0.0176 h -1.87109 v 3.07031 h 13.99218 v -3.07031 h -1.91992 c -0.3701,0 -1.01326,-0.11566 -1.81445,-0.40039 l -0.004,-0.002 c -0.58976,-0.22013 -1.17319,-0.65839 -1.76562,-1.4375 l -8.0625,-11.53321 7.18945,-10.00195 c 0.43912,-0.56738 0.96635,-1.02178 1.625,-1.39062 l 0.006,-0.004 0.006,-0.004 0.004,-0.002 0.004,-0.002 c 0.66246,-0.38141 1.27873,-0.54883 1.94922,-0.54883 h 1.9668 v -3.06836 h -13.27149 v 3.06836 h 1.8711 c 0.20179,0 0.27108,0.0179 0.26172,0.0117 0.009,0.0133 0.0211,0.028 0.0469,0.0684 l 0.0254,0.0391 0.0488,0.0684 c 0.0823,0.11237 0.13393,0.21629 0.16602,0.29297 l -0.0156,0.0234 -0.043,0.0547 v 0.01 l -4.75,7.14648 -4.91797,-7.04687 -0.0918,-0.13867 c -0.0448,-0.0672 -0.0378,-0.0651 -0.0449,-0.084 0.004,-0.0111 0.007,-0.0187 0.0117,-0.0312 0.0322,-0.0788 0.0826,-0.18522 0.16211,-0.30078 0.0643,-0.0888 0.0749,-0.0957 0.084,-0.0996 0.009,-0.004 0.094,-0.0215 0.29883,-0.0215 h 1.87109 v -3.07032 h -13.89649 v 3.07032 h 1.91993 c 0.67151,0 1.28782,0.16632 1.95117,0.54882 l 0.0137,0.008 h 0.002 l 0.0352,0.0195 0.006,0.004 c 0.71534,0.37225 1.21006,0.79834 1.55664,1.28321 l 7.58008,10.89843 -8.34766,10.67969 c -1.13855,1.35468 -2.21846,1.88086 -3.56836,1.88086 h -0.24609 c -0.52622,0 -0.9373,-0.11991 -1.33985,-0.42969 -0.402,-0.30936 -0.7957,-0.82838 -1.20117,-1.63671 -5.4e-4,-10e-4 -0.001,-8.7e-4 -0.002,-0.002 l -12.21289,-26.99804 z m 0.004,0.625 h 0.15821 l 12.05468,26.64843 0.002,0.004 c 0.43035,0.85872 0.86984,1.46222 1.38086,1.85547 0.51101,0.39325 1.09158,0.55859 1.7207,0.55859 h 0.24609 c 1.52443,0 2.83329,-0.65836 4.05274,-2.11328 l 0.004,-0.004 8.63477,-11.04687 -7.8457,-11.28125 -0.002,-0.002 c -0.41135,-0.57549 -0.99433,-1.0693 -1.7832,-1.47852 l 0.0703,0.0488 -0.0176,-0.0156 -0.0508,-0.0352 -0.10547,-0.0527 h -0.0684 c -0.69513,-0.37361 -1.38985,-0.59179 -2.11718,-0.59179 h -1.29493 v -1.82032 h 12.64844 v 1.82032 h -1.24804 c -0.22509,0 -0.38086,0.004 -0.54493,0.0742 -0.16406,0.0704 -0.26589,0.19902 -0.34765,0.3125 l -0.002,0.002 -0.002,0.004 c -0.1004,0.14586 -0.16028,0.2721 -0.20508,0.37696 H 327.961 l 0.0684,0.36914 c 0.015,0.081 0.0581,0.20443 0.16797,0.36914 l 0.0957,0.14453 5.44531,7.80273 5.29102,-7.95898 0.01,-0.0137 0.10156,-0.13477 -0.008,-0.0215 c 0.009,-0.0177 0.0216,-0.03 0.0293,-0.0508 0.01,-0.0266 0.005,-0.0398 0.01,-0.0645 4.9e-4,-10e-4 0.002,-0.003 0.002,-0.004 0.005,-0.0148 0.008,-0.0257 0.01,-0.0352 0.0163,-0.0754 0.01,-0.0791 0.01,-0.10351 h -0.62305 c 10e-6,-0.003 -0.002,0.004 -0.002,0 0,0.0141 -0.008,0.0339 0.006,-0.0293 0.002,-0.008 0.005,-0.0176 0.01,-0.0312 0.005,-0.0136 0.0237,-0.0551 0.0234,-0.0547 -2.2e-4,3.8e-4 0.0764,-0.0881 0.0762,-0.0879 -2.5e-4,2e-4 0.17411,-0.0664 0.17383,-0.0664 -2.8e-4,2e-5 0.16047,0.0334 0.16016,0.0332 -3.2e-4,-1.6e-4 0.0746,0.0531 0.0742,0.0527 -3.5e-4,-3.3e-4 0.0244,0.0261 0.0312,0.0352 0.007,0.009 0.0102,0.0159 0.0137,0.0215 0.0276,0.0444 0.0168,0.0301 0.0117,0.0176 -0.005,-0.0126 -0.0146,-0.0361 -0.0254,-0.0625 -0.0404,-0.0987 -0.12387,-0.26936 -0.25391,-0.44727 v 0.004 l -0.0273,-0.043 0.0273,0.0391 c -0.009,-0.0124 -0.008,-0.0188 -0.0176,-0.0312 l -0.0312,-0.041 c -0.0313,-0.0489 -0.0592,-0.0964 -0.10547,-0.15234 -0.0462,-0.056 -0.12179,-0.11888 -0.20507,-0.1543 -0.16657,-0.0708 -0.29891,-0.0606 -0.52344,-0.0606 h -1.2461 v -1.82226 h 12.02344 v 1.82226 h -1.34375 c -0.77673,0 -1.51968,0.20363 -2.26172,0.63086 l 0.0293,-0.0156 -0.0273,0.0117 -0.0137,0.0117 c -0.726,0.40656 -1.32518,0.92056 -1.81445,1.55274 l -0.004,0.006 -7.45703,10.375 8.32813,11.91015 0.004,0.006 c 0.64566,0.84911 1.32862,1.37672 2.04883,1.64453 l 0.002,0.002 h 0.002 c 0.84988,0.30257 1.53413,0.43945 2.02734,0.43945 h 1.29688 v 1.82031 h -12.7461 v -1.82031 h 1.24805 c 0.23435,0 0.37764,-3.6e-4 0.53516,-0.0625 0.15752,-0.0621 0.25276,-0.19477 0.30859,-0.27539 h 0.002 l 0.008,-0.01 c 0.13875,-0.19533 0.23008,-0.36523 0.28515,-0.48242 0.0225,-0.0481 0.044,-0.0988 0.0566,-0.16015 l 0.008,-0.0391 -0.002,-0.0391 c -0.007,-0.13469 -0.0494,-0.29105 -0.13867,-0.45898 l -0.01,-0.0176 -6.07422,-8.71485 -6.46485,8.72071 -0.084,0.0859 v 0.041 c -0.0323,0.0487 -0.0722,0.10078 -0.0918,0.14844 -0.0105,0.0256 -0.006,0.0378 -0.0117,0.0644 -0.005,0.0122 -0.01,0.0206 -0.0117,0.0274 -0.009,0.0308 -0.0122,0.0475 -0.0137,0.0605 -0.003,0.0261 -0.002,0.038 -0.002,0.0508 h 0.62305 c 0,-0.0238 -0.005,0.0308 -0.006,0.0332 -7e-5,1.6e-4 0.004,-0.008 0.004,-0.008 -0.001,0.009 -0.002,0.0205 -0.01,0.0469 -0.004,0.0143 -0.0256,0.0589 -0.0254,0.0586 1.9e-4,-3.4e-4 -0.0881,0.0998 -0.0879,0.0996 1.1e-4,-8e-5 -0.0919,0.045 -0.0918,0.0449 1.2e-4,-3e-5 -0.1095,0.0137 -0.10938,0.0137 1.3e-4,0 -0.0919,-0.0196 -0.0918,-0.0195 1.3e-4,5e-5 -0.0607,-0.0313 -0.0605,-0.0313 2.9e-4,1.9e-4 -0.0609,-0.0531 -0.0606,-0.0527 3.2e-4,3.6e-4 -0.0199,-0.0231 -0.0254,-0.0312 -0.0218,-0.0328 -0.0221,-0.0399 -0.0234,-0.043 -0.005,-0.0123 0.0142,0.0403 0.0351,0.0977 0.0419,0.11464 0.11424,0.29625 0.23438,0.49219 l 0.0117,0.0176 0.0137,0.0176 c 0.076,0.0922 0.19821,0.20287 0.35547,0.25781 0.15725,0.0549 0.32918,0.0684 0.57031,0.0684 h 1.24609 v 1.82032 h -10.39648 -10.53516 v -1.82032 h 1.05664 c 0.21427,0 0.36506,-0.003 0.52344,-0.0703 0.15838,-0.0668 0.258,-0.18661 0.33984,-0.29297 0.13461,-0.17437 0.21843,-0.32675 0.26953,-0.44922 0.0511,-0.12246 0.0742,-0.18261 0.0742,-0.29687 0,-0.30716 -0.0507,-0.59476 -0.15039,-0.87109 l -0.004,-0.008 -2.46289,-5.95898 h -11.28321 l -2.46679,5.82617 -0.002,0.006 c -0.13369,0.34983 -0.19336,0.66645 -0.19336,0.95703 0,0.085 0.009,0.0956 0.0215,0.14258 0.0122,0.047 0.0307,0.10267 0.0566,0.16797 0.0518,0.13059 0.13444,0.29711 0.26758,0.48633 l 0.006,0.008 0.006,0.006 c 0.077,0.0977 0.18766,0.21621 0.3457,0.27734 0.15804,0.0611 0.32045,0.0703 0.55078,0.0703 h 1.05469 v 1.82032 h -10.53125 v -1.82032 h 1.05469 c 0.52105,0 1.05995,-0.17003 1.64453,-0.55859 h 0.002 l 0.002,-0.002 c 0.59197,-0.40479 1.09408,-1.00713 1.50196,-1.85157 h 0.002 v -0.002 c 3.50997,-7.5006 6.18056,-13.21947 8.00781,-17.14648 0.91399,-1.96418 1.62265,-3.49414 2.11719,-4.56836 0.24729,-0.53718 0.44365,-0.96995 0.58398,-1.2793 0.13992,-0.30844 0.216,-0.47201 0.2461,-0.54687 v -0.002 c 0.26732,-0.6606 0.46761,-1.21886 0.60351,-1.64648 0.0693,-0.21752 0.12183,-0.40797 0.15625,-0.55078 0.0172,-0.0714 0.0299,-0.13086 0.0391,-0.17578 0.009,-0.0449 0.014,-0.0342 0.0195,-0.11524 v -0.01 l 0.043,-0.61329 z m -40.22461,0.6875 11.05078,0.004 h 0.24805 v 1.82031 h -1.24805 c -0.60873,0 -1.10484,0.18762 -1.5625,0.58985 l -0.004,0.004 -0.006,0.006 c -0.41674,0.39584 -0.59766,0.81349 -0.59766,1.32813 v 23.63281 h 6.83789 c 1.39812,0 2.54319,-0.24317 3.45508,-0.69922 0.95644,-0.47815 1.6324,-1.02664 2.06641,-1.62304 l -0.0234,0.0273 0.0234,-0.0215 0.0156,-0.0234 c 0.49941,-0.64632 1.00797,-1.53233 1.50586,-2.65235 v -0.002 l 0.17578,-0.39648 h 1.89453 l -3.16406,8.2207 h -20.66797 v -1.82031 h 1.34375 c 0.57719,0 0.99278,-0.19091 1.35938,-0.5 l 0.0176,0.0449 0.0879,-0.084 0.004,-0.004 0.004,-0.004 c 7e-5,-7e-5 0.0253,-0.0273 0.0254,-0.0273 0,0 -0.009,-0.007 -0.01,-0.008 0.40146,-0.39296 0.60802,-0.81142 0.63282,-1.32032 v -0.008 -22.70312 -0.008 c -0.015,-0.30609 -0.25164,-0.54538 -0.41016,-0.80468 h 0.35742 l -0.64453,-0.55469 -0.006,-0.006 c -0.42444,-0.39944 -0.90072,-0.588 -1.51367,-0.58789 h -1.24805 v -1.15039 z m 76.19336,2.10156 h 0.004 l 0.0391,0.0566 z m -36.6914,4.78711 -0.29102,0.6914 -4.26953,10.08204 h 8.96484 z m -0.01,1.625 3.48438,8.52344 h -7.09375 z"
       id="path9644"
       inkscape:connector-curvature="0" />
  </g>
</svg>
