<?xml version="1.0" encoding="UTF-8" standalone="no"?>
<!-- Created with Inkscape (http://www.inkscape.org/) -->

<svg
   xmlns:dc="http://purl.org/dc/elements/1.1/"
   xmlns:cc="http://creativecommons.org/ns#"
   xmlns:rdf="http://www.w3.org/1999/02/22-rdf-syntax-ns#"
   xmlns:svg="http://www.w3.org/2000/svg"
   xmlns="http://www.w3.org/2000/svg"
   xmlns:xlink="http://www.w3.org/1999/xlink"
   xmlns:sodipodi="http://sodipodi.sourceforge.net/DTD/sodipodi-0.dtd"
   xmlns:inkscape="http://www.inkscape.org/namespaces/inkscape"
   width="164.83455mm"
   height="185.51527mm"
   viewBox="0 0 164.83455 185.51527"
   version="1.1"
   id="svg1766"
   inkscape:version="0.92.4 (5da689c313, 2019-01-14)"
   sodipodi:docname="ORION_LOGO.svg">
  <defs
     id="defs1760">
    <radialGradient
       inkscape:collect="always"
       xlink:href="#linearGradient1743"
       id="radialGradient965"
       gradientUnits="userSpaceOnUse"
       gradientTransform="matrix(2.0317157,0.0255659,-0.01375816,1.0933574,1942.3355,173.38628)"
       cx="-914.70239"
       cy="55.627174"
       fx="-914.70239"
       fy="55.627174"
       r="82.417427" />
    <linearGradient
       id="linearGradient1743"
       inkscape:collect="always">
      <stop
         id="stop1739"
         offset="0"
         style="stop-color:#ffff;stop-opacity:1" />
      <stop
         id="stop1741"
         offset="1"
         style="stop-color:#ffff;stop-opacity:1" />
    </linearGradient>
  </defs>
  <sodipodi:namedview
     id="base"
     pagecolor="#ffffff"
     bordercolor="#666666"
     borderopacity="1.0"
     inkscape:pageopacity="0.0"
     inkscape:pageshadow="2"
     inkscape:zoom="0.35"
     inkscape:cx="397.21266"
     inkscape:cy="347.72299"
     inkscape:document-units="mm"
     inkscape:current-layer="layer1"
     showgrid="false"
     inkscape:window-width="1366"
     inkscape:window-height="705"
     inkscape:window-x="-8"
     inkscape:window-y="-8"
     inkscape:window-maximized="1" />
  <metadata
     id="metadata1763">
    <rdf:RDF>
      <cc:Work
         rdf:about="">
        <dc:format>image/svg+xml</dc:format>
        <dc:type
           rdf:resource="http://purl.org/dc/dcmitype/StillImage" />
        <dc:title></dc:title>
      </cc:Work>
    </rdf:RDF>
  </metadata>
  <g
     inkscape:label="Capa 1"
     inkscape:groupmode="layer"
     id="layer1"
     transform="translate(-0.73748439,-55.319766)">
    <path
       style="opacity:1;fill:url(#radialGradient965);fill-opacity:1;stroke:none;stroke-width:2;stroke-linecap:round;stroke-linejoin:round;stroke-miterlimit:4;stroke-dasharray:4.00000005, 4.00000005;stroke-dashoffset:0;stroke-opacity:0.57254902"
       d="m 83.15501,55.319766 c -5.5654,0 -77.5477005,41.559258 -80.3305006,46.379084 -2.78270001,4.81982 -2.78270001,87.93731 0,92.75713 0.097,0.16871 0.2882,0.38695 0.5493,0.64234 19.6567996,-3.46407 47.3098006,-6.92703 79.7667016,-7.01559 32.470199,0.0886 60.132299,3.55475 79.790499,7.02024 0.2636,-0.25732 0.456,-0.47732 0.554,-0.64699 2.7827,-4.81982 2.7827,-87.93731 0,-92.75713 -2.7827,-4.819826 -74.7645,-46.379084 -80.33,-46.379084 z m 16.3675,21.176485 a 0.68557108,0.68557108 0 0 1 0.5297,0.231511 0.68557108,0.68557108 0 0 1 -0.06,0.967383 0.68557108,0.68557108 0 0 1 -0.967298,-0.05943 0.68557108,0.68557108 0 0 1 0.059,-0.967899 0.68557108,0.68557108 0 0 1 0.4377,-0.171567 z m 4.2245,1.599386 a 0.6603515,0.6603515 0 0 1 0.5101,0.222726 0.6603515,0.6603515 0 0 1 -0.057,0.931725 0.6603515,0.6603515 0 0 1 -0.9317,-0.05736 0.6603515,0.6603515 0 0 1 0.057,-0.931728 0.6603515,0.6603515 0 0 1 0.4217,-0.165364 z m -52.847399,2.747637 a 0.60526859,0.60526859 0 0 1 0.468198,0.20412 0.60526859,0.60526859 0 0 1 -0.053,0.854213 0.60526859,0.60526859 0 0 1 -0.854202,-0.05271 0.60526859,0.60526859 0 0 1 0.052,-0.854213 0.60526859,0.60526859 0 0 1 0.386501,-0.15141 z m 58.365999,1.658813 a 0.76289064,0.76289064 0 0 1 0.5896,0.257347 0.76289064,0.76289064 0 0 1 -0.066,1.076938 0.76289064,0.76289064 0 0 1 -1.07689,-0.06666 0.76289064,0.76289064 0 0 1 0.067,-1.07642 0.76289064,0.76289064 0 0 1 0.4868,-0.191201 z m 2.6846,3.388939 a 0.74347353,0.74347353 0 0 1 0.5751,0.251148 0.74347353,0.74347353 0 0 1 -0.065,1.04903 0.74347353,0.74347353 0 0 1 -1.0495,-0.06459 0.74347353,0.74347353 0 0 1 0.065,-1.049546 0.74347353,0.74347353 0 0 1 0.4744,-0.186037 z m -66.5087,1.191141 a 0.60526859,0.60526859 0 0 1 0.467699,0.204123 0.60526859,0.60526859 0 0 1 -0.052,0.85421 0.60526859,0.60526859 0 0 1 -0.854703,-0.05271 0.60526859,0.60526859 0 0 1 0.053,-0.854213 0.60526859,0.60526859 0 0 1 0.386501,-0.151413 z m 67.4016,8.292518 a 0.60526859,0.60526859 0 0 1 0.4682,0.204123 0.60526859,0.60526859 0 0 1 -0.053,0.85421 0.60526859,0.60526859 0 0 1 -0.8542,-0.05219 0.60526859,0.60526859 0 0 1 0.053,-0.854728 0.60526859,0.60526859 0 0 1 0.386,-0.151413 z m -33.670299,0.865582 a 0.70614667,0.70614667 0 0 1 0.546198,0.238228 0.70614667,0.70614667 0 0 1 -0.062,0.996839 0.70614667,0.70614667 0 0 1 -0.996799,-0.0615 0.70614667,0.70614667 0 0 1 0.062,-0.99632 0.70614667,0.70614667 0 0 1 0.450601,-0.177247 z m 13.557798,1.820561 a 1.1402553,1.1402553 0 0 1 0.8817,0.384471 1.1402553,1.1402553 0 0 1 -0.099,1.609721 1.1402553,1.1402553 0 0 1 -1.609199,-0.09922 1.1402553,1.1402553 0 0 1 0.099,-1.609722 1.1402553,1.1402553 0 0 1 0.728099,-0.285252 z m 18.097101,1.118793 a 0.60526859,0.60526859 0 0 1 0.4682,0.204123 0.60526859,0.60526859 0 0 1 -0.053,0.854726 0.60526859,0.60526859 0 0 1 -0.8542,-0.0527 0.60526859,0.60526859 0 0 1 0.052,-0.854213 0.60526859,0.60526859 0 0 1 0.3865,-0.151929 z m -53.1357,0.76998 a 0.60526859,0.60526859 0 0 1 0.468101,0.204639 0.60526859,0.60526859 0 0 1 -0.053,0.85421 0.60526859,0.60526859 0 0 1 -0.854199,-0.0527 0.60526859,0.60526859 0 0 1 0.052,-0.85421 0.60526859,0.60526859 0 0 1 0.386601,-0.151929 z m -1.694,3.719149 a 0.60526859,0.60526859 0 0 1 0.467698,0.20464 0.60526859,0.60526859 0 0 1 -0.052,0.85421 0.60526859,0.60526859 0 0 1 -0.8547,-0.0527 0.60526859,0.60526859 0 0 1 0.053,-0.85421 0.60526859,0.60526859 0 0 1 0.386501,-0.15193 z m 9.633,4.3093 a 0.60526859,0.60526859 0 0 1 0.467699,0.20464 0.60526859,0.60526859 0 0 1 -0.053,0.85421 0.60526859,0.60526859 0 0 1 -0.854199,-0.0527 0.60526859,0.60526859 0 0 1 0.053,-0.85421 0.60526859,0.60526859 0 0 1 0.3865,-0.15193 z m 10.643299,0.3483 a 1.6644885,1.6644885 0 0 1 5.29e-4,0 1.6644885,1.6644885 0 0 1 1.2867,0.56172 1.6644885,1.6644885 0 0 1 -0.144698,2.34973 1.6644885,1.6644885 0 0 1 -2.349701,-0.1447 1.6644885,1.6644885 0 0 1 0.144701,-2.34972 1.6644885,1.6644885 0 0 1 1.062498,-0.41703 z m 32.169601,8.13594 a 0.77853762,0.77853762 0 0 1 0.602,0.26303 0.77853762,0.77853762 0 0 1 -0.068,1.09864 0.77853762,0.77853762 0 0 1 -1.09861,-0.0677 0.77853762,0.77853762 0 0 1 0.068,-1.09864 0.77853762,0.77853762 0 0 1 0.4966,-0.19534 z m -7.3954,0.2961 a 1.0638639,1.0638639 0 0 1 0.82269,0.35864 1.0638639,1.0638639 0 0 1 -0.092,1.50171 1.0638639,1.0638639 0 0 1 -1.5018,-0.0925 1.0638639,1.0638639 0 0 1 0.092,-1.50172 1.0638639,1.0638639 0 0 1 0.6791,-0.26613 z m -0.4992,3.31918 a 1.0638639,1.0638639 0 0 1 0.82269,0.35863 1.0638639,1.0638639 0 0 1 -0.092,1.50172 1.0638639,1.0638639 0 0 1 -1.5017,-0.0925 1.0638639,1.0638639 0 0 1 0.092,-1.5012 1.0638639,1.0638639 0 0 1 0.679,-0.26665 z m -0.975701,3.3445 a 0.87471753,0.87471753 0 0 1 0.676501,0.29507 0.87471753,0.87471753 0 0 1 -0.076,1.23507 0.87471753,0.87471753 0 0 1 -1.235001,-0.076 0.87471753,0.87471753 0 0 1 0.076,-1.23507 0.87471753,0.87471753 0 0 1 0.558599,-0.21911 z m 19.690801,0.11679 a 0.77853762,0.77853762 0 0 1 0.6021,0.26251 0.77853762,0.77853762 0 0 1 -0.068,1.09916 0.77853762,0.77853762 0 0 1 -1.0992,-0.0677 0.77853762,0.77853762 0 0 1 0.068,-1.09916 0.77853762,0.77853762 0 0 1 0.4971,-0.19482 z m -17.2444,0.60461 a 0.78644925,0.78644925 0 0 1 0.6082,0.2651 0.78644925,0.78644925 0 0 1 -0.068,1.11001 0.78644925,0.78644925 0 0 1 -1.1105,-0.0682 0.78644925,0.78644925 0 0 1 0.069,-1.11001 0.78644925,0.78644925 0 0 1 0.5018,-0.19689 z m 23.3774,1.62057 a 1.8186253,1.8186253 0 0 1 1.4061,0.6134 1.8186253,1.8186253 0 0 1 -0.1581,2.56729 1.8186253,1.8186253 0 0 1 -2.5668,-0.15813 1.8186253,1.8186253 0 0 1 0.1581,-2.56729 1.8186253,1.8186253 0 0 1 1.1607,-0.45527 z m -24.7251,1.43093 a 0.97559566,0.97559566 0 0 1 5.3e-4,0 0.97559566,0.97559566 0 0 1 0.75389,0.32917 0.97559566,0.97559566 0 0 1 -0.085,1.37718 0.97559566,0.97559566 0 0 1 -1.377201,-0.0853 0.97559566,0.97559566 0 0 1 0.085,-1.37666 0.97559566,0.97559566 0 0 1 0.6227,-0.24443 z m 7.0523,2.5187 a 0.71548874,0.71548874 0 0 1 0.5529,0.24133 0.71548874,0.71548874 0 0 1 -0.062,1.01028 0.71548874,0.71548874 0 0 1 -1.0103,-0.0625 0.71548874,0.71548874 0 0 1 0.062,-1.00976 0.71548874,0.71548874 0 0 1 0.4569,-0.17932 z m 4.5222,1.21233 a 1.0685619,1.0685619 0 0 1 0.8263,0.3607 1.0685619,1.0685619 0 0 1 -0.093,1.50844 1.0685619,1.0685619 0 0 1 -1.508,-0.093 1.0685619,1.0685619 0 0 1 0.093,-1.50843 1.0685619,1.0685619 0 0 1 0.6822,-0.26769 z m -2.9099,0.71779 a 0.84158635,0.84158635 0 0 1 0.65059,0.2837 0.84158635,0.84158635 0 0 1 -0.073,1.18804 0.84158635,0.84158635 0 0 1 -1.1881,-0.0734 0.84158635,0.84158635 0 0 1 0.073,-1.18752 0.84158635,0.84158635 0 0 1 0.5375,-0.21084 z m 2.7548,11.1156 a 1.0685619,1.0685619 0 0 1 0.8264,0.3607 1.0685619,1.0685619 0 0 1 -0.093,1.50844 1.0685619,1.0685619 0 0 1 -1.5079,-0.093 1.0685619,1.0685619 0 0 1 0.092,-1.50844 1.0685619,1.0685619 0 0 1 0.68209,-0.26768 z m -75.602602,8.78396 c 2.023103,0 3.655402,0.34008 4.896401,1.02009 1.241001,0.66301 2.3881,1.64062 3.442099,2.93264 1.071102,1.27502 1.8532,2.86468 2.346201,4.76871 0.493001,1.88702 0.739399,4.39449 0.739399,7.52253 0,6.4091 -1.070599,10.83746 -3.212698,13.2855 -2.125001,2.43103 -4.879001,3.6468 -8.262,3.6468 -3.451001,0 -6.205601,-1.25789 -8.262602,-3.77393 -2.057099,-2.53303 -3.085599,-6.85115 -3.085599,-12.95424 0,-4.47107 0.4847,-7.7523 1.4537,-9.84333 0.969001,-2.09103 2.2524,-3.71449 3.850401,-4.87051 1.614998,-1.15602 3.646699,-1.73426 6.094698,-1.73426 z m 65.893202,0 c 2.0229,0 3.6548,0.34008 4.8958,1.02009 1.241,0.66301 2.3887,1.64062 3.4427,2.93264 1.071,1.27502 1.85309,2.86468 2.3461,4.76871 0.493,1.88702 0.7395,4.39449 0.7395,7.52253 0,6.4091 -1.0712,10.83746 -3.2133,13.2855 -2.125,2.43103 -4.8789,3.6468 -8.262,3.6468 -3.451,0 -6.205,-1.25789 -8.262001,-3.77393 -2.057,-2.53303 -3.0856,-6.85115 -3.0856,-12.95424 0,-4.47107 0.4845,-7.7523 1.4536,-9.84333 0.969002,-2.09103 2.2523,-3.71449 3.850402,-4.87051 1.614998,-1.15602 3.646699,-1.73426 6.094799,-1.73426 z m 16.677,0.63769 h 7.5225 l 7.9819,19.78846 h 0.1277 v -19.78846 h 6.5278 v 31.9009 h -7.2673 l -8.1096,-20.09438 h -0.1018 v 20.09438 h -6.6812 z m -65.689002,0.0512 h 8.950802 c 1.785101,0 3.5614,0.35673 5.329398,1.07074 1.785102,0.71401 3.051803,1.82785 3.799801,3.34088 0.765,1.51302 1.147201,3.08552 1.147201,4.71754 0,1.97203 -0.424899,3.59549 -1.2749,4.8705 -0.85,1.25802 -2.201399,2.40515 -4.054501,3.44217 l 5.6359,14.40791 H 65.865611 L 60.33211,168.32269 h -0.101801 v 15.75925 h -6.860001 z m 24.811903,0 h 6.885398 v 31.84974 h -6.885398 z m -17.951902,5.09995 v 9.20564 c 2.2441,0 3.6631,-0.43368 4.258201,-1.3007 0.5949,-0.88401 0.8924,-1.99734 0.8924,-3.34036 0,-3.04305 -1.249101,-4.56458 -3.748101,-4.56458 z m -23.741201,0.79065 c -1.462,0 -2.515999,0.63752 -3.162098,1.91254 -0.645901,1.25802 -0.968902,3.26368 -0.968902,6.01772 v 2.04019 c 0,3.34905 0.110802,5.55907 0.331801,6.63008 0.221001,1.05402 0.688501,1.88707 1.4025,2.49908 0.730999,0.61201 1.597901,0.91777 2.600802,0.91777 0.815999,0 1.563798,-0.29744 2.243799,-0.89245 0.68,-0.59501 1.156398,-1.49566 1.4284,-2.70268 0.272,-1.22402 0.4077,-3.39192 0.4077,-6.50296 0,-2.78804 -0.118701,-4.76822 -0.356601,-5.94124 -0.221099,-1.19002 -0.680198,-2.15047 -1.377201,-2.88148 -0.696899,-0.73101 -1.547199,-1.09657 -2.5502,-1.09657 z m 65.893202,0 c -1.462,0 -2.5161,0.63752 -3.162099,1.91254 -0.646002,1.25802 -0.969,3.26368 -0.969,6.01772 v 2.04019 c 0,3.34905 0.1103,5.55907 0.331298,6.63008 0.221002,1.05402 0.688502,1.88707 1.402501,2.49908 0.731,0.61201 1.5984,0.91777 2.6014,0.91777 0.816,0 1.5638,-0.29744 2.2438,-0.89245 0.68,-0.59501 1.15629,-1.49566 1.4283,-2.70268 0.272,-1.22402 0.4077,-3.39192 0.4077,-6.50296 -1e-4,-2.78804 -0.1191,-4.76822 -0.357,-5.94124 -0.221,-1.19002 -0.6797,-2.15047 -1.3767,-2.88148 -0.697,-0.73101 -1.5473,-1.09657 -2.5502,-1.09657 z m -19.241799,33.51992 c -0.242301,10e-4 -0.500402,10e-4 -0.7415,0.002 -24.3786,0.11065 -48.045802,1.23603 -65.568102,3.42615 -4.1168,0.51455 -7.9598996,1.06453 -11.5310996,1.62936 13.1570996,9.96636 72.8087996,44.13477 77.8552006,44.13477 5.0458,0 64.6831,-34.15997 77.85,-44.13116 -3.5779,-0.56612 -7.429,-1.11728 -11.5548,-1.63297 -17.5223,-2.19012 -41.1895,-3.3155 -65.568101,-3.42615 -0.241099,-0.001 -0.499298,-0.001 -0.741598,-0.002 z m 0.221699,3.9703 v 1.39061 l -2.6959,0.002 v 3.83852 l 2.495899,-0.002 v 1.38132 l -2.495399,0.002 v 4.18166 l 2.771899,-0.002 v 1.34307 l -4.3909,0.003 -0.01,-12.13569 z m -6.879201,0.0124 0.151501,12.13465 -1.285701,0.016 -3.199299,-8.2858 -0.038,5.3e-4 0.103299,8.32456 -1.467099,0.0181 -0.1514,-12.13465 1.304798,-0.016 3.209701,8.29561 0.038,-5.3e-4 -0.103902,-8.33437 z m 9.020702,0.001 4.314999,0.0424 -0.01299,1.39061 -2.696498,-0.0264 -0.038,3.83853 2.4964,0.0248 -0.014,1.38132 -2.495402,-0.0248 -0.041,4.18166 2.771899,0.0274 -0.01299,1.34307 -4.390901,-0.0434 z m 6.423398,0.0765 2.2665,0.0481 c 1.847601,0.0391 2.749801,1.09334 2.705801,3.16312 -0.02,0.93966 -0.171701,1.64471 -0.4548,2.11511 -0.283099,0.4704 -0.734999,0.81976 -1.3559,1.048 l 1.9626,5.87251 -1.6955,-0.0357 -1.7839,-5.73556 -0.1431,-0.003 -0.120399,5.69526 -1.638202,-0.0346 z m -30.862199,0.0279 h 5.29e-4 c 0.761601,-0.0251 1.4262,0.18532 1.993699,0.63046 0.567201,0.43878 0.891601,1.03459 0.973601,1.788 l -1.524,0.61237 c -0.165399,-1.16367 -0.631899,-1.7327 -1.3999,-1.70739 -0.590301,0.0195 -0.992899,0.33794 -1.207701,0.95498 -0.208399,0.61049 -0.289399,1.61676 -0.243398,3.01945 l 0.02,0.61908 c 0.027,0.81241 0.078,1.58917 0.1529,2.3301 0.075,0.73458 0.140399,1.27205 0.1964,1.61333 0.056,0.34127 0.156398,0.61126 0.3028,0.80977 0.146198,0.1985 0.297098,0.33053 0.451699,0.39533 0.1611,0.0646 0.345901,0.0932 0.555501,0.0863 0.393499,-0.013 0.6945,-0.14342 0.902301,-0.39171 0.207899,-0.2483 0.344897,-0.5993 0.412898,-1.05265 0.068,-0.4597 0.084,-1.23531 0.048,-2.32699 l -1.485202,0.0486 -0.047,-1.42782 3.1037,-0.10232 0.067,2.04691 c 0.046,1.39634 -0.156102,2.48936 -0.6067,3.27938 -0.450702,0.78366 -1.279102,1.19535 -2.485102,1.23507 -1.079,0.0356 -1.8717,-0.33512 -2.3802,-1.1126 -0.508799,-0.78383 -0.800399,-2.30851 -0.8754,-4.57439 -0.01,-0.26657 0,-0.97528 0.015,-2.12597 0.019,-1.15703 0.075,-1.94049 0.17,-2.35025 0.1007,-0.41632 0.275301,-0.80351 0.524002,-1.16116 0.2486,-0.36401 0.570698,-0.63815 0.9648,-0.82269 0.393999,-0.19089 0.860499,-0.29538 1.3999,-0.31316 z m 6.978399,0.0228 0.275899,12.13259 -1.638098,0.0372 -0.276001,-12.13259 z m 31.4027,0.13125 1.637601,0.0506 -0.3757,12.1295 -1.637599,-0.0506 z m 4.197701,0.13333 1.3038,0.0548 2.7538,8.45736 0.038,0.002 0.3494,-8.32714 1.4371,0.0599 -0.5085,12.12484 -1.2847,-0.0537 -2.74451,-8.44755 -0.038,-0.002 -0.3483,8.31784 -1.466,-0.0615 z m -48.327301,0.12712 0.559702,12.12278 -1.2847,0.0594 -3.476803,-8.17366 -0.038,0.002 0.3834,8.3168 -1.464998,0.0672 -0.560203,-12.12226 1.303301,-0.0605 3.4866,8.18296 0.038,-0.002 -0.383903,-8.3261 z m 59.595801,0.21239 c 0.1265,-0.004 0.2567,-0.002 0.3912,0.006 0.7609,0.0428 1.4041,0.31122 1.9296,0.80512 0.5259,0.48757 0.7958,1.10987 0.8108,1.86759 l -1.572,0.47439 c -0.061,-1.17377 -0.4756,-1.78201 -1.2428,-1.82521 -0.5896,-0.0332 -1.0189,0.24789 -1.2878,0.84336 -0.262,0.58949 -0.4325,1.58463 -0.5116,2.98586 l -0.035,0.61805 c -0.045,0.81157 -0.065,1.59006 -0.055,2.33474 0.01,0.73834 0.027,1.27982 0.052,1.62471 0.025,0.34488 0.10191,0.62279 0.23001,0.83354 0.1281,0.21074 0.2662,0.35526 0.4144,0.43356 0.1546,0.0787 0.3365,0.12362 0.5457,0.1354 0.3931,0.0221 0.7042,-0.0813 0.9333,-0.31006 0.2291,-0.2288 0.3976,-0.56578 0.5054,-1.01131 0.1081,-0.45187 0.1922,-1.223 0.2542,-2.31355 l -1.4836,-0.0837 0.08,-1.42627 3.1006,0.17466 -0.1153,2.04433 c -0.078,1.39488 -0.3769,2.46597 -0.89601,3.21272 -0.51869,0.74042 -1.38069,1.07655 -2.58539,1.00872 -1.0778,-0.0607 -1.8355,-0.50065 -2.2727,-1.32033 -0.4371,-0.82602 -0.5915,-2.37083 -0.4641,-4.63434 0.015,-0.26629 0.084,-0.97175 0.2052,-2.11615 0.122,-1.15073 0.2481,-1.92572 0.3788,-2.32544 0.1373,-0.40569 0.3462,-0.77592 0.6258,-1.11001 0.2798,-0.34042 0.6239,-0.58511 1.033,-0.73381 0.3069,-0.11623 0.6511,-0.18018 1.0309,-0.19223 z m -67.4739,0.16537 0.081,1.38854 -2.6914,0.15607 0.2223,3.83232 2.491298,-0.14469 0.08,1.37924 -2.4913,0.14418 0.2418,4.17494 2.767301,-0.16072 0.078,1.34101 -4.384202,0.25424 -0.702299,-12.11554 z m 46.100101,0.4811 -0.086,4.05712 c 0.6351,7.9e-4 1.095398,-0.13878 1.380799,-0.41858 0.292,-0.28601 0.4459,-0.81012 0.461899,-1.57199 0.015,-0.73015 -0.103899,-1.25332 -0.3576,-1.56994 -0.247198,-0.31646 -0.682099,-0.48138 -1.304298,-0.49454 z"
       id="path953"
       inkscape:connector-curvature="0" />
  </g>
</svg>
